<svg width="120" height="71" viewBox="0 0 120 71" fill="none" xmlns="http://www.w3.org/2000/svg">
<path d="M34.1054 25.9034C34.1054 27.3468 34.2633 28.5171 34.5396 29.3754C34.8554 30.2336 35.2501 31.1699 35.8028 32.1841C36.0001 32.4962 36.0791 32.8083 36.0791 33.0814C36.0791 33.4715 35.8422 33.8616 35.3291 34.2517L32.8422 35.8902C32.487 36.1243 32.1317 36.2413 31.8159 36.2413C31.4212 36.2413 31.0264 36.0462 30.6317 35.6951C30.0791 35.11 29.6054 34.4858 29.2107 33.8616C28.8159 33.1984 28.4212 32.4572 27.987 31.56C24.908 35.149 21.0396 36.9435 16.3817 36.9435C13.0659 36.9435 10.4212 36.0072 8.48697 34.1347C6.55276 32.2622 5.56592 29.7655 5.56592 26.6446C5.56592 23.3287 6.75013 20.6369 9.15802 18.6083C11.5659 16.5798 14.7633 15.5655 18.8291 15.5655C20.1712 15.5655 21.5528 15.6825 23.0133 15.8776C24.4738 16.0726 25.9738 16.3847 27.5528 16.7358V13.888C27.5528 10.9232 26.9212 8.85557 25.6975 7.64623C24.4343 6.43689 22.3028 5.85173 19.2633 5.85173C17.8817 5.85173 16.4607 6.00777 15.0001 6.35887C13.5396 6.70997 12.1185 7.13909 10.737 7.68524C10.1054 7.95832 9.63171 8.11436 9.35539 8.19239C9.07908 8.27041 8.88171 8.30942 8.72381 8.30942C8.17118 8.30942 7.89487 7.91931 7.89487 7.10008V5.18854C7.89487 4.56436 7.97381 4.09623 8.17118 3.82316C8.36855 3.55008 8.72381 3.277 9.27644 3.00392C10.658 2.30173 12.3159 1.71656 14.2501 1.24843C16.1843 0.741287 18.237 0.507221 20.408 0.507221C25.1054 0.507221 28.5396 1.56052 30.7501 3.66711C32.9212 5.7737 34.0264 8.97261 34.0264 13.2638V25.9034H34.1054ZM18.0791 31.833C19.3817 31.833 20.7238 31.599 22.1449 31.1308C23.5659 30.6627 24.8291 29.8045 25.8949 28.6341C26.5264 27.8929 27.0001 27.0737 27.237 26.1374C27.4738 25.2012 27.6317 24.0699 27.6317 22.7435V21.105C26.487 20.8319 25.2633 20.5979 24.0001 20.4418C22.737 20.2858 21.5133 20.2078 20.2896 20.2078C17.6449 20.2078 15.7107 20.7149 14.408 21.7682C13.1054 22.8215 12.4738 24.3039 12.4738 26.2545C12.4738 28.088 12.9475 29.4534 13.9343 30.3896C14.8817 31.3649 16.2633 31.833 18.0791 31.833ZM49.7764 36.0462C49.0659 36.0462 48.5922 35.9292 48.2764 35.6561C47.9607 35.4221 47.6843 34.8759 47.4475 34.1347L38.1712 3.9792C37.9343 3.19898 37.8159 2.69184 37.8159 2.41876C37.8159 1.79458 38.1317 1.44348 38.7633 1.44348H42.6317C43.3817 1.44348 43.8949 1.56052 44.1712 1.83359C44.487 2.06766 44.7238 2.61381 44.9607 3.35502L51.5922 29.1803L57.7501 3.35502C57.9475 2.5748 58.1843 2.06766 58.5001 1.83359C58.8159 1.59953 59.3685 1.44348 60.0791 1.44348H63.237C63.987 1.44348 64.5001 1.56052 64.8159 1.83359C65.1317 2.06766 65.408 2.61381 65.5659 3.35502L71.8028 29.4924L78.6317 3.35502C78.8685 2.5748 79.1449 2.06766 79.4212 1.83359C79.737 1.59953 80.2501 1.44348 80.9607 1.44348H84.6317C85.2633 1.44348 85.6185 1.75557 85.6185 2.41876C85.6185 2.61381 85.5791 2.80887 85.5396 3.04294C85.5001 3.277 85.4212 3.58909 85.2633 4.01821L75.7501 34.1737C75.5133 34.9539 75.237 35.4611 74.9212 35.6951C74.6054 35.9292 74.0922 36.0852 73.4212 36.0852H70.0264C69.2764 36.0852 68.7633 35.9682 68.4475 35.6951C68.1317 35.4221 67.8554 34.9149 67.6975 34.1347L61.5791 8.97261L55.5001 34.0957C55.3028 34.8759 55.0659 35.383 54.7501 35.6561C54.4343 35.9292 53.8817 36.0462 53.1712 36.0462H49.7764ZM100.5 37.0995C98.4475 37.0995 96.3949 36.8655 94.4212 36.3973C92.4475 35.9292 90.908 35.4221 89.8817 34.8369C89.2501 34.4858 88.8159 34.0957 88.658 33.7446C88.5001 33.3935 88.4212 33.0034 88.4212 32.6523V30.6627C88.4212 29.8435 88.737 29.4534 89.3291 29.4534C89.5659 29.4534 89.8028 29.4924 90.0396 29.5704C90.2765 29.6484 90.6317 29.8045 91.0265 29.9605C92.3686 30.5457 93.8291 31.0138 95.3686 31.3259C96.9475 31.638 98.487 31.794 100.066 31.794C102.553 31.794 104.487 31.3649 105.829 30.5067C107.171 29.6484 107.882 28.4001 107.882 26.8006C107.882 25.7083 107.526 24.8111 106.816 24.0699C106.105 23.3287 104.763 22.6655 102.829 22.0413L97.1054 20.2858C94.2238 19.3885 92.0922 18.0622 90.7896 16.3067C89.487 14.5902 88.8159 12.6786 88.8159 10.6501C88.8159 9.01162 89.1712 7.56821 89.8817 6.31986C90.5922 5.07151 91.5396 3.9792 92.7238 3.12096C93.908 2.2237 95.2501 1.56052 96.8291 1.09239C98.408 0.624254 100.066 0.429199 101.803 0.429199C102.671 0.429199 103.579 0.46821 104.448 0.585243C105.355 0.702276 106.184 0.85832 107.013 1.01436C107.803 1.20942 108.553 1.40447 109.263 1.63854C109.974 1.87261 110.526 2.10667 110.921 2.34074C111.474 2.65283 111.869 2.96491 112.105 3.31601C112.342 3.6281 112.461 4.05722 112.461 4.60337V6.43689C112.461 7.25612 112.145 7.68524 111.553 7.68524C111.237 7.68524 110.724 7.5292 110.053 7.21711C107.803 6.20283 105.276 5.69568 102.474 5.69568C100.224 5.69568 98.4475 6.04678 97.2238 6.78799C96.0001 7.5292 95.3686 8.66052 95.3686 10.26C95.3686 11.3523 95.7633 12.2885 96.5528 13.0297C97.3422 13.771 98.8028 14.5122 100.895 15.1754L106.5 16.9308C109.342 17.8281 111.395 19.0765 112.619 20.6759C113.842 22.2754 114.434 24.1089 114.434 26.1374C114.434 27.8149 114.079 29.3363 113.408 30.6627C112.697 31.9891 111.75 33.1594 110.526 34.0957C109.303 35.071 107.842 35.7732 106.145 36.2803C104.369 36.8265 102.513 37.0995 100.5 37.0995Z" fill="#252F3E"/>
<path fill-rule="evenodd" clip-rule="evenodd" d="M107.961 56.0585C94.9737 65.5381 76.1053 70.5706 59.8816 70.5706C37.1448 70.5706 16.6579 62.2612 1.18424 48.4513C-0.0394407 47.359 1.06582 45.8766 2.52635 46.7348C19.2632 56.3315 39.9079 62.1442 61.2632 62.1442C75.6711 62.1442 91.5 59.1793 106.066 53.0936C108.237 52.1184 110.092 54.498 107.961 56.0585Z" fill="#FF9900"/>
<path fill-rule="evenodd" clip-rule="evenodd" d="M113.369 49.9729C111.711 47.8663 102.395 48.9586 98.1712 49.4657C96.908 49.6218 96.7106 48.5295 97.8554 47.7103C105.276 42.5608 117.474 44.0432 118.895 45.7597C120.316 47.5152 118.5 59.5696 111.553 65.3432C110.487 66.2405 109.461 65.7723 109.934 64.602C111.513 60.7399 115.026 52.0405 113.369 49.9729Z" fill="#FF9900"/>
</svg>
