<svg width="100" height="100" viewBox="0 0 100 100" fill="none" xmlns="http://www.w3.org/2000/svg">
<path d="M94.0196 29.5634C94.0196 27.909 93.6671 26.4173 92.9348 25.1696C92.2296 23.922 91.1718 22.8914 89.7615 22.0777C78.0446 15.3242 66.3006 8.57077 54.5837 1.81725C51.4104 2.13087e-05 48.3727 0.0542889 45.2265 1.89859C40.5614 4.63802 17.1819 18.0364 10.2386 22.0777C7.36354 23.7321 5.98035 26.2817 5.98035 29.5906V70.3827C5.98035 72.01 6.33292 73.4475 7.01098 74.6952C7.71623 75.97 8.80112 77.0549 10.2386 77.8956C17.2091 81.9369 40.5614 95.3082 45.2265 98.0747C48.3727 99.9187 51.4375 100 54.5837 98.1561C66.3006 91.3755 78.0446 84.6491 89.7615 77.8956C91.2261 77.0549 92.2839 75.997 92.989 74.6952C93.6671 73.4475 94.0196 72.01 94.0196 70.3827V29.5634Z" fill="#9A4993"/>
<path d="M50.1084 49.8237L6.95654 74.6678C7.6618 75.9426 8.74669 77.0275 10.1842 77.8683C17.1546 81.9095 40.507 95.2808 45.1721 98.0474C48.3182 99.8918 51.3831 99.9731 54.5293 98.1287C66.2462 91.3481 77.9902 84.6218 89.7071 77.8683C91.1716 77.0275 92.2294 75.9698 92.9346 74.6678L50.1084 49.8237Z" fill="#6A1577"/>
<path d="M37.3337 57.1738C39.8562 61.5677 44.5755 64.5241 49.9729 64.5241C55.4245 64.5241 60.1709 61.5406 62.6662 57.0925L50.1085 49.8237L37.3337 57.1738Z" fill="#6A1577"/>
<path d="M94.0198 29.5633C94.0198 27.9089 93.6671 26.4171 92.9349 25.1694L50.1085 49.8237L92.989 74.6679C93.6671 73.4202 94.0198 71.9828 94.0198 70.3554V29.5633Z" fill="#813084"/>
<path d="M62.6661 57.0928C60.1709 61.5137 55.4245 64.5244 49.9729 64.5244C44.5484 64.5244 39.8292 61.568 37.3339 57.1741C36.1134 55.0315 35.4081 52.5905 35.4081 49.9596C35.4081 41.9042 41.9175 35.3949 49.9729 35.3949C55.3431 35.3949 60.0353 38.3241 62.5577 42.6636L75.278 35.3406C70.2062 26.6073 60.7675 20.7217 49.9458 20.7217C33.7808 20.7217 20.7079 33.8218 20.7079 49.9596C20.7079 55.2485 22.1182 60.2391 24.5864 64.5244C29.6311 73.2849 39.1239 79.1976 49.9729 79.1976C60.849 79.1976 70.3418 73.2578 75.3865 64.443L62.6661 57.0928ZM78.7497 43.0434H75.8475V57.0657H78.7497V43.0434ZM85.1777 43.0434H82.2756V57.0657H85.1777V43.0434Z" fill="white"/>
<path d="M87.5375 45.4028H73.5151V48.305H87.5375V45.4028ZM87.5375 51.8037H73.5151V54.7058H87.5375V51.8037Z" fill="white"/>
</svg>
