<svg width="66" height="100" viewBox="0 0 66 100" fill="none" xmlns="http://www.w3.org/2000/svg">
<path d="M62.7229 78.3538H62.2745V78.1465H63.4815V78.3538H63.0362V79.3879H62.7229V78.3538ZM65.1301 78.4078H65.1231L64.6789 79.3881H64.4756L64.0343 78.4078H64.0288V79.3881H63.7336V78.1467H64.1681L64.5773 79.0258L64.9852 78.1467H65.4181V79.3881H65.1299V78.4078H65.1301Z" fill="#E76F00"/>
<path d="M22.5898 52.9683C22.5898 52.9683 19.4706 54.4674 24.8096 54.9746C31.2776 55.5844 34.5833 55.497 41.7111 54.3821C41.7111 54.3821 43.585 55.3532 46.2022 56.1943C30.2236 61.8539 10.0394 55.8664 22.5898 52.9683Z" fill="#5382A1"/>
<path d="M20.6373 45.5825C20.6373 45.5825 17.1389 47.7227 22.4818 48.1794C29.3911 48.7685 34.8475 48.8167 44.2893 47.3142C44.2893 47.3142 45.5952 48.4083 47.6487 49.0067C28.3296 53.6754 6.81162 49.3749 20.6373 45.5825Z" fill="#5382A1"/>
<path d="M37.0974 33.0544C41.0345 36.8005 36.0629 40.1716 36.0629 40.1716C36.0629 40.1716 46.06 35.9065 41.4688 30.5656C37.1808 25.5849 33.8924 23.1102 51.6942 14.5776C51.6942 14.5776 23.7513 20.3453 37.0974 33.0544Z" fill="#E76F00"/>
<path d="M58.2306 58.4304C58.2306 58.4304 60.5388 60.0022 55.6885 61.2182C46.4654 63.5273 17.3011 64.2246 9.19942 61.3102C6.28706 60.2631 11.7486 58.81 13.4665 58.5051C15.2582 58.184 16.2821 58.2439 16.2821 58.2439C13.0433 56.3582 -4.65244 61.9464 7.29356 63.5468C39.872 67.9131 66.681 61.5806 58.2306 58.4304Z" fill="#5382A1"/>
<path d="M24.0899 37.9304C24.0899 37.9304 9.25511 40.8424 18.8365 41.8999C22.8821 42.3475 30.9469 42.2462 38.459 41.726C44.5983 41.298 50.7629 40.3881 50.7629 40.3881C50.7629 40.3881 48.5981 41.1542 47.032 42.0381C31.9675 45.3124 2.86564 43.7891 11.2437 40.4399C18.329 37.6093 24.0899 37.9304 24.0899 37.9304Z" fill="#5382A1"/>
<path d="M50.7017 50.224C66.0155 43.6474 58.935 37.3274 53.9929 38.1789C52.7816 38.3872 52.2415 38.5678 52.2415 38.5678C52.2415 38.5678 52.6912 37.9856 53.55 37.7336C63.3271 34.8929 70.8462 46.112 50.3939 50.5554C50.3939 50.5556 50.6309 50.3805 50.7017 50.224Z" fill="#5382A1"/>
<path d="M41.4691 0.799805C41.4691 0.799805 49.9501 7.81126 33.4252 18.5929C20.174 27.2416 30.4035 32.1729 33.4197 37.8071C25.6848 32.0394 20.0083 26.9622 23.8165 22.2367C29.4061 15.3002 44.891 11.9371 41.4691 0.799805Z" fill="#E76F00"/>
<path d="M25.5947 68.0449C40.294 68.8225 62.8665 67.6134 63.4011 61.8652C63.4011 61.8652 62.3735 64.0443 51.2529 65.7749C38.7067 67.7261 23.2328 67.4983 14.0551 66.2478C14.0553 66.2476 15.9339 67.5329 25.5947 68.0449Z" fill="#5382A1"/>
<path d="M23.1856 90.0087C21.7989 91.0027 20.3344 91.5607 19.0201 91.5607C17.1442 91.5607 16.1306 90.6311 16.1306 89.14C16.1306 87.5271 17.2166 86.3478 21.5732 86.3478H23.1854V90.0087H23.1856ZM27.0118 93.5765V82.5325C27.0118 79.7112 25.0648 77.8496 20.3705 77.8496C17.6299 77.8496 15.2293 78.4089 13.2781 79.1222L13.8413 81.0771C15.3776 80.6111 17.3662 80.1772 19.318 80.1772C22.0222 80.1772 23.1856 81.0771 23.1856 82.9374V84.3332H21.8359C15.2656 84.3332 12.3018 86.4411 12.3018 89.6049C12.3018 92.3353 14.2549 93.8873 17.9324 93.8873C20.2963 93.8873 22.061 93.0807 23.7105 91.9003L24.0099 93.5767H27.0118V93.5765Z" fill="#E76F00"/>
<path d="M39.7814 93.5767H35.0092L29.2659 78.1294H33.4333L36.9971 87.6203L37.7893 90.4747C39.5922 86.3477 40.8674 82.1608 41.5051 78.1294H45.5591C44.4729 83.2161 42.5185 88.7994 39.7814 93.5767Z" fill="#E76F00"/>
<path d="M58.0881 90.0087C56.6988 91.0027 55.2316 91.5607 53.9174 91.5607C52.0447 91.5607 51.0285 90.6311 51.0285 89.14C51.0285 87.5271 52.1171 86.3478 56.4733 86.3478H58.0881V90.0087ZM61.9139 93.5765V82.5325C61.9139 79.7112 59.9621 77.8496 55.2732 77.8496C52.5307 77.8496 50.1292 78.4089 48.1789 79.1222L48.7412 81.0771C50.2781 80.6111 52.2704 80.1772 54.2207 80.1772C56.923 80.1772 58.0881 81.0771 58.0881 82.9374V84.3332H56.7362C50.1639 84.3332 47.2014 86.4411 47.2014 89.6049C47.2014 92.3353 49.153 93.8873 52.8299 93.8873C55.1951 93.8873 56.9591 93.0807 58.6115 91.9003L58.912 93.5767H61.9139V93.5765Z" fill="#E76F00"/>
<path d="M8.10656 96.1999C7.0158 97.5161 5.25404 98.5574 3.3253 99.1465L1.43616 97.3092C2.90422 96.6867 4.16328 95.6812 4.74826 94.7447C5.25426 93.9117 5.4637 92.8383 5.4637 90.2712V72.6357H9.52886V90.0296C9.52864 93.4616 9.19666 94.8479 8.10656 96.1999Z" fill="#E76F00"/>
</svg>
