<svg width="120" height="22" viewBox="0 0 120 22" fill="none" xmlns="http://www.w3.org/2000/svg">
<path d="M19.6365 5.23852C19.5181 4.84567 19.234 4.52648 18.8789 4.33006L11.6589 0.745324C11.4695 0.647112 11.2564 0.622559 11.0671 0.622559C10.8777 0.622559 10.6646 0.622559 10.4753 0.671665L3.25518 4.28095C2.9001 4.45283 2.6397 4.77201 2.54501 5.18941L0.769586 13.2673C0.698569 13.6847 0.793259 14.1021 1.02998 14.4459L6.02485 20.8542C6.30892 21.1489 6.71135 21.3453 7.11378 21.3698H15.0677C15.4938 21.4189 15.8962 21.2225 16.1566 20.8542L21.1515 14.4459C21.3882 14.1021 21.4829 13.6847 21.4356 13.2673L19.6365 5.23852Z" fill="#326DE6"/>
<path d="M18.5236 12.9483C18.4999 12.9483 18.4763 12.9483 18.4763 12.9237C18.4763 12.8992 18.4289 12.8992 18.3816 12.8992C18.2869 12.8746 18.1922 12.8746 18.0975 12.8746C18.0502 12.8746 18.0028 12.8746 17.9555 12.85H17.9318C17.6714 12.8255 17.3873 12.7764 17.1269 12.7027C17.0559 12.6782 16.9849 12.6045 16.9612 12.5309C16.9849 12.5309 16.9612 12.5309 16.9612 12.5309L16.7719 12.4817C16.8665 11.7697 16.8192 11.0331 16.6772 10.3211C16.5115 9.60905 16.2274 8.92156 15.8486 8.30774L15.9907 8.16042V8.13587C15.9907 8.06221 16.0143 7.964 16.0617 7.91489C16.2747 7.71847 16.4878 7.57115 16.7245 7.42383C16.7719 7.39928 16.8192 7.37473 16.8665 7.35017C16.9612 7.30107 17.0323 7.25196 17.1269 7.20285C17.1506 7.1783 17.1743 7.1783 17.198 7.15375C17.2216 7.1292 17.198 7.1292 17.198 7.10464C17.411 6.93277 17.4584 6.63814 17.2927 6.41716C17.2216 6.31895 17.0796 6.24529 16.9612 6.24529C16.8429 6.24529 16.7245 6.29439 16.6298 6.36805L16.6062 6.39261C16.5825 6.41716 16.5588 6.44171 16.5351 6.44171C16.4641 6.51537 16.3931 6.58903 16.3458 6.66269C16.3221 6.71179 16.2747 6.73635 16.2511 6.7609C16.0854 6.95732 15.8723 7.15375 15.6593 7.30107C15.6119 7.32562 15.5646 7.35017 15.5172 7.35017C15.4935 7.35017 15.4462 7.35017 15.4225 7.32562H15.3989L15.2095 7.44838C15.0201 7.25196 14.8071 7.05554 14.6177 6.85911C13.7418 6.14708 12.6529 5.70512 11.5403 5.58236L11.5166 5.38593V5.41049C11.4456 5.36138 11.4219 5.28772 11.3982 5.21406C11.3982 4.94398 11.3982 4.6739 11.4456 4.37926V4.35471C11.4456 4.3056 11.4692 4.25649 11.4692 4.20739C11.4929 4.10918 11.4929 4.01096 11.5166 3.91275V3.76543C11.5403 3.5199 11.3509 3.27437 11.1142 3.24982C10.9721 3.22527 10.8301 3.29893 10.7117 3.42169C10.617 3.5199 10.5697 3.64267 10.5697 3.76543V3.8882C10.5697 3.98641 10.5934 4.08462 10.617 4.18284C10.6407 4.23194 10.6407 4.28105 10.6407 4.33015V4.35471C10.6881 4.62479 10.6881 4.89487 10.6881 5.18951C10.6644 5.26317 10.6407 5.33683 10.5697 5.38593V5.43504L10.546 5.63146C10.2856 5.65602 10.0252 5.70512 9.74117 5.75423C8.62857 5.99976 7.61065 6.61358 6.82947 7.47294L6.68743 7.37473H6.66376C6.64009 7.37473 6.61641 7.39928 6.56907 7.39928C6.52173 7.39928 6.47438 7.37473 6.42704 7.35017C6.21398 7.1783 6.00093 6.98188 5.83523 6.78545C5.81155 6.73635 5.76421 6.7118 5.74054 6.68724C5.66952 6.61358 5.62218 6.53992 5.55116 6.46626C5.52749 6.44171 5.50381 6.44171 5.48014 6.41716C5.45647 6.39261 5.45647 6.39261 5.45647 6.39261C5.36178 6.31895 5.24342 6.26984 5.12506 6.26984C4.98302 6.26984 4.86466 6.31895 4.79364 6.44171C4.65161 6.66269 4.69895 6.95732 4.88833 7.1292C4.912 7.1292 4.912 7.15375 4.912 7.15375C4.912 7.15375 4.95935 7.20285 4.98302 7.20285C5.05404 7.25196 5.14873 7.30107 5.24342 7.35017C5.29076 7.37473 5.33811 7.39928 5.38545 7.42383C5.62218 7.57115 5.8589 7.71847 6.04828 7.91489C6.09562 7.964 6.14297 8.06221 6.11929 8.13587V8.11132L6.26133 8.25863C6.23766 8.30774 6.21398 8.33229 6.19031 8.3814C5.45647 9.5845 5.14873 11.0086 5.36178 12.4081L5.1724 12.4572C5.1724 12.4818 5.14873 12.4817 5.14873 12.4817C5.12506 12.5554 5.05404 12.6045 4.98302 12.6536C4.72263 12.7273 4.46223 12.7764 4.17816 12.8009C4.13082 12.8009 4.08347 12.8009 4.03613 12.8255C3.94144 12.8255 3.84675 12.85 3.75206 12.85C3.72839 12.85 3.70471 12.8746 3.65737 12.8746C3.6337 12.8746 3.6337 12.8746 3.61002 12.8992C3.34963 12.9483 3.18392 13.1938 3.23127 13.4639C3.27861 13.6848 3.49166 13.8322 3.70471 13.8076C3.75206 13.8076 3.77573 13.8076 3.82308 13.7831C3.84675 13.7831 3.84675 13.7831 3.84675 13.7585C3.84675 13.734 3.91777 13.7585 3.94144 13.7585C4.03613 13.734 4.13082 13.6848 4.20183 13.6603C4.24918 13.6357 4.29652 13.6112 4.34387 13.6112H4.36754C4.62794 13.513 4.86466 13.4393 5.14873 13.3902H5.1724C5.24342 13.3902 5.31443 13.4148 5.36178 13.4639C5.38545 13.4639 5.38545 13.4884 5.38545 13.4884L5.5985 13.4639C5.95359 14.5933 6.61641 15.6 7.53964 16.3366C7.75269 16.5084 7.94207 16.6558 8.17879 16.7785L8.06043 16.9504C8.06043 16.9749 8.0841 16.9749 8.0841 16.9749C8.13145 17.0486 8.13145 17.1468 8.10777 17.2205C8.01308 17.466 7.87105 17.7115 7.72902 17.9325V17.9571C7.70534 18.0062 7.68167 18.0307 7.63433 18.0798C7.58698 18.1289 7.53964 18.2272 7.46862 18.3254C7.44495 18.3499 7.44495 18.3745 7.42127 18.399C7.42127 18.399 7.42128 18.4236 7.3976 18.4236C7.27924 18.6691 7.37393 18.9637 7.58698 19.0865C7.63433 19.1111 7.70534 19.1356 7.75269 19.1356C7.94207 19.1356 8.10777 19.0128 8.20246 18.841C8.20246 18.841 8.20246 18.8164 8.22614 18.8164C8.22614 18.7919 8.24981 18.7673 8.27348 18.7428C8.29715 18.6446 8.3445 18.5709 8.36817 18.4727L8.41551 18.3254C8.48653 18.0553 8.60489 17.8098 8.72326 17.5642C8.7706 17.4906 8.84162 17.4415 8.91263 17.4169C8.93631 17.4169 8.93631 17.4169 8.93631 17.3924L9.031 17.1959C9.69382 17.466 10.3803 17.5888 11.0905 17.5888C11.5166 17.5888 11.9427 17.5397 12.3688 17.4169C12.6292 17.3678 12.8896 17.2696 13.1263 17.1959L13.221 17.3678C13.2447 17.3678 13.2447 17.3678 13.2447 17.3924C13.3157 17.4169 13.3867 17.466 13.4341 17.5397C13.5524 17.7852 13.6708 18.0307 13.7418 18.3008V18.3254L13.7891 18.4727C13.8128 18.5709 13.8365 18.6691 13.8838 18.7428C13.9075 18.7673 13.9075 18.7919 13.9312 18.8164C13.9312 18.8164 13.9312 18.841 13.9548 18.841C14.0495 19.0128 14.2152 19.1356 14.4046 19.1356C14.4756 19.1356 14.523 19.1111 14.594 19.0865C14.6887 19.0374 14.7834 18.9392 14.8071 18.8164C14.8307 18.6937 14.8307 18.5709 14.7834 18.4481C14.7834 18.4236 14.7597 18.4236 14.7597 18.4236C14.7597 18.399 14.736 18.3745 14.7124 18.3499C14.665 18.2517 14.6177 18.178 14.5467 18.1044C14.523 18.0553 14.4993 18.0307 14.452 17.9816V17.9325C14.2863 17.7115 14.1679 17.466 14.0732 17.2205C14.0495 17.1468 14.0495 17.0486 14.0969 16.9749C14.0969 16.9504 14.1206 16.9504 14.1206 16.9504L14.0495 16.754C15.2568 15.9928 16.18 14.8143 16.6062 13.4148L16.7955 13.4393C16.8192 13.4393 16.8192 13.4148 16.8192 13.4148C16.8665 13.3657 16.9376 13.3411 17.0086 13.3411H17.0323C17.2927 13.3902 17.553 13.4639 17.7898 13.5621H17.8134C17.8608 13.5866 17.9081 13.6112 17.9555 13.6112C18.0502 13.6603 18.1212 13.7094 18.2159 13.734C18.2395 13.734 18.2632 13.7585 18.3106 13.7585C18.3342 13.7585 18.3342 13.7585 18.3579 13.7831C18.4053 13.8076 18.4289 13.8076 18.4763 13.8076C18.6893 13.8076 18.8787 13.6603 18.9497 13.4639C18.926 13.1938 18.7367 12.9974 18.5236 12.9483ZM11.6823 12.1871L11.0431 12.5063L10.404 12.1871L10.2383 11.4751L10.6881 10.8858H11.3982L11.848 11.4751L11.6823 12.1871ZM15.5409 10.5912C15.6593 11.1068 15.6829 11.6224 15.6356 12.138L13.3867 11.4751C13.1737 11.426 13.0553 11.205 13.1026 10.984C13.1263 10.9104 13.15 10.8613 13.1973 10.8121L14.9728 9.14254C15.2332 9.5845 15.4225 10.0756 15.5409 10.5912ZM14.2626 8.23408L12.3215 9.65815C12.1557 9.75637 11.919 9.73181 11.8007 9.55994C11.7533 9.51084 11.7296 9.46173 11.7296 9.38807L11.5876 6.90822C12.6292 7.03098 13.5524 7.49749 14.2626 8.23408ZM9.97789 6.98188L10.4513 6.88367L10.333 9.33897C10.333 9.55994 10.1436 9.73181 9.93054 9.73181C9.85953 9.73181 9.81218 9.70726 9.74117 9.68271L7.77636 8.23408C8.39184 7.62026 9.14936 7.1783 9.97789 6.98188ZM7.08986 9.14254L8.84162 10.763C9.00732 10.9104 9.03099 11.1559 8.88896 11.3278C8.84162 11.4014 8.79427 11.426 8.69958 11.4505L6.40336 12.138C6.33235 11.1068 6.56907 10.051 7.08986 9.14254ZM6.68743 13.292L9.031 12.8746C9.22037 12.8746 9.40975 12.9974 9.43343 13.1938C9.4571 13.2674 9.4571 13.3657 9.40975 13.4393L8.5102 15.6982C7.68167 15.1335 7.01884 14.2741 6.68743 13.292ZM12.0611 16.3366C11.7296 16.4102 11.3982 16.4593 11.0431 16.4593C10.546 16.4593 10.0252 16.3611 9.55179 16.2138L10.7117 14.0286C10.8301 13.8813 11.0195 13.8322 11.1852 13.9304C11.2562 13.9795 11.3035 14.0286 11.3746 14.1022L12.5108 16.2384C12.3688 16.2629 12.2268 16.2875 12.0611 16.3366ZM14.9491 14.2005C14.594 14.7897 14.0969 15.3053 13.5287 15.6736L12.6055 13.3657C12.5582 13.1692 12.6529 12.9728 12.8186 12.8992C12.8896 12.8746 12.9606 12.85 13.0316 12.85L15.3989 13.2674C15.2805 13.6112 15.1385 13.9304 14.9491 14.2005Z" fill="white"/>
<path d="M115.439 15.9683C115.77 15.9928 116.125 15.9437 116.433 15.8209C116.622 15.7227 116.74 15.5017 116.717 15.2808C116.693 15.0352 116.551 14.8143 116.338 14.7406C115.983 14.5196 115.581 14.3232 115.178 14.2004C114.776 14.0531 114.421 13.8813 114.089 13.7094C113.781 13.5621 113.521 13.3656 113.261 13.1201C113.024 12.8746 112.858 12.6045 112.74 12.2853C112.598 11.917 112.55 11.5242 112.55 11.1313C112.527 10.3211 112.882 9.53537 113.497 9.04431C114.137 8.5287 114.989 8.28317 116.078 8.28317C116.598 8.28317 117.143 8.33228 117.664 8.45504C118.066 8.5287 118.469 8.62691 118.871 8.77423L118.421 10.8612C118.09 10.7385 117.782 10.6648 117.451 10.5666C117.072 10.4684 116.669 10.4438 116.291 10.4438C115.486 10.4438 115.083 10.6648 115.083 11.1313C115.083 11.2295 115.107 11.3277 115.131 11.426C115.178 11.5242 115.249 11.5978 115.344 11.6715C115.439 11.7451 115.581 11.8188 115.746 11.917C115.912 12.0152 116.149 12.1134 116.433 12.2116C116.906 12.3835 117.38 12.6045 117.806 12.85C118.137 13.0219 118.421 13.2429 118.658 13.5375C118.871 13.7585 119.013 14.0286 119.108 14.3478C119.202 14.6915 119.25 15.0352 119.25 15.379C119.297 16.2138 118.918 17.024 118.232 17.4905C117.569 17.957 116.622 18.2026 115.391 18.2026C114.705 18.2271 114.042 18.1535 113.379 17.9816C113 17.8834 112.645 17.7606 112.29 17.6379L112.716 15.4772C113.142 15.6491 113.592 15.7964 114.042 15.8946C114.515 15.9192 114.965 15.9683 115.439 15.9683ZM102.395 13.2674C102.371 12.5308 102.513 11.7942 102.75 11.1068C102.963 10.5175 103.295 10.0019 103.721 9.53537C104.123 9.11797 104.573 8.79878 105.094 8.60236C105.614 8.38138 106.159 8.28317 106.703 8.28317C107.982 8.28317 109 8.70057 109.733 9.51082C110.467 10.3211 110.846 11.5242 110.846 13.0956C110.846 13.2429 110.846 13.4147 110.822 13.6112C110.822 13.8076 110.799 13.9549 110.799 14.1022H105.023C105.07 14.6178 105.33 15.1089 105.757 15.4035C106.277 15.7473 106.893 15.9192 107.508 15.8946C107.958 15.8946 108.432 15.8455 108.881 15.7718C109.26 15.6982 109.639 15.5754 109.994 15.4035L110.349 17.5642C110.183 17.6624 109.994 17.7115 109.805 17.7852C109.544 17.8588 109.284 17.9325 109.023 17.957C108.739 18.0062 108.455 18.0553 108.124 18.1044C107.816 18.1289 107.485 18.1535 107.153 18.1535C106.419 18.178 105.709 18.0553 105.023 17.7852C104.455 17.5642 103.957 17.2205 103.531 16.7785C103.129 16.3366 102.845 15.7964 102.655 15.2317C102.49 14.5687 102.395 13.9058 102.395 13.2674ZM108.384 12.2608C108.384 12.0398 108.337 11.8188 108.266 11.5978C108.218 11.3768 108.1 11.205 107.982 11.0331C107.84 10.8612 107.674 10.7139 107.485 10.6157C107.248 10.4929 107.011 10.4438 106.751 10.4438C106.49 10.4438 106.254 10.4929 106.017 10.6157C105.828 10.7139 105.638 10.8367 105.496 11.0086C105.354 11.1804 105.236 11.3768 105.165 11.5978C105.094 11.8188 105.046 12.0398 105.023 12.2608H108.384ZM95.459 6.17162L98.0157 5.75421V8.50415H101.093V10.7139H98.0157V14.004C97.992 14.4705 98.0867 14.937 98.2997 15.3299C98.4891 15.6491 98.8679 15.8209 99.4597 15.8209C99.7438 15.8209 100.028 15.7964 100.288 15.7473C100.572 15.6982 100.833 15.6245 101.093 15.5263L101.448 17.5888C101.117 17.7361 100.762 17.8343 100.407 17.9325C99.9568 18.0307 99.4833 18.0798 99.0099 18.0798C98.4181 18.1044 97.8263 18.0062 97.2818 17.7852C96.8557 17.6133 96.477 17.3187 96.1929 16.9749C95.9088 16.6066 95.7195 16.1647 95.6011 15.6982C95.4827 15.158 95.4354 14.5933 95.459 14.0531V6.17162ZM85.1142 13.2674C85.0906 12.5308 85.2326 11.7942 85.4693 11.1068C85.6824 10.5175 86.0138 10.0019 86.4399 9.53537C86.8423 9.11797 87.2921 8.79878 87.8129 8.60236C88.3337 8.38138 88.8781 8.28317 89.4226 8.28317C90.7009 8.28317 91.7188 8.70057 92.4527 9.51082C93.1865 10.3211 93.5653 11.5242 93.5653 13.0956C93.5653 13.2429 93.5653 13.4147 93.5416 13.6112C93.5179 13.8076 93.5179 13.9549 93.5179 14.1022H87.7182C87.7655 14.6178 88.0259 15.1089 88.452 15.4035C88.9728 15.7473 89.5883 15.9192 90.2038 15.8946C90.6536 15.8946 91.127 15.8455 91.5768 15.7718C91.9555 15.6982 92.3343 15.5754 92.7131 15.4035L93.0681 17.5642C92.9024 17.6624 92.7131 17.7115 92.5237 17.7852C92.2633 17.8588 92.0029 17.9325 91.7425 17.957C91.4584 18.0062 91.1744 18.0553 90.8429 18.1044C90.5352 18.1289 90.2038 18.1535 89.8724 18.1535C89.1385 18.178 88.4284 18.0553 87.7419 17.7852C87.1737 17.5642 86.6766 17.2205 86.2505 16.7785C85.8481 16.3366 85.564 15.7964 85.3746 15.2317C85.1852 14.5687 85.0906 13.9058 85.1142 13.2674ZM91.1033 12.2608C91.1033 12.0398 91.056 11.8188 90.985 11.5978C90.9376 11.3768 90.8193 11.205 90.7009 11.0331C90.5589 10.8612 90.3932 10.7139 90.2038 10.6157C89.9671 10.4929 89.7303 10.4438 89.4699 10.4438C89.2095 10.4438 88.9728 10.4929 88.7361 10.6157C88.5467 10.7139 88.381 10.8367 88.239 11.0086C88.0969 11.1804 87.9786 11.3768 87.9076 11.5978C87.8366 11.8188 87.7892 12.0398 87.7655 12.2608H91.1033ZM75.4086 8.82334C75.953 8.67602 76.5212 8.55326 77.0893 8.45504C77.7995 8.33228 78.5333 8.28317 79.2435 8.28317C79.8826 8.25862 80.5218 8.38138 81.1373 8.60236C81.6107 8.77423 82.0368 9.06887 82.3446 9.46172C82.6523 9.85456 82.8654 10.3211 82.9837 10.8121C83.1257 11.3768 83.1731 11.9661 83.1731 12.5554V17.8343H80.6402V12.8991C80.6402 12.0398 80.5218 11.4505 80.3087 11.0822C80.0957 10.7385 79.6933 10.542 79.1014 10.542C78.9121 10.542 78.7227 10.542 78.5096 10.5666C78.2966 10.5666 78.1309 10.5912 77.9652 10.6157V17.8343H75.4086V8.82334ZM73.6095 10.8612C73.3727 10.8121 73.1123 10.7385 72.8046 10.6894C72.4732 10.6157 72.1418 10.5912 71.8104 10.5912C71.621 10.5912 71.4316 10.6157 71.2186 10.6403C71.0529 10.6648 70.8871 10.6894 70.7214 10.7385V17.8834H68.1648V8.99521C68.6856 8.79878 69.2301 8.65147 69.7745 8.5287C70.461 8.35683 71.1712 8.28317 71.8577 8.30772C72.0234 8.30772 72.1891 8.33228 72.3548 8.33228C72.5442 8.33228 72.7336 8.35683 72.9466 8.40594C73.136 8.43049 73.3254 8.45504 73.5384 8.50415C73.7042 8.5287 73.8699 8.57781 74.0356 8.65147L73.6095 10.8612ZM57.7253 13.2674C57.7016 12.5308 57.8437 11.7942 58.0804 11.1068C58.2934 10.5175 58.6249 10.0019 59.051 9.53537C59.4534 9.11797 59.9032 8.79878 60.424 8.60236C60.9448 8.38138 61.4892 8.28317 62.0337 8.28317C63.312 8.28317 64.3299 8.70057 65.0637 9.51082C65.7976 10.3211 66.1763 11.5242 66.1763 13.071C66.1763 13.2183 66.1763 13.3902 66.1527 13.5866C66.129 13.783 66.129 13.9304 66.129 14.0777H60.3293C60.3766 14.5933 60.637 15.0843 61.0631 15.379C61.5839 15.7227 62.1994 15.8946 62.8149 15.87C63.2646 15.87 63.7381 15.8209 64.1879 15.7473C64.5666 15.6736 64.9454 15.5509 65.3005 15.4035L65.6556 17.5642C65.4898 17.6624 65.3005 17.7115 65.1111 17.7852C64.8507 17.8588 64.5903 17.9325 64.3299 17.957C64.0458 18.0062 63.7618 18.0553 63.4304 18.1044C63.1226 18.1289 62.7912 18.1535 62.4598 18.1535C61.7259 18.178 61.0158 18.0553 60.3293 17.7852C59.7611 17.5642 59.264 17.2205 58.8379 16.7785C58.4355 16.3366 58.1514 15.7964 57.962 15.2317C57.82 14.5687 57.7253 13.9304 57.7253 13.2674ZM63.7381 12.2608C63.7381 12.0398 63.6907 11.8188 63.6197 11.5978C63.5724 11.3768 63.454 11.205 63.3357 11.0331C63.1936 10.8612 63.0279 10.7139 62.8385 10.6157C62.6018 10.4929 62.3651 10.4438 62.1047 10.4438C61.8443 10.4438 61.6076 10.4929 61.3709 10.6157C61.1815 10.7139 60.9921 10.8367 60.8501 11.0086C60.708 11.1804 60.5897 11.3768 60.5187 11.5978C60.4476 11.8188 60.4003 12.0398 60.3766 12.2608H63.7381ZM53.5826 13.1201C53.5826 11.4014 52.9672 10.5666 51.7599 10.5666C51.4995 10.5666 51.2391 10.5912 50.9787 10.6648C50.7656 10.7139 50.5526 10.8121 50.3632 10.9349V15.7473C50.4816 15.7718 50.6473 15.7964 50.8367 15.8209C51.026 15.8455 51.2391 15.8455 51.4758 15.8455C52.0913 15.8946 52.6831 15.6245 53.0619 15.1089C53.4169 14.5196 53.6063 13.8321 53.5826 13.1201ZM56.1866 13.2183C56.1866 13.9058 56.0919 14.5933 55.8552 15.2562C55.6658 15.8455 55.3581 16.3611 54.9556 16.8031C54.5295 17.245 54.0324 17.5888 53.488 17.8097C52.8488 18.0553 52.186 18.1535 51.4995 18.1535C51.1917 18.1535 50.8603 18.1289 50.5289 18.1044C50.1975 18.0798 49.8661 18.0307 49.5347 18.0062C49.2269 17.957 48.9192 17.9079 48.6115 17.8343C48.3037 17.7852 48.0433 17.7115 47.8303 17.6133V4.47746L50.3869 4.06006V8.72513C50.6709 8.60236 50.9787 8.50415 51.2864 8.43049C51.6178 8.35683 51.9493 8.33228 52.2807 8.33228C52.8725 8.33228 53.4406 8.43049 53.9851 8.70057C54.4585 8.92155 54.8846 9.26529 55.216 9.68269C55.5711 10.1492 55.8315 10.6648 55.9736 11.2295C56.1156 11.8434 56.1866 12.5308 56.1866 13.2183ZM45.392 17.5396C44.8475 17.687 44.2794 17.8097 43.7113 17.8834C43.0011 18.0062 42.2673 18.0553 41.5571 18.0553C40.8943 18.0798 40.2551 17.957 39.6396 17.7361C39.1662 17.5396 38.7638 17.245 38.4323 16.8522C38.1246 16.4348 37.9115 15.9683 37.7932 15.4526C37.6512 14.8879 37.6038 14.2741 37.6038 13.6848V8.50415H40.1604V13.3902C40.1604 14.2495 40.2788 14.8634 40.4918 15.2317C40.7049 15.6 41.1073 15.7964 41.6991 15.7964C41.8885 15.7964 42.0779 15.7964 42.2909 15.7718C42.504 15.7473 42.6697 15.7473 42.8354 15.6982V8.50415H45.392V17.5396ZM30.4784 11.8925C30.7388 11.5978 30.9755 11.3032 31.2596 11.0086C31.52 10.6894 31.7804 10.3947 32.0408 10.1001C32.3012 9.7809 32.5379 9.51082 32.751 9.24074C32.964 8.97066 33.1771 8.72513 33.3428 8.5287H36.3728C35.7574 9.24074 35.1656 9.95278 34.5974 10.6157C34.0056 11.2786 33.3901 11.9661 32.7036 12.6536C33.0824 13.0219 33.4375 13.3902 33.7689 13.8076C34.124 14.2495 34.4791 14.6915 34.8341 15.1826C35.1656 15.6491 35.497 16.1401 35.781 16.6066C36.0651 17.0731 36.3018 17.5151 36.4912 17.9079H33.5558C33.3665 17.5888 33.1534 17.2696 32.9167 16.9013C32.68 16.533 32.4196 16.1647 32.1828 15.7718C31.9224 15.4035 31.6384 15.0352 31.3306 14.6915C31.0702 14.3723 30.7862 14.0777 30.4784 13.8321V17.9325H27.9218V4.47746L30.4784 4.06006V11.8925Z" fill="black"/>
</svg>
