<svg width="120" height="33" viewBox="0 0 120 33" fill="none" xmlns="http://www.w3.org/2000/svg">
<path d="M14.4998 13.2371C12.8485 5.80772 9.40689 3.82993 8.52895 2.43183C8.16693 1.81593 7.84623 1.17573 7.56905 0.515625C7.52267 1.17563 7.43746 1.59143 6.8874 2.09193C5.78297 3.09623 1.09238 6.99463 0.697635 15.436C0.329851 23.3065 6.37078 28.1597 7.16891 28.6613C7.7826 28.9693 8.53003 28.6679 8.89458 28.3852C11.8066 26.3469 15.7854 20.9129 14.503 13.2371" fill="#10AA50"/>
<path d="M7.81949 24.4707C7.66742 26.4188 7.55848 27.5507 7.17236 28.6639C7.17236 28.6639 7.42582 30.5185 7.60378 32.4831H8.23365C8.3839 31.0996 8.6133 29.7263 8.92068 28.3702C8.1053 27.961 7.85077 26.1801 7.81949 24.4707Z" fill="#B8C4C2"/>
<path d="M8.91947 28.3712C8.09546 27.9829 7.85711 26.1646 7.82044 24.4706C8.02422 21.6762 8.08362 18.8729 7.9984 16.0721C7.95525 14.6025 8.01889 2.46071 7.64355 0.683105C7.9003 1.28516 8.19612 1.86909 8.52904 2.43101C9.40698 3.83021 12.8497 5.80801 14.4999 13.2374C15.7855 20.9 11.8283 26.3197 8.91947 28.3712Z" fill="#12924F"/>
<path d="M117.529 25.685C117.176 25.6849 116.831 25.5785 116.538 25.3791C116.244 25.1797 116.015 24.8961 115.879 24.5641C115.742 24.2321 115.706 23.8665 115.773 23.5132C115.84 23.16 116.008 22.8348 116.255 22.5786C116.503 22.3224 116.82 22.1466 117.165 22.0734C117.511 22.0001 117.87 22.0327 118.197 22.1669C118.524 22.3012 118.805 22.5311 119.005 22.8279C119.205 23.1246 119.314 23.4749 119.318 23.8348C119.325 24.0774 119.283 24.3188 119.196 24.5446C119.109 24.7703 118.977 24.9758 118.81 25.1486C118.643 25.3214 118.444 25.458 118.223 25.5501C118.003 25.6423 117.767 25.6882 117.529 25.685ZM117.529 22.2002C117.207 22.198 116.891 22.2934 116.622 22.4744C116.353 22.6554 116.142 22.9138 116.017 23.2169C115.892 23.5199 115.858 23.854 115.919 24.1768C115.981 24.4996 116.135 24.7966 116.361 25.0302C116.588 25.2637 116.878 25.4234 117.194 25.4888C117.51 25.5543 117.838 25.5227 118.136 25.398C118.434 25.2733 118.69 25.0611 118.87 24.7883C119.05 24.5155 119.146 24.1944 119.147 23.8656C119.151 23.647 119.112 23.4298 119.033 23.2268C118.953 23.0238 118.834 22.8392 118.683 22.6839C118.533 22.5286 118.353 22.4057 118.154 22.3227C117.956 22.2396 117.743 22.1979 117.529 22.2002ZM117.961 25.014L117.499 23.9987H117.127V25.014H116.856V22.704H117.524C118.021 22.704 118.228 22.924 118.228 23.3497C118.228 23.6885 118.072 23.8997 117.78 23.9646L118.257 25.0107L117.961 25.014ZM117.138 23.76H117.529C117.846 23.76 117.967 23.65 117.967 23.3552C117.967 23.0604 117.852 22.9603 117.495 22.9603H117.138V23.76Z" fill="#21313C"/>
<path d="M90.8985 24.022C91.3828 24.4169 92.3503 24.5797 93.2034 24.5797C94.3089 24.5797 95.3928 24.3707 96.452 23.395C97.5305 22.3951 98.2725 20.865 98.2725 18.4219C98.2725 16.0745 97.3968 14.1693 95.5999 13.0539C94.5861 12.4038 93.2724 12.1475 91.7743 12.1475C91.3429 12.1475 90.8985 12.1706 90.6462 12.2872C90.5427 12.3705 90.4694 12.4867 90.438 12.6172C90.3927 13.0352 90.3927 16.2186 90.3927 18.1007C90.3927 20.0301 90.3927 22.7207 90.438 23.0507C90.4617 23.3301 90.5998 23.8207 90.8985 24.0264V24.022ZM86.2996 11.1025C86.6911 11.1025 88.1795 11.1718 88.8719 11.1718C90.1662 11.1718 91.0603 11.1025 93.4795 11.1025C95.5072 11.1025 97.2134 11.6602 98.4333 12.7283C99.9087 14.0307 100.698 15.8424 100.698 18.0501C100.698 21.1873 99.2961 23.0001 97.8864 24.022C96.4843 25.0912 94.6605 25.6951 92.0623 25.6951C90.6796 25.6951 88.3057 25.6489 86.3244 25.6258H86.2834C86.1907 25.4399 86.4528 24.715 86.6146 24.6963C87.1538 24.6347 87.2962 24.6127 87.5443 24.5082C87.9627 24.3333 88.0609 24.1155 88.1073 23.3488C88.1763 21.9078 88.1536 20.1885 88.1536 18.236C88.1536 16.8423 88.1763 14.1231 88.131 13.2629C88.0609 12.5435 87.7632 12.3576 87.1603 12.2179C86.7327 12.1253 86.3007 12.0555 85.866 12.0089C85.8207 11.8692 86.1745 11.2389 86.2899 11.1025" fill="#21313C"/>
<path d="M106.409 12.2816C106.318 12.3047 106.202 12.5379 106.202 12.6534C106.178 13.4905 106.156 15.674 106.156 17.1843C106.162 17.2131 106.176 17.2396 106.196 17.2603C106.217 17.2811 106.243 17.2952 106.271 17.3009C106.57 17.324 107.308 17.3482 107.93 17.3482C108.806 17.3482 109.313 17.2316 109.589 17.0919C110.327 16.7201 110.667 15.9061 110.667 15.0239C110.667 13.0021 109.285 12.2354 107.234 12.2354C106.957 12.2318 106.68 12.2472 106.405 12.2816H106.409ZM111.636 21.5766C111.636 19.5317 110.16 18.3701 107.464 18.3701C107.35 18.3701 106.493 18.347 106.29 18.3932C106.22 18.4163 106.151 18.4625 106.151 18.5098C106.151 19.9739 106.128 22.3202 106.198 23.2497C106.244 23.6446 106.521 24.2023 106.865 24.3651C107.234 24.5741 108.064 24.6203 108.64 24.6203C110.229 24.6203 111.636 23.715 111.636 21.5766ZM102.246 11.1431C102.454 11.1431 103.067 11.2124 104.634 11.2124C106.108 11.2124 107.307 11.1662 108.732 11.1662C110.507 11.1662 112.948 11.8174 112.948 14.5124C112.948 15.8324 112.027 16.906 110.829 17.4175C110.76 17.4406 110.76 17.4868 110.829 17.5099C112.534 17.9499 114.031 19.0202 114.031 21.0651C114.031 23.0638 112.81 24.3189 111.036 25.1087C109.958 25.5971 108.617 25.7588 107.261 25.7588C106.225 25.7588 103.446 25.6488 101.902 25.6664C101.74 25.5971 102.05 24.8524 102.188 24.7369C102.542 24.7258 102.893 24.6696 103.233 24.5697C103.785 24.4311 103.851 24.2496 103.92 23.4125C103.966 22.692 103.966 20.1125 103.966 18.2766C103.966 15.7664 103.99 14.0713 103.966 13.2342C103.944 12.5841 103.713 12.374 103.275 12.2585C102.93 12.1881 102.354 12.1188 101.893 12.0495C101.778 11.9329 102.133 11.2355 102.247 11.1431" fill="#21313C"/>
<path d="M19.6026 25.6853C19.5433 25.5365 19.5193 25.3756 19.5325 25.2156C19.5273 25.1065 19.5516 24.9981 19.6026 24.9021C19.9006 24.8582 20.1959 24.7969 20.487 24.7184C20.8947 24.615 21.0479 24.3884 21.0716 23.8582C21.1385 22.6053 21.1428 20.2546 21.1191 18.6024V18.554C21.1191 18.3758 21.1191 18.1338 20.9033 17.9633C20.5242 17.7207 20.1126 17.5354 19.6814 17.4133C19.4883 17.355 19.3815 17.2516 19.3869 17.1306C19.3923 17.0096 19.5142 16.8666 19.7655 16.816C20.4331 16.7467 22.1825 16.321 22.8695 15.9976C22.9403 16.0916 22.9731 16.2097 22.9612 16.3276C22.9612 16.4002 22.9504 16.4772 22.9429 16.5564C22.9235 16.7896 22.9019 17.0547 22.9019 17.3187C22.9061 17.3507 22.919 17.381 22.9392 17.4059C22.9593 17.4309 22.9859 17.4497 23.016 17.4601C23.046 17.4705 23.0783 17.4721 23.1092 17.4648C23.1401 17.4575 23.1684 17.4416 23.1909 17.4188C24.4992 16.3727 25.6716 15.9998 26.2723 15.9998C27.2614 15.9998 28.0314 16.4816 28.6279 17.4738C28.6416 17.4977 28.661 17.5177 28.6845 17.5317C28.7079 17.5458 28.7345 17.5535 28.7616 17.5541C28.7863 17.5538 28.8106 17.5475 28.8324 17.5356C28.8542 17.5237 28.8728 17.5067 28.8867 17.4859C30.0893 16.5553 31.2811 15.9998 32.0792 15.9998C33.9645 15.9998 35.0916 17.4397 35.0916 19.8498C35.0916 20.5428 35.0851 21.4217 35.0787 22.2412C35.0733 22.9606 35.0679 23.6349 35.0679 24.1013C35.0679 24.2113 35.2167 24.5281 35.44 24.5908C35.7161 24.7283 36.1141 24.7987 36.6177 24.8867H36.6371C36.6749 25.0253 36.5951 25.5632 36.5185 25.6732C36.3934 25.6732 36.2208 25.6622 36.0051 25.6512C35.6136 25.6314 35.0765 25.6039 34.452 25.6039C33.1987 25.6039 32.5441 25.6281 31.9185 25.6699C31.8711 25.5104 31.8549 24.9956 31.912 24.8878C32.1711 24.8464 32.4275 24.7895 32.68 24.7173C33.079 24.5831 33.1944 24.3983 33.2192 23.8582C33.2289 23.4743 33.3012 20.0918 33.1729 19.2888C33.0542 18.4561 32.4395 17.4815 31.0945 17.4815C30.5951 17.4815 29.7895 17.6938 29.0215 18.2878C28.9739 18.3428 28.9471 18.4134 28.9461 18.4869V18.5034C29.0366 18.9368 29.0366 19.4428 29.0366 20.2073C29.0366 20.6473 29.0366 21.106 29.0313 21.5647C29.0259 22.4975 29.0215 23.3775 29.0366 24.043C29.0366 24.4962 29.3052 24.6051 29.522 24.692C29.6396 24.7184 29.7323 24.7415 29.8261 24.7635C30.0063 24.8086 30.1939 24.8548 30.4733 24.8999C30.5146 25.0931 30.5109 25.2935 30.4625 25.4851C30.4511 25.5569 30.4234 25.6251 30.3816 25.6842C29.6849 25.66 28.9698 25.6391 27.9376 25.6391C27.6248 25.6391 27.1147 25.6523 26.6639 25.6644C26.2982 25.6743 25.9531 25.6842 25.7568 25.6853C25.7037 25.5575 25.6801 25.419 25.6878 25.2805C25.6767 25.1499 25.7018 25.0188 25.76 24.9021L26.0372 24.8504C26.2788 24.8064 26.488 24.769 26.6843 24.7184C27.0252 24.6084 27.1535 24.4192 27.1783 23.9759C27.2452 22.9419 27.297 19.962 27.1535 19.2162C26.9098 18.0194 26.2421 17.4122 25.1679 17.4122C24.5391 17.4122 23.7442 17.7213 23.0949 18.2174C23.0325 18.2794 22.9833 18.3539 22.9504 18.4363C22.9176 18.5186 22.9018 18.607 22.904 18.6959C22.904 19.0512 22.904 19.4736 22.904 19.9268C22.904 21.4228 22.8943 23.2851 22.9299 24.0903C22.9515 24.3389 23.0378 24.6337 23.494 24.7415C23.5943 24.7712 23.7669 24.7998 23.9675 24.8339C24.0829 24.8537 24.2091 24.8746 24.3396 24.8988C24.3811 25.1622 24.36 25.4319 24.2781 25.6853C24.0775 25.6853 23.8305 25.6721 23.5479 25.66C23.1165 25.6402 22.5772 25.616 21.9679 25.616C21.2474 25.616 20.7459 25.6402 20.3436 25.66C20.0729 25.6732 19.8388 25.6842 19.6048 25.6853" fill="#21313C"/>
<path d="M42.7321 16.9941C42.3429 16.9859 41.96 17.0958 41.632 17.3098C40.8317 17.8059 40.424 18.797 40.424 20.2534C40.424 22.9792 41.7625 24.8834 43.6791 24.8834C44.193 24.9 44.6942 24.719 45.0834 24.3763C45.6722 23.8868 45.985 22.8858 45.985 21.4843C45.985 18.7992 44.6767 16.9941 42.73 16.9941H42.7321ZM43.0988 25.8943C39.6367 25.8943 38.4039 23.3038 38.4039 20.8805C38.4039 19.1876 39.0823 17.8642 40.4208 16.9457C41.3583 16.3538 42.4344 16.0294 43.5367 16.0063C46.1781 16.0063 48.0235 17.9434 48.0235 20.7188C48.0235 22.6042 47.2868 24.0936 45.8923 25.0242C45.2225 25.4422 44.0587 25.8943 43.0988 25.8943Z" fill="#21313C"/>
<path d="M77.9787 16.9941C77.5887 16.9851 77.2049 17.0951 76.8765 17.3098C76.0762 17.8059 75.6685 18.797 75.6685 20.2534C75.6685 22.9792 77.007 24.8834 78.9236 24.8834C79.4389 24.9011 79.9419 24.72 80.3321 24.3763C80.921 23.8868 81.2327 22.8858 81.2327 21.4843C81.2327 18.7992 79.9255 16.9941 77.9787 16.9941ZM78.3476 25.8943C74.8855 25.8943 73.6527 23.3038 73.6527 20.8816C73.6527 19.1864 74.3311 17.8642 75.6707 16.9457C76.6076 16.3535 77.6834 16.029 78.7855 16.0063C81.4269 16.0063 83.2722 17.9445 83.2722 20.7176C83.2722 22.6052 82.5356 24.0936 81.141 25.0231C80.4713 25.4422 79.3075 25.8943 78.3476 25.8943Z" fill="#21313C"/>
<path d="M66.322 16.9018C65.2553 16.9018 64.5651 17.7609 64.5651 19.0908C64.5651 20.4207 65.1593 22.0014 66.83 22.0014C67.1169 22.0014 67.6368 21.8716 67.8945 21.5823C68.2828 21.2182 68.5416 20.4658 68.5416 19.6716C68.5416 17.9369 67.7133 16.9018 66.3274 16.9018H66.322ZM66.1893 26.0802C65.888 26.0768 65.5909 26.1526 65.3265 26.3002C64.482 26.8502 64.0905 27.4002 64.0905 28.0393C64.0905 28.6377 64.3181 29.114 64.8077 29.5364C65.4009 30.049 66.2012 30.2987 67.2528 30.2987C69.3225 30.2987 70.2501 29.1635 70.2501 28.0393C70.2501 27.2561 69.865 26.7314 69.0723 26.4344C68.4618 26.2067 67.4415 26.0813 66.1926 26.0813L66.1893 26.0802ZM66.3306 31.4713C65.0882 31.4713 64.193 31.204 63.4283 30.6034C62.6841 30.0182 62.3497 29.1492 62.3497 28.5486C62.3578 28.1615 62.5025 27.7904 62.7574 27.5036C62.9731 27.2528 63.4747 26.7831 64.6341 25.9702C64.6521 25.9624 64.6674 25.9493 64.6781 25.9327C64.6889 25.9161 64.6946 25.8966 64.6945 25.8767C64.6949 25.8544 64.6878 25.8327 64.6745 25.8151C64.6611 25.7975 64.6423 25.7851 64.6211 25.7799C63.6666 25.407 63.3787 24.7899 63.2913 24.4599C63.2913 24.4478 63.2913 24.4291 63.2816 24.4082C63.2546 24.2784 63.2287 24.1552 63.4024 24.0287C63.5361 23.9319 63.7497 23.8021 63.9783 23.6646C64.3011 23.4823 64.6107 23.2768 64.9048 23.0497C64.9206 23.0323 64.9323 23.0115 64.939 22.9889C64.9458 22.9662 64.9473 22.9423 64.9435 22.919C64.9398 22.8956 64.9309 22.8734 64.9174 22.8541C64.904 22.8348 64.8864 22.8189 64.866 22.8077C63.4531 22.3237 62.7412 21.2534 62.7412 19.6177C62.7369 19.1076 62.8533 18.604 63.0805 18.1496C63.3076 17.6952 63.639 17.3033 64.0463 17.0074C64.6147 16.5487 66.0416 15.9976 66.9659 15.9976H67.0198C67.97 16.0207 68.5061 16.2242 69.2481 16.5036C69.6702 16.6592 70.1175 16.7316 70.5661 16.717C71.3523 16.717 71.6964 16.4629 71.9919 16.167C72.0398 16.3002 72.0654 16.4408 72.0674 16.5828C72.0855 16.921 71.9954 17.256 71.8107 17.5376C71.65 17.7653 71.2714 17.9303 70.9252 17.9303C70.8896 17.9303 70.8551 17.9303 70.8174 17.9248C70.6352 17.9117 70.4546 17.8811 70.2781 17.8335L70.1897 17.8654C70.1616 17.9072 70.18 17.9534 70.2026 18.0128C70.2081 18.0244 70.2125 18.0365 70.2156 18.0491C70.2787 18.3426 70.3216 18.6404 70.3439 18.9401C70.3439 20.6506 69.6828 21.3953 68.9677 21.9475C68.2763 22.4765 67.4553 22.8008 66.5949 22.8847C66.5765 22.8847 66.487 22.8924 66.3188 22.9078C66.2109 22.9177 66.0707 22.9309 66.0502 22.9309H66.0297C65.8744 22.9749 65.4689 23.1718 65.4689 23.5381C65.4689 23.8417 65.6522 24.219 66.5291 24.2872L67.0964 24.3279C68.2526 24.4104 69.6968 24.5127 70.3763 24.747C70.827 24.9086 71.2163 25.2111 71.4887 25.6114C71.7612 26.0117 71.9029 26.4895 71.8938 26.9767C71.8938 28.5112 70.8238 29.9544 69.0324 30.8366C68.1876 31.2481 67.2626 31.4598 66.3263 31.4559" fill="#21313C"/>
<path d="M61.0306 24.8667C60.5237 24.7974 60.1537 24.727 59.7169 24.518C59.6312 24.4274 59.5748 24.3122 59.5552 24.188C59.5088 23.4675 59.5088 21.3764 59.5088 20.008C59.5088 18.8915 59.3254 17.918 58.8617 17.2195C58.3084 16.4286 57.5253 15.9644 56.5115 15.9644C55.6131 15.9644 54.4148 16.5914 53.4247 17.4516C53.401 17.4747 53.2489 17.6221 53.2521 17.3933C53.2554 17.1645 53.2899 16.7003 53.3115 16.4033C53.3211 16.3243 53.3124 16.2443 53.2862 16.1694C53.2599 16.0945 53.2169 16.0269 53.1605 15.9721C52.5133 16.3021 50.6982 16.7421 50.0262 16.8092C49.5366 16.906 49.4125 17.3867 49.9356 17.5528H49.9432C50.3619 17.6705 50.7616 17.8499 51.1296 18.0852C51.3367 18.248 51.314 18.4801 51.314 18.666C51.3367 20.2225 51.3367 22.6161 51.2676 23.9174C51.245 24.4289 51.1059 24.6148 50.737 24.7083L50.7715 24.6962C50.4906 24.7679 50.2057 24.8223 49.9184 24.859C49.803 24.9745 49.803 25.6488 49.9184 25.7885C50.1492 25.7885 51.3205 25.7192 52.2912 25.7192C53.6264 25.7192 54.3177 25.7885 54.664 25.7885C54.8031 25.6257 54.8484 24.9987 54.7567 24.859C54.4377 24.8442 54.1209 24.7974 53.8108 24.7193C53.4431 24.6269 53.3503 24.4399 53.3276 24.023C53.2823 22.9296 53.2823 20.6064 53.2823 19.0257C53.2823 18.5857 53.3967 18.3756 53.5347 18.2557C53.9953 17.8377 54.7567 17.5594 55.4243 17.5594C56.0715 17.5594 56.5029 17.7684 56.8264 18.0467C57.2033 18.382 57.4396 18.8522 57.4865 19.3601C57.5782 20.2401 57.5545 22.01 57.5545 23.5401C57.5545 24.3772 57.4865 24.5873 57.1867 24.6797C57.0486 24.749 56.6798 24.8194 56.2419 24.8656C56.1038 25.0053 56.1491 25.6554 56.2419 25.7951C56.8405 25.7951 57.5361 25.7258 58.5456 25.7258C59.8129 25.7258 60.6197 25.7951 60.9422 25.7951C61.0802 25.6323 61.1266 25.0251 61.0349 24.8656" fill="#21313C"/>
</svg>
