<svg width="120" height="40" viewBox="0 0 120 40" fill="none" xmlns="http://www.w3.org/2000/svg">
<path d="M26.5697 21.2125C26.623 27.084 31.7188 29.0355 31.7746 29.0622C31.1508 31.0205 30.2469 32.8781 29.0909 34.5774C27.474 36.941 25.7964 39.2949 23.154 39.3434C20.5552 39.3919 19.7212 37.804 16.7515 37.804C13.7818 37.804 12.8558 39.2949 10.3976 39.3919C7.84486 39.4889 5.90305 36.8368 4.27153 34.4828C0.940622 29.6658 -1.60483 20.8755 1.8182 14.9386C3.51517 11.9931 6.54547 10.1264 9.84001 10.078C12.3443 10.0295 14.7103 11.7749 16.2424 11.7749C17.7746 11.7749 20.6449 9.6925 23.6679 9.99796C24.9309 10.0513 28.4824 10.5095 30.7612 13.8452C30.577 13.9592 26.5261 16.318 26.5697 21.2246V21.2125ZM21.697 6.80038C23.0521 5.15917 23.9637 2.87796 23.7164 0.606445C21.7624 0.684021 19.4012 1.90826 18.0024 3.54705C16.7467 5.0016 15.6461 7.31917 15.9443 9.54705C18.1261 9.71432 20.3443 8.43917 21.697 6.80038Z" fill="#333333"/>
<path d="M52.0846 24.3417C52.1038 25.2748 51.921 26.201 51.5489 27.0569C51.2283 27.7946 50.697 28.4213 50.0216 28.8581C49.334 29.2852 48.5375 29.5041 47.7282 29.4884C47.1284 29.5086 46.5318 29.3928 45.9831 29.1497C45.4344 28.9067 44.9478 28.5426 44.5598 28.0848C43.7517 27.149 43.3476 25.8852 43.3476 24.2933V23.1417C43.3296 22.2088 43.5149 21.2831 43.8907 20.429C44.2078 19.6841 44.7418 19.0519 45.4233 18.6148C46.1047 18.1776 46.902 17.9558 47.7113 17.9781C48.5157 17.9625 49.3076 18.1788 49.9925 18.6011C50.66 19.0286 51.189 19.6409 51.5149 20.3636C51.8886 21.1925 52.0804 22.0919 52.0773 23.0011L52.0846 24.3417ZM51.1367 23.1296C51.1367 21.7817 50.8321 20.7248 50.2228 19.9587C49.9133 19.5989 49.5297 19.3102 49.0984 19.1123C48.667 18.9143 48.198 18.8119 47.7234 18.8119C47.2488 18.8119 46.7798 18.9143 46.3484 19.1123C45.9171 19.3102 45.5335 19.5989 45.224 19.9587C44.605 20.7248 44.2963 21.7955 44.2979 23.1708V24.3417C44.2979 25.6702 44.6058 26.7207 45.2216 27.4933C45.5296 27.8574 45.9131 28.1502 46.3454 28.3516C46.7777 28.553 47.2486 28.6582 47.7255 28.6598C48.2025 28.6614 48.6741 28.5595 49.1077 28.361C49.5414 28.1625 49.9268 27.8722 50.2373 27.5102C50.8386 26.7425 51.1383 25.6743 51.1367 24.3054V23.1296Z" fill="#333333"/>
<path d="M60.9551 25.2557C60.9551 26.5551 60.669 27.583 60.0945 28.3467C59.8309 28.7118 59.4818 29.0069 59.0777 29.2059C58.6737 29.405 58.2271 29.502 57.7769 29.4885C56.6181 29.4885 55.7413 29.0578 55.1466 28.1964L55.1078 29.3333H54.2472V17.5151H55.1514V22.2182C55.424 21.7769 55.8101 21.4169 56.2694 21.176C56.7287 20.935 57.2443 20.8219 57.7623 20.8485C58.2138 20.8324 58.6624 20.9267 59.0692 21.1231C59.476 21.3195 59.8287 21.6122 60.0969 21.9757C60.669 22.7273 60.9551 23.7721 60.9551 25.1103V25.2557ZM60.0314 25.0957C60.0314 23.9968 59.8189 23.1491 59.3939 22.5527C59.194 22.263 58.924 22.0288 58.6089 21.8719C58.2939 21.7151 57.9442 21.6407 57.5927 21.6557C57.0594 21.6399 56.5345 21.7916 56.092 22.0897C55.6601 22.411 55.3356 22.8556 55.1611 23.3648V27.1176C55.6234 28.1648 56.4395 28.6885 57.6096 28.6885C57.9583 28.7011 58.3045 28.625 58.6157 28.4672C58.9269 28.3095 59.193 28.0753 59.389 27.7867C59.8189 27.1887 60.0331 26.2917 60.0314 25.0957Z" fill="#333333"/>
<path d="M63.9807 21.0084V30.3272C63.9807 31.0956 63.794 31.6823 63.4255 32.0896C63.057 32.4969 62.5115 32.6956 61.794 32.6956C61.5186 32.6954 61.2454 32.647 60.9867 32.5526L61.0012 31.7962C61.2265 31.8619 61.4599 31.8954 61.6946 31.8956C62.6077 31.8956 63.0643 31.3696 63.0643 30.3175V21.0084H63.9807ZM63.5249 17.9853C63.6088 17.9795 63.693 17.9914 63.772 18.0202C63.851 18.0491 63.923 18.0943 63.9834 18.1528C64.0438 18.2114 64.0911 18.282 64.1224 18.36C64.1537 18.4381 64.1682 18.5219 64.1649 18.6059C64.1666 18.6859 64.1525 18.7654 64.1234 18.8399C64.0943 18.9143 64.0507 18.9823 63.9952 19.0399C63.9336 19.1007 63.8599 19.1478 63.7788 19.1783C63.6978 19.2088 63.6113 19.2219 63.5249 19.2169C63.4403 19.2216 63.3557 19.2082 63.2767 19.1777C63.1977 19.1472 63.1261 19.1002 63.0667 19.0399C62.957 18.9224 62.8978 18.7666 62.9019 18.6059C62.8977 18.4431 62.9568 18.285 63.0667 18.1647C63.126 18.1041 63.1975 18.0567 63.2765 18.0258C63.3555 17.9949 63.4402 17.9811 63.5249 17.9853Z" fill="#333333"/>
<path d="M69.8037 29.4883C69.1273 29.497 68.462 29.3156 67.8837 28.9647C67.311 28.6152 66.8488 28.111 66.5504 27.5101C66.2225 26.8603 66.0562 26.141 66.0655 25.4132V25.081C66.054 24.3342 66.2132 23.5946 66.531 22.9186C66.817 22.306 67.2656 21.7836 67.828 21.4083C68.3589 21.0488 68.9856 20.8571 69.6267 20.858C70.0797 20.8377 70.5315 20.9202 70.948 21.0995C71.3645 21.2788 71.735 21.5501 72.0316 21.8932C72.6231 22.5816 72.9197 23.5239 72.9213 24.7198V25.2362H66.9867V25.4132C66.9576 26.2719 67.2468 27.1111 67.7989 27.7695C68.0461 28.0709 68.3584 28.3124 68.7124 28.4757C69.0664 28.639 69.4527 28.72 69.8425 28.7125C70.2919 28.7215 70.7376 28.6295 71.1467 28.4435C71.5517 28.2405 71.9037 27.9458 72.1746 27.5828L72.7516 28.0216C72.0728 28.9994 71.0902 29.4883 69.8037 29.4883ZM69.634 21.641C69.3048 21.6353 68.9782 21.7002 68.6762 21.8316C68.3742 21.9629 68.104 22.1575 67.8837 22.4022C67.3821 22.9731 67.0785 23.6908 67.0183 24.4483H72.0122V24.3489C72.018 23.6376 71.7754 22.9465 71.3261 22.395C71.1198 22.1491 70.8602 21.9534 70.5671 21.8228C70.2739 21.6921 69.9548 21.63 69.634 21.641Z" fill="#333333"/>
<path d="M77.799 28.7103C78.384 28.7306 78.9566 28.5386 79.4111 28.1696C79.6206 27.9979 79.7915 27.784 79.9127 27.5417C80.0338 27.2994 80.1025 27.0342 80.1141 26.7636H80.9989C80.9744 27.2636 80.806 27.746 80.5141 28.1527C80.2177 28.5761 79.8157 28.9145 79.348 29.1345C78.8632 29.3701 78.3307 29.4912 77.7917 29.4884C77.3006 29.5097 76.8112 29.418 76.3611 29.2205C75.911 29.0229 75.5122 28.7248 75.1953 28.349C74.5488 27.5911 74.2256 26.5705 74.2256 25.2872V25.0109C74.2109 24.261 74.3581 23.5168 74.6571 22.829C74.9178 22.2335 75.3477 21.7277 75.8935 21.3745C76.4574 21.0242 77.111 20.8456 77.7747 20.8606C78.604 20.8301 79.4129 21.122 80.0317 21.6751C80.3271 21.9502 80.5637 22.2824 80.727 22.6516C80.8904 23.0208 80.9771 23.4193 80.982 23.823H80.1214C80.1162 23.526 80.0515 23.233 79.9312 22.9615C79.8108 22.6899 79.6373 22.4452 79.4208 22.2418C79.2043 22.0384 78.9492 21.8804 78.6707 21.7773C78.3921 21.6741 78.0957 21.6278 77.799 21.6412C77.427 21.6227 77.0562 21.695 76.7183 21.8516C76.3805 22.0083 76.0858 22.2447 75.8596 22.5406C75.4014 23.1418 75.1711 23.9806 75.1711 25.0642V25.3333C75.1711 26.3951 75.4006 27.2234 75.8596 27.8181C76.0874 28.1117 76.3826 28.3461 76.7202 28.5013C77.0578 28.6566 77.4278 28.7283 77.799 28.7103Z" fill="#333333"/>
<path d="M84.2691 18.8779V21.0088H85.9928V21.7628H84.2691V27.3167C84.24 27.6778 84.3248 28.039 84.5116 28.3494C84.613 28.4696 84.7422 28.5632 84.8879 28.6224C85.0336 28.6815 85.1915 28.7043 85.3479 28.6888C85.5974 28.679 85.846 28.6531 86.0922 28.6113L86.131 29.3579C85.8125 29.4563 85.4798 29.5006 85.1467 29.4888C84.5164 29.4888 84.0558 29.3046 83.7697 28.9385C83.4837 28.5725 83.3382 28.0319 83.3382 27.3191V21.7628H81.8182V21.0088H83.3479V18.8779H84.2691Z" fill="#333333"/>
<path d="M87.8474 18.6062C87.8451 18.5251 87.8589 18.4444 87.888 18.3686C87.9172 18.2929 87.961 18.2237 88.0171 18.165C88.0769 18.1043 88.1488 18.0569 88.2282 18.026C88.3076 17.9951 88.3926 17.9813 88.4777 17.9856C88.5635 17.9819 88.6491 17.9958 88.7292 18.0267C88.8093 18.0576 88.8821 18.1047 88.9432 18.165C89 18.2232 89.0445 18.2923 89.0741 18.3681C89.1037 18.4439 89.1177 18.5249 89.1153 18.6062C89.1177 18.6865 89.1036 18.7664 89.074 18.841C89.0444 18.9156 88.9999 18.9834 88.9432 19.0402C88.882 19.1002 88.8091 19.1469 88.729 19.1774C88.6489 19.2078 88.5633 19.2214 88.4777 19.2171C88.3928 19.2218 88.3079 19.2084 88.2285 19.1779C88.1491 19.1474 88.0771 19.1005 88.0171 19.0402C87.9612 18.9829 87.9173 18.915 87.8881 18.8405C87.859 18.7659 87.8451 18.6863 87.8474 18.6062ZM88.931 29.3335H88.0074V21.0087H88.931V29.3335Z" fill="#333333"/>
<path d="M94.0239 28.0658L96.5572 21.0088H97.5027L94.3948 29.3336H93.6482L90.5233 21.0088H91.4712L94.0239 28.0658Z" fill="#333333"/>
<path d="M102.235 29.4882C101.559 29.4969 100.893 29.3155 100.315 28.9646C99.7417 28.6152 99.2787 28.111 98.9793 27.51C98.6525 26.8598 98.4863 26.1407 98.4945 25.4131V25.0809C98.4829 24.3341 98.6421 23.5945 98.9599 22.9185C99.2467 22.3064 99.6951 21.7841 100.257 21.4082C100.789 21.0486 101.416 20.8569 102.058 20.8579C102.511 20.8379 102.963 20.9206 103.379 21.0999C103.796 21.2792 104.166 21.5503 104.463 21.8931C105.054 22.5815 105.35 23.5238 105.35 24.7197V25.2361H99.4181V25.4131C99.389 26.2718 99.6782 27.111 100.23 27.7694C100.477 28.071 100.79 28.3125 101.144 28.4758C101.498 28.6392 101.884 28.7201 102.274 28.7124C102.723 28.7214 103.169 28.6294 103.578 28.4434C103.983 28.2406 104.334 27.9459 104.604 27.5827L105.181 28.0215C104.503 28.9993 103.522 29.4882 102.235 29.4882ZM102.065 21.6409C101.736 21.6348 101.409 21.6997 101.107 21.831C100.805 21.9624 100.535 22.1571 100.315 22.4021C99.8125 22.9724 99.5088 23.6904 99.4496 24.4482H104.444V24.3488C104.449 23.6375 104.207 22.9464 103.758 22.3949C103.551 22.1491 103.291 21.9535 102.998 21.8229C102.705 21.6923 102.386 21.6301 102.065 21.6409Z" fill="#333333"/>
<path d="M110.015 24.7787H106.327V24.0005H110.015V24.7787Z" fill="#333333"/>
<path d="M119.809 25.8401C119.679 27.0215 119.258 27.925 118.543 28.5504C117.816 29.1759 116.873 29.4886 115.685 29.4886C114.904 29.5026 114.137 29.2859 113.479 28.8656C112.825 28.4314 112.311 27.8177 111.998 27.0983C111.636 26.2753 111.454 25.3841 111.467 24.485V23.0304C111.45 22.1207 111.628 21.2179 111.99 20.3832C112.306 19.6544 112.829 19.0352 113.496 18.6038C114.171 18.1785 114.955 17.9602 115.753 17.9759C116.952 17.9759 117.9 18.2991 118.597 18.9456C119.292 19.5904 119.695 20.4874 119.809 21.6292H118.853C118.618 19.7254 117.584 18.7743 115.753 18.7759C115.287 18.7601 114.825 18.8551 114.403 19.0533C113.982 19.2514 113.613 19.5468 113.329 19.9153C112.724 20.6749 112.423 21.7254 112.424 23.0668V24.4365C112.424 25.7294 112.718 26.7613 113.304 27.5323C113.578 27.9041 113.938 28.2036 114.353 28.4051C114.768 28.6066 115.226 28.7039 115.687 28.6886C116.677 28.6886 117.422 28.451 117.925 27.9759C118.428 27.5007 118.738 26.7888 118.856 25.8401H119.809Z" fill="#333333"/>
</svg>
