<svg width="120" height="63" viewBox="0 0 120 63" fill="none" xmlns="http://www.w3.org/2000/svg">
<path d="M2.18672 3.77011L3.76169 2.18751C6.1749 -0.211923 10.1122 -0.058764 12.3222 2.51935L34.1174 28.0453C36.0226 30.2661 35.9972 33.5589 34.0666 35.7541L12.3477 60.4888C10.1123 63.0158 6.22574 63.1435 3.83793 60.744L2.26296 59.1614C0.129167 57.0172 -0.0232487 53.5967 1.90732 51.2483L14.9133 35.5754C16.6915 33.4312 16.7169 30.3426 14.9896 28.1474L1.78034 11.5555C-0.0994347 9.25819 0.0783924 5.88877 2.18678 3.77011H2.18672Z" fill="#92D13D"/>
<path d="M14.8879 35.6264L1.88187 51.2994C-0.0487005 53.6222 0.103715 57.0682 2.23751 59.2124L3.81247 60.795C6.20029 63.1945 10.0868 63.0668 12.3222 60.5398L17.0216 55.1793C18.7998 51.6567 19.7905 47.6747 19.7905 43.4629C19.7905 38.2556 18.2664 33.4312 15.6753 29.3726C16.6406 31.3636 16.3866 33.8396 14.8879 35.6264Z" fill="#49691F"/>
<path d="M45.2944 50.5085H40.2393V20.9749H45.2944V24.0636C46.0056 21.996 48.5712 20.5155 52.0767 20.5155C55.0742 20.5155 57.5891 21.5876 59.6212 23.7317C61.6788 25.8504 62.6949 28.4796 62.6949 31.6448C62.6949 34.81 61.6788 37.4392 59.6212 39.6089C57.5891 41.7275 55.0742 42.7741 52.0767 42.7741C48.5712 42.7741 46.0056 41.2936 45.2944 39.226V50.5085ZM46.7677 26.999C45.5483 28.2243 44.9133 29.8069 44.9133 31.6703C44.9133 33.5337 45.5483 35.0908 46.7677 36.3416C48.0378 37.5668 49.5873 38.205 51.4163 38.205C53.2452 38.205 54.6932 37.5668 55.8871 36.3416C57.1064 35.1163 57.6906 33.5337 57.6906 31.6703C57.6906 29.8069 57.1064 28.2498 55.8871 26.999C54.7186 25.7738 53.2198 25.1356 51.4163 25.1356C49.6127 25.1356 48.0378 25.7738 46.7677 26.999ZM64.4477 12.8066H69.5027V35.3461C69.5027 37.4137 70.1886 38.3071 72.0429 38.3071C72.6272 38.3071 73.1353 38.256 73.5671 38.1284V42.672C72.9829 42.8507 72.17 42.9272 71.1539 42.9272C66.6831 42.9272 64.4477 40.6299 64.4477 36.0097V12.8066ZM90.6882 24.0636V20.9749H95.7433V35.8821C95.7433 37.6944 96.1751 38.3836 97.2928 38.3836C97.5976 38.3836 97.9787 38.3326 98.3597 38.3071V42.4167C97.8009 42.6209 96.9626 42.7485 95.8703 42.7485C94.651 42.7485 93.6857 42.5443 92.9237 42.0593C91.9838 41.4212 91.3995 40.5788 91.1963 39.4812C89.7229 41.7275 87.2843 42.8251 83.9058 42.8251C80.9083 42.8251 78.3935 41.7786 76.3105 39.6089C74.2784 37.4392 73.2623 34.81 73.2623 31.6448C73.2623 28.4796 74.2784 25.8504 76.3105 23.7317C78.3681 21.562 80.9083 20.5155 83.9058 20.5155C87.3097 20.5155 89.8753 22.047 90.6882 24.0635V24.0636ZM89.1641 36.316C90.4342 35.0908 91.0693 33.5082 91.0693 31.6448C91.0693 29.7814 90.4342 28.2243 89.1641 26.9735C87.9448 25.7483 86.3698 25.1102 84.5663 25.1102C82.7627 25.1102 81.2894 25.7483 80.0447 26.9735C78.8762 28.1988 78.2665 29.7814 78.2665 31.6448C78.2665 33.5082 78.8508 35.0652 80.0447 36.316C81.264 37.5412 82.7373 38.1794 84.5663 38.1794C86.3952 38.1794 87.9448 37.5412 89.1641 36.316ZM100.112 46.603C100.748 46.8072 101.535 46.9348 102.475 46.9348C103.288 46.9348 103.872 46.7561 104.329 46.4754C104.786 46.1946 105.218 45.5309 105.549 44.663L106.107 43.1314L97.2166 20.9749H102.297L108.546 37.0818L114.414 20.9749H119.52L109.994 45.8117C109.359 47.4709 108.597 48.7472 107.708 49.6151C106.438 50.7893 104.761 51.4019 102.602 51.4019C101.662 51.4019 100.824 51.2743 100.112 51.07V46.603Z" fill="#49691F"/>
</svg>
