<svg width="120" height="60" viewBox="0 0 120 60" fill="none" xmlns="http://www.w3.org/2000/svg">
<path d="M30.7179 23.0672H21.5079C21.0429 23.0672 20.6749 22.6872 20.6749 22.2342V12.6342C20.6749 11.9202 20.1009 11.3462 19.3869 11.3462H16.0969C15.3829 11.3462 14.8089 11.9202 14.8089 12.6342V22.1702C14.8089 22.6682 14.4089 23.0682 13.9109 23.0682L10.8909 23.0782C10.7727 23.0793 10.6555 23.0568 10.546 23.012C10.4366 22.9673 10.3372 22.9012 10.2536 22.8176C10.17 22.734 10.1039 22.6346 10.0591 22.5251C10.0144 22.4157 9.99185 22.2984 9.99292 22.1802L10.0149 12.6332C10.0149 11.9192 9.44093 11.3452 8.72693 11.3452H5.43692C4.72292 11.3452 4.14893 11.9192 4.14893 12.6332V39.5092C4.14972 39.8132 4.27082 40.1045 4.48575 40.3194C4.70068 40.5343 4.99197 40.6554 5.29593 40.6562H30.7219C31.0259 40.6554 31.3172 40.5343 31.5321 40.3194C31.747 40.1045 31.8681 39.8132 31.8689 39.5092V24.2152C31.8699 24.0643 31.8408 23.9148 31.7835 23.7752C31.7262 23.6356 31.6417 23.5088 31.5351 23.4021C31.4284 23.2954 31.3015 23.2109 31.162 23.1536C31.0224 23.0963 30.8728 23.0673 30.7219 23.0682L30.7179 23.0672ZM26.3979 33.1552C26.3979 33.9782 25.7279 34.6492 24.9039 34.6492H22.3059C21.4829 34.6492 20.8119 33.9792 20.8119 33.1552V30.5572C20.8119 29.7342 21.4819 29.0632 22.3059 29.0632H24.9039C25.7269 29.0632 26.3979 29.7332 26.3979 30.5572V33.1552Z" fill="#FF6600"/>
<path d="M88.6962 38.3941C89.3812 38.6581 89.8392 38.3441 89.8392 37.6091V23.7391C90.0792 23.8961 90.0842 24.0911 90.1342 24.2541L94.4002 37.8301C94.5322 38.2501 94.6902 38.4701 95.1482 38.4141C95.5882 38.3571 96.0842 38.5901 96.2912 37.8741L98.1382 31.9001L100.802 23.4001C100.833 23.4076 100.865 23.4119 100.896 23.4131V24.1481L100.883 37.7241C100.883 38.2521 101.003 38.4281 101.561 38.4401C102.201 38.4461 102.258 38.1451 102.251 37.6361L102.245 23.2361C102.245 21.6161 102.245 21.6341 100.605 21.6091C100.09 21.6031 99.8322 21.7351 99.6752 22.2561L95.4282 36.0391C95.1782 35.9191 95.1832 35.7311 95.1452 35.5991L91.3692 23.3111C90.8492 21.5911 90.8692 21.5961 89.0822 21.6011C88.5862 21.6011 88.4662 21.7771 88.4722 22.2361L88.4852 37.7341L88.6962 38.3941ZM113.085 37.2001C114.455 35.6231 114.932 33.9021 115.115 32.0741C115.36 29.5861 115.303 27.1361 114.415 24.7621C113.24 21.6621 110.017 20.4081 107.26 22.0171C105.77 22.8841 105.06 24.3041 104.62 25.8931C104.12 27.6771 104.08 29.4931 104.187 31.3331C104.257 32.4391 104.413 33.5191 104.747 34.5681C105.614 37.2581 107.241 38.4321 110.055 38.4321L115.772 38.4521C116.412 38.4651 116.457 38.1881 116.462 37.6791C116.468 37.1511 116.292 36.9941 115.784 37.0451L113.094 37.2021L113.085 37.2001ZM42.1152 30.1581C42.5802 29.9321 42.9882 29.8001 43.3592 29.5551C44.7592 28.6501 45.4012 26.7851 44.9792 24.8431C44.6022 23.1091 43.3892 22.0471 41.4612 21.7461C40.0482 21.5261 38.6152 21.6891 37.2012 21.6141C36.6292 21.5841 36.4712 21.7461 36.4712 22.3141V37.6741C36.4712 38.2341 36.5972 38.4221 37.1712 38.4091C37.7112 38.3961 37.9252 38.3091 37.9112 37.7091L37.8862 31.3691C37.8802 30.9541 37.9862 30.7911 38.4202 30.8221C38.8972 30.8601 39.3802 30.8281 39.8652 30.8281C41.5492 30.8411 42.4152 31.4631 42.8352 33.1081L43.7712 37.4741C43.8972 38.1961 44.1482 38.4671 44.9082 38.4101C45.4112 38.3721 45.4082 38.2031 45.3232 37.8321L44.4502 33.5321C44.1672 32.0921 43.7842 30.7051 42.1002 30.1651L42.1152 30.1581ZM67.6082 28.4621V27.7961L67.6202 22.2861C67.6262 21.8021 67.5382 21.6011 66.9852 21.6081C66.4652 21.6141 66.3322 21.7651 66.3382 22.2741L66.3502 33.3681C66.3545 33.851 66.3838 34.3333 66.4382 34.8131C66.6832 37.0231 67.8642 38.3931 69.7362 38.6581C71.6332 38.9281 73.4302 37.8981 74.0902 35.9321C74.9262 33.4621 74.9072 30.9561 73.7382 28.5691C73.0852 27.2311 71.9602 26.4831 70.4082 26.5841C69.1452 26.6591 68.3282 27.4071 67.6062 28.4621H67.6082ZM57.5882 28.7451L57.6002 22.2991C57.6062 21.8291 57.5432 21.6091 56.9782 21.6091C56.4182 21.6091 56.3562 21.8091 56.3562 22.2871L56.3622 33.9871C56.3622 34.7031 56.4822 35.4071 56.7142 36.0791C57.1542 37.3491 57.9392 38.2711 59.3212 38.5671C61.4132 39.0131 63.3232 38.0271 64.0582 35.9721C64.9002 33.6221 64.8312 31.2351 63.9202 28.9121C63.5182 27.8941 62.7902 27.1281 61.7402 26.7381C60.1572 26.1481 58.7702 26.7821 57.5872 28.7361L57.5882 28.7451ZM53.2602 36.7921L53.2542 37.8021C53.1912 38.3021 53.3982 38.4051 53.8702 38.4181C54.3982 38.4301 54.4542 38.2111 54.4482 37.7711L54.4352 29.9181C54.4352 29.6231 54.4052 29.3211 54.3472 29.0321C54.0392 27.4551 53.0212 26.6201 51.3442 26.5621C49.0382 26.4801 47.6062 27.2521 47.1912 28.8301C47.1282 29.0751 46.8962 29.4271 47.2852 29.6031C47.7692 29.8231 48.5232 29.5651 48.6482 29.1761C48.8362 28.5981 49.1682 28.1711 49.7482 27.9321C51.5262 27.2021 53.1032 28.1821 53.2162 30.0871L53.2542 30.7721C53.2842 31.7961 53.2842 31.7821 52.2742 31.8591C50.8742 31.9661 49.4782 32.0991 48.2602 32.9021C46.9722 33.7561 46.5142 35.4461 47.1302 37.0121C47.6262 38.2751 48.9082 38.8651 50.4972 38.5951C51.6032 38.4191 52.4442 37.8351 53.2612 36.7921H53.2602ZM82.9602 23.4221C82.0932 23.7621 81.5402 24.2201 81.7352 25.1751C81.7652 25.3321 81.7412 25.4951 81.7412 25.6591C81.7412 26.8151 81.7412 26.8341 80.6112 26.8151C80.1842 26.8091 79.9512 26.8451 79.9512 27.3871C79.9512 27.9021 80.0952 28.1091 80.6112 28.0271C80.7432 28.0071 80.8872 28.0471 81.0262 28.0211C81.6662 27.9011 81.7662 28.2031 81.7612 28.7751L81.7742 36.0691C81.8042 37.7691 82.6662 38.5821 84.3442 38.6691C84.7082 38.6891 85.0742 38.6311 85.4442 38.6251C86.2482 38.6121 85.9472 38.0091 85.9542 37.6251C85.9672 37.0411 85.5462 37.3611 85.3192 37.4051C83.8742 37.6501 83.0132 37.0851 82.9952 35.7401L82.9702 28.4461C82.9702 28.1131 83.0902 28.0061 83.4102 28.0191L85.4772 28.0311C86.0372 28.0611 85.9542 27.7171 85.9802 27.3651C86.0052 26.9631 85.8982 26.7811 85.4522 26.8051C84.8552 26.8431 84.2582 26.7801 83.6522 26.8251C83.1322 26.8631 82.9172 26.7311 82.9552 26.1591V23.4191L82.9602 23.4221ZM77.7702 32.6071L77.7832 27.3741C77.7892 26.9221 77.6702 26.7771 77.2112 26.8021C76.8092 26.8221 76.5392 26.7961 76.5452 27.3621V37.8341C76.5392 38.3681 76.7652 38.4121 77.1982 38.4181C77.6442 38.4241 77.7822 38.3051 77.7762 37.8461L77.7702 32.6061V32.6071ZM78.0462 22.6751C78.0462 21.6251 78.0462 21.6751 77.0862 21.6131C76.4142 21.5691 76.2382 21.7831 76.2692 22.4361C76.3262 23.6991 76.2822 23.6801 77.5632 23.6611C77.9652 23.6551 78.0912 23.5231 78.0472 23.1511C78.0342 22.9941 78.0472 22.8311 78.0472 22.6741L78.0462 22.6751Z" fill="#FEFEFD"/>
<path d="M100.802 23.3982L98.138 31.8982L96.291 37.8722C96.084 38.5882 95.594 38.3562 95.148 38.4122C94.688 38.4692 94.532 38.2492 94.4 37.8282L90.134 24.2522C90.084 24.0892 90.071 23.8942 89.839 23.7372V37.6072C89.839 38.1972 89.544 38.5122 89.079 38.4872C88.579 38.4872 88.489 37.9672 88.489 37.7472L88.483 28.2422L88.477 22.2492C88.471 21.7842 88.584 21.6142 89.087 21.6142C90.884 21.6082 90.852 21.5942 91.374 23.3242L95.15 35.6122C95.194 35.7502 95.18 35.9322 95.433 36.0522L95.973 34.2872L99.679 22.2692C99.836 21.7492 100.094 21.6162 100.609 21.6222C102.249 21.6472 102.249 21.6282 102.249 23.2492L102.255 37.6492C102.255 38.1592 102.205 38.4492 101.565 38.4532C101.005 38.4472 100.88 38.2652 100.887 37.7372L100.9 23.4272C100.862 23.4152 100.837 23.4072 100.806 23.4022L100.802 23.3982ZM113.1 37.2002L115.79 37.0302C116.3 36.9802 116.48 37.1372 116.468 37.6652C116.462 38.1752 116.418 38.4502 115.778 38.4382L110.061 38.4182C107.247 38.4182 105.619 37.2432 104.753 34.5542C104.413 33.5042 104.257 32.4242 104.193 31.3192C104.08 29.4852 104.13 27.6632 104.626 25.8792C105.066 24.2962 105.782 22.8692 107.266 22.0032C110.024 20.3952 113.246 21.6392 114.421 24.7482C115.319 27.1232 115.376 29.5782 115.121 32.0602C114.939 33.9002 114.461 35.6222 113.091 37.2002H113.1ZM113.603 29.9252C113.673 28.4682 113.559 26.9412 113.056 25.4652C112.666 24.3402 112.051 23.4112 110.856 22.9952C109.04 22.3672 107.15 23.2902 106.44 25.2132C105.667 27.2992 105.642 29.4732 105.8 31.6532C105.875 32.7032 106.014 33.7452 106.416 34.7382C106.862 35.8502 107.61 36.6382 108.816 36.8882C110.858 37.2842 112.366 36.3922 113.063 34.4132C113.559 32.9872 113.647 31.5112 113.603 29.9282V29.9252Z" fill="#ACB7B1"/>
<path d="M42.12 30.1582C43.804 30.6982 44.18 32.0882 44.476 33.5382L45.349 37.8382C45.424 38.2082 45.437 38.3782 44.934 38.4162C44.18 38.4792 43.924 38.2092 43.797 37.4802L42.861 33.1142C42.441 31.4682 41.573 30.8402 39.891 30.8342C39.407 30.8342 38.924 30.8592 38.446 30.8282C38.013 30.7982 37.906 30.9542 37.912 31.3752L37.937 37.7152C37.95 38.3182 37.737 38.4122 37.197 38.4152C36.613 38.4272 36.481 38.2392 36.497 37.6802V22.3202C36.497 21.7422 36.654 21.5802 37.227 21.6202C38.647 21.6952 40.073 21.5322 41.487 21.7522C43.409 22.0542 44.622 23.1152 45.005 24.8492C45.425 26.7892 44.785 28.6562 43.385 29.5612C43.015 29.7872 42.6 29.9252 42.135 30.1512L42.12 30.1582ZM37.923 26.2132L37.929 28.9652C37.929 29.1722 37.835 29.4652 38.212 29.4612C39.475 29.4862 40.744 29.4992 41.912 28.9142C43.168 28.2862 43.852 26.8912 43.622 25.4592C43.402 24.1022 42.585 23.3672 41.046 23.1032C40.154 22.9532 39.262 23.0092 38.37 22.9772C37.993 22.9642 37.905 23.1092 37.91 23.4542L37.922 26.2122L37.923 26.2132ZM67.623 28.4632C68.345 27.4132 69.163 26.6602 70.431 26.5782C71.983 26.4782 73.107 27.2252 73.761 28.5632C74.929 30.9502 74.948 33.4572 74.113 35.9262C73.447 37.8922 71.657 38.9232 69.759 38.6522C67.887 38.3822 66.712 37.0192 66.461 34.8072C66.4033 34.3276 66.3739 33.8451 66.373 33.3622L66.36 22.2682C66.36 21.7582 66.486 21.6082 67.007 21.6022C67.554 21.5962 67.647 21.7972 67.642 22.2802L67.629 27.7902L67.623 28.4622V28.4632ZM73.195 32.7852C73.189 31.1392 72.881 29.7512 72.378 28.9352C71.505 27.5282 70.148 27.3652 69.004 28.5522C68.784 28.7782 68.564 29.0362 68.432 29.3182C67.414 31.5102 67.32 33.7662 68.225 35.9902C68.885 37.6102 70.655 37.9442 71.895 36.8072C72.31 36.4242 72.585 35.9532 72.775 35.4312C73.102 34.5332 73.177 33.5972 73.195 32.7862V32.7852ZM57.603 28.7452C58.79 26.7912 60.173 26.1632 61.756 26.7472C62.806 27.1372 63.534 27.9032 63.936 28.9212C64.846 31.2452 64.916 33.6332 64.074 35.9812C63.339 38.0352 61.429 39.0152 59.337 38.5762C57.961 38.2812 57.17 37.3562 56.73 36.0882C56.498 35.4162 56.372 34.7122 56.378 33.9962L56.372 22.2962C56.372 21.8192 56.435 21.6182 56.994 21.6182C57.553 21.6182 57.616 21.8382 57.616 22.3082L57.604 28.7542L57.603 28.7452ZM63.156 32.6452C63.15 31.0622 62.88 29.8052 62.356 28.9252C61.526 27.5552 60.156 27.3802 59.026 28.5102C58.153 29.3902 57.846 30.5082 57.713 31.6902C57.543 33.2352 57.55 34.7682 58.303 36.1882C58.95 37.4082 60.169 37.7902 61.331 37.1982C61.997 36.8582 62.418 36.2932 62.694 35.6212C63.084 34.6612 63.171 33.6552 63.164 32.6432L63.156 32.6452ZM53.274 36.7912C52.457 37.8282 51.622 38.4182 50.522 38.6012C48.932 38.8712 47.652 38.2812 47.155 37.0182C46.539 35.4542 46.998 33.7642 48.285 32.9082C49.497 32.1042 50.898 31.9662 52.299 31.8652C53.309 31.7902 53.309 31.8022 53.279 30.7782L53.241 30.0932C53.128 28.1892 51.541 27.2092 49.773 27.9382C49.201 28.1702 48.863 28.6042 48.673 29.1822C48.547 29.5822 47.793 29.8292 47.31 29.6092C46.92 29.4332 47.153 29.0812 47.216 28.8362C47.631 27.2592 49.063 26.4862 51.369 26.5682C53.046 26.6252 54.064 27.4602 54.372 29.0382C54.429 29.3282 54.46 29.6282 54.46 29.9242L54.472 37.7772C54.472 38.2172 54.422 38.4372 53.894 38.4242C53.424 38.4122 53.216 38.2982 53.278 37.8082C53.298 37.5382 53.272 37.2682 53.272 36.7902L53.274 36.7912ZM52.137 33.0282L50.774 33.1782C49.92 33.3412 49.141 33.6742 48.682 34.4662C48.286 35.1442 48.182 35.8542 48.662 36.5392C49.114 37.1922 49.787 37.2612 50.502 37.1292C51.2061 37.0052 51.8504 36.6547 52.3369 36.1308C52.8234 35.6069 53.1254 34.9385 53.197 34.2272C53.335 33.0152 53.335 33.0072 52.135 33.0272L52.137 33.0282ZM82.964 23.4232L82.951 26.1682C82.921 26.7402 83.127 26.8722 83.648 26.8342C84.238 26.7902 84.842 26.8542 85.448 26.8142C85.894 26.7892 86.001 26.9712 85.976 27.3742C85.951 27.7202 86.033 28.0712 85.473 28.0402C84.788 28.0022 84.097 28.0462 83.406 28.0282C83.086 28.0222 82.966 28.1222 82.966 28.4552L82.991 35.7492C83.016 37.0932 83.871 37.6492 85.315 37.4142C85.547 37.3762 85.962 37.0562 85.95 37.6342C85.944 38.0172 86.245 38.6202 85.44 38.6342L84.34 38.6782C82.663 38.5902 81.808 37.7682 81.77 36.0782L81.757 28.7842C81.763 28.2122 81.663 27.9042 81.022 28.0302C80.89 28.0552 80.746 28.0182 80.607 28.0362C80.092 28.1182 79.954 27.9102 79.947 27.3962C79.947 26.8562 80.179 26.8182 80.607 26.8242C81.737 26.8362 81.737 26.8242 81.737 25.6682C81.737 25.5052 81.762 25.3412 81.731 25.1842C81.549 24.2172 82.101 23.7642 82.969 23.4242C82.969 24.3792 82.102 23.7642 82.969 23.4242L82.964 23.4232ZM77.774 32.6082L77.787 37.8412C77.793 38.3012 77.649 38.4192 77.209 38.4132C76.776 38.4072 76.556 38.3632 76.556 37.8292V27.3572C76.55 26.7922 76.82 26.8172 77.222 26.7972C77.682 26.7722 77.8 26.9172 77.794 27.3692L77.774 32.6092V32.6082ZM78.05 22.8332C78.05 22.9902 77.968 23.8192 77.566 23.8262C76.284 23.8462 76.322 23.8562 76.272 22.6012C76.278 21.9352 76.448 21.8472 77.089 21.7782C78.044 21.8782 78.049 21.7912 78.049 22.8332H78.05Z" fill="#FE6804"/>
<path d="M77.5071 23.6702H76.8071C76.5121 23.6702 76.2731 23.4302 76.2731 23.1362V22.1502C76.2731 21.8552 76.5131 21.6162 76.8071 21.6162H77.5071C77.8021 21.6162 78.0411 21.8562 78.0411 22.1502V23.1362C78.0411 23.4312 77.8011 23.6702 77.5071 23.6702Z" fill="#FE6804"/>
</svg>
