<svg width="100" height="88" viewBox="0 0 100 88" fill="none" xmlns="http://www.w3.org/2000/svg">
<g clip-path="url(#clip0_531:1547)">
<path d="M100.063 44.1437C100.063 37.5737 91.7754 31.3474 79.0698 27.4862C82.0019 14.6293 80.6988 4.4003 74.9568 1.12542C73.6333 0.357235 72.0858 -0.00664044 70.3958 -0.00664044V4.50138C71.3325 4.50138 72.0858 4.68332 72.717 5.02698C75.4862 6.60378 76.6875 12.6077 75.7509 20.33C75.5269 22.2302 75.1604 24.2316 74.7125 26.2733C70.7216 25.303 66.3643 24.555 61.7829 24.0698C59.0341 20.33 56.1835 16.9338 53.3125 13.9622C59.9504 7.83691 66.181 4.48117 70.4162 4.48117V-0.0268555C64.8168 -0.0268555 57.4866 3.93535 50.075 10.8086C42.6634 3.97578 35.3333 0.0540062 29.7339 0.0540062V4.56203C33.9487 4.56203 40.1997 7.89756 46.8376 13.9824C43.9869 16.954 41.1363 20.33 38.4282 24.0698C33.8265 24.555 29.4692 25.303 25.4783 26.2935C25.01 24.272 24.6639 22.3111 24.4195 20.4311C23.4625 12.7088 24.6435 6.70485 27.3923 5.10784C28.0031 4.74396 28.7972 4.58224 29.7339 4.58224V0.0742212C28.0235 0.0742212 26.476 0.438097 25.1322 1.20628C19.4106 4.48116 18.1278 14.6899 21.0802 27.5064C8.41536 31.3878 0.168945 37.5939 0.168945 44.1437C0.168945 50.7136 8.45608 56.94 21.1617 60.8011C18.2296 73.6581 19.5328 83.887 25.2747 87.1619C26.5982 87.9301 28.1457 88.294 29.856 88.294C35.4555 88.294 42.7856 84.3317 50.1972 77.4585C57.6088 84.2913 64.9389 88.2131 70.5384 88.2131C72.2487 88.2131 73.7962 87.8492 75.1401 87.081C80.8617 83.8062 82.1444 73.5974 79.192 60.7809C91.8161 56.9198 100.063 50.6934 100.063 44.1437ZM73.5519 30.66C72.7985 33.2678 71.8619 35.9564 70.8031 38.6451C69.9682 37.0279 69.0927 35.4106 68.1357 33.7934C67.1991 32.1762 66.2014 30.5994 65.2037 29.063C68.095 29.4875 70.8845 30.0131 73.5519 30.66ZM64.2263 52.1894C62.6381 54.9184 61.0092 57.506 59.3192 59.9116C56.2853 60.1744 53.2107 60.3159 50.1158 60.3159C47.0412 60.3159 43.9666 60.1744 40.9531 59.9318C39.2631 57.5262 37.6138 54.9589 36.0256 52.25C34.4781 49.6018 33.0732 46.9132 31.7904 44.2043C33.0528 41.4954 34.4781 38.7866 36.0052 36.1384C37.5934 33.4093 39.2223 30.8218 40.9123 28.4161C43.9462 28.1533 47.0208 28.0118 50.1158 28.0118C53.1903 28.0118 56.2649 28.1533 59.2784 28.3959C60.9684 30.8015 62.6177 33.3689 64.2059 36.0777C65.7534 38.7259 67.1583 41.4146 68.4411 44.1234C67.1583 46.8323 65.7534 49.5412 64.2263 52.1894ZM70.8031 49.5614C71.9026 52.2702 72.8392 54.9791 73.613 57.6071C70.9456 58.254 68.1357 58.7998 65.224 59.2243C66.2217 57.6677 67.2194 56.0707 68.1561 54.4333C69.0927 52.816 69.9682 51.1786 70.8031 49.5614ZM50.1565 71.1311C48.2629 69.1905 46.3692 67.0274 44.496 64.6622C46.3285 64.7431 48.2018 64.8037 50.0954 64.8037C52.0094 64.8037 53.903 64.7633 55.7559 64.6622C53.9234 67.0274 52.0297 69.1905 50.1565 71.1311ZM35.0075 59.2243C32.1162 58.7998 29.3266 58.2742 26.6593 57.6273C27.4127 55.0195 28.3493 52.3309 29.4081 49.6422C30.2429 51.2595 31.1185 52.8767 32.0754 54.4939C33.0324 56.1111 34.0098 57.6879 35.0075 59.2243ZM50.0547 17.1562C51.9483 19.0969 53.8419 21.2599 55.7152 23.6251C53.8826 23.5442 52.0094 23.4836 50.1158 23.4836C48.2018 23.4836 46.3082 23.524 44.4553 23.6251C46.2878 21.2599 48.1814 19.0969 50.0547 17.1562ZM34.9872 29.063C33.9894 30.6196 32.9917 32.2166 32.0551 33.8541C31.1185 35.4713 30.2429 37.0885 29.4081 38.7057C28.3086 35.9969 27.3719 33.288 26.5982 30.66C29.2656 30.0334 32.0755 29.4875 34.9872 29.063ZM16.56 54.3726C9.35199 51.3201 4.6892 47.3175 4.6892 44.1437C4.6892 40.9699 9.35199 36.947 16.56 33.9147C18.3111 33.1667 20.225 32.4996 22.2001 31.8729C23.3607 35.8352 24.8878 39.9591 26.7815 44.1841C24.9082 48.3889 23.4014 52.4926 22.2612 56.4346C20.2454 55.8079 18.3314 55.1206 16.56 54.3726ZM27.5145 83.2603C24.7453 81.6835 23.544 75.6796 24.4806 67.9573C24.7046 66.0571 25.0711 64.0558 25.519 62.014C29.5099 62.9844 33.8673 63.7323 38.4486 64.2175C41.1974 67.9573 44.048 71.3535 46.919 74.3252C40.2811 80.4504 34.0505 83.8062 29.8153 83.8062C28.8991 83.7859 28.1253 83.604 27.5145 83.2603ZM75.812 67.8562C76.769 75.5785 75.588 81.5825 72.8392 83.1795C72.2284 83.5434 71.4343 83.7051 70.4976 83.7051C66.2828 83.7051 60.0318 80.3695 53.394 74.2847C56.2446 71.3131 59.0952 67.9371 61.8033 64.1973C66.405 63.7121 70.7623 62.9641 74.7532 61.9736C75.2215 64.0153 75.588 65.9762 75.812 67.8562ZM83.6512 54.3726C81.9001 55.1206 79.9861 55.7877 78.011 56.4144C76.8504 52.4522 75.3233 48.3282 73.4297 44.1032C75.303 39.8984 76.8097 35.7947 77.95 31.8527C79.9658 32.4794 81.8797 33.1667 83.6715 33.9147C90.8795 36.9672 95.5423 40.9699 95.5423 44.1437C95.5219 47.3175 90.8592 51.3403 83.6512 54.3726Z" fill="#61DAFB"/>
<path d="M50.0954 53.3821C55.2345 53.3821 59.4006 49.2459 59.4006 44.1437C59.4006 39.0414 55.2345 34.9053 50.0954 34.9053C44.9562 34.9053 40.7902 39.0414 40.7902 44.1437C40.7902 49.2459 44.9562 53.3821 50.0954 53.3821Z" fill="#61DAFB"/>
</g>
<defs>
<clipPath id="clip0_531:1547">
<rect width="100" height="88" fill="white"/>
</clipPath>
</defs>
</svg>
