<svg width="120" height="31" viewBox="0 0 120 31" fill="none" xmlns="http://www.w3.org/2000/svg">
<g clip-path="url(#clip0_531:1571)">
<path d="M39.527 21.3086C39.159 21.1088 38.876 20.6812 38.876 20.1113C38.876 19.343 39.4704 18.72 40.2657 18.72C40.5475 18.72 40.8035 18.8034 41.0004 18.9174C42.447 19.8865 43.9488 20.371 45.3067 20.371C46.7796 20.371 47.6293 19.7437 47.6293 18.7457V18.6892C47.6293 17.5215 46.0439 17.1234 44.2861 16.5828C42.0778 15.9557 39.6132 15.0454 39.6132 12.1685V12.1108C39.6132 9.26236 41.9643 7.52576 44.939 7.52576C46.5258 7.52576 48.1964 7.98207 49.6412 8.74986C50.1242 9.007 50.4623 9.46285 50.4623 10.0594C50.4623 10.8577 49.8401 11.457 49.047 11.457C48.7622 11.457 48.5924 11.3999 48.3682 11.2853C47.1481 10.6579 45.9021 10.2586 44.8543 10.2586C43.5219 10.2586 42.7569 10.8867 42.7569 11.7416V11.797C42.7569 12.9081 44.3715 13.3626 46.1285 13.9333C48.3098 14.6173 50.7744 15.6134 50.7744 18.3188V18.3765C50.7744 21.5375 48.3369 23.1021 45.2215 23.1021C43.3248 23.1021 41.2566 22.506 39.527 21.3086Z" fill="#5FB832"/>
<path d="M64.0537 15.3287V15.271C64.0537 12.3675 62.0986 10.4591 59.7768 10.4591C57.454 10.4591 55.4144 12.3957 55.4144 15.271V15.3287C55.4144 18.2051 57.454 20.1435 59.7768 20.1435C62.1279 20.1435 64.0537 18.291 64.0537 15.3287ZM52.0708 9.26168C52.0708 8.29517 52.8065 7.52508 53.7716 7.52508C54.7341 7.52508 55.499 8.29517 55.499 9.26168V10.2884C56.604 8.7228 58.1616 7.46923 60.5984 7.46923C64.1106 7.46923 67.5387 10.2589 67.5387 15.271V15.3287C67.5387 20.3132 64.1391 23.1319 60.5984 23.1319C58.1057 23.1319 56.5474 21.8775 55.499 20.485V25.8075C55.499 26.7794 54.7341 27.52 53.7716 27.52C52.8373 27.52 52.0708 26.7794 52.0708 25.8075V9.26168Z" fill="#5FB832"/>
<path d="M68.8369 9.26402C68.8369 8.29757 69.5713 7.52742 70.5349 7.52742C71.5004 7.52742 72.2642 8.29757 72.2642 9.26402V10.0926C72.4352 8.80206 74.5294 7.52742 76.0316 7.52742C77.1074 7.52742 77.7315 8.23883 77.7315 9.23507C77.7315 10.1457 77.1361 10.7448 76.371 10.8868C73.9347 11.3142 72.2642 13.4574 72.2642 16.4224V21.3907C72.2642 22.3316 71.5004 23.1001 70.5349 23.1001C69.6007 23.1001 68.8369 22.3592 68.8369 21.3907V9.26402Z" fill="#5FB832"/>
<path d="M79.0283 9.27097C79.0283 8.30295 79.7673 7.5328 80.7289 7.5328C81.6918 7.5328 82.4569 8.30295 82.4569 9.27097V21.3936C82.4569 22.3605 81.6918 23.1001 80.7289 23.1001C79.7934 23.1001 79.0283 22.3605 79.0283 21.3936V9.27097Z" fill="#5FB832"/>
<path d="M84.1846 9.27756C84.1846 8.30954 84.9216 7.54123 85.8832 7.54123C86.8474 7.54123 87.6118 8.30954 87.6118 9.27756V9.98464C88.5767 8.58872 89.9626 7.5325 92.2853 7.5325C95.6565 7.5325 97.6123 9.81184 97.6123 13.2858V21.3914C97.6123 22.3592 96.8746 23.1006 95.9117 23.1006C94.9488 23.1006 94.1844 22.3592 94.1844 21.3914V14.34C94.1844 12.0058 93.023 10.6663 90.983 10.6663C89.0004 10.6663 87.6118 12.0617 87.6118 14.3987V21.3914C87.6118 22.3592 86.8474 23.1006 85.8832 23.1006C84.949 23.1006 84.1846 22.3592 84.1846 21.3914V9.27756Z" fill="#5FB832"/>
<path d="M106.673 20.1124C104.319 20.1124 102.395 18.2607 102.395 15.2985V15.2425C102.395 12.3382 104.348 10.4299 106.673 10.4299C108.996 10.4299 111.035 12.367 111.035 15.2425V15.2985C111.035 18.1756 108.996 20.1124 106.673 20.1124ZM112.675 7.49581C111.714 7.49581 110.949 8.26642 110.949 9.2332V10.2581C109.843 8.69248 108.286 7.43964 105.852 7.43964C102.337 7.43964 98.9102 10.2294 98.9102 15.2425V15.2985C98.9102 20.2829 102.309 23.1008 105.852 23.1008C108.33 23.1008 109.884 21.8613 110.933 20.4756C110.761 23.1836 109.112 24.6133 106.22 24.6133C104.493 24.6133 102.991 24.1847 101.629 23.4144C101.459 23.331 101.264 23.2746 101.008 23.2746C100.215 23.2746 99.5617 23.9304 99.5617 24.6969C99.5617 25.3524 99.9305 25.8364 100.527 26.0643C102.337 26.9475 104.206 27.4033 106.303 27.4033C108.996 27.4033 111.093 26.7488 112.453 25.3811C113.696 24.127 114.377 22.2497 114.377 19.7138V9.2332C114.377 8.26642 113.64 7.49581 112.675 7.49581Z" fill="#5FB832"/>
<path d="M82.4706 3.38322C82.4706 4.34146 81.6964 5.12061 80.742 5.12061C79.7869 5.12061 79.0146 4.34146 79.0146 3.38322C79.0146 2.42235 79.7869 1.64662 80.742 1.64662C81.6964 1.64662 82.4706 2.42235 82.4706 3.38322Z" fill="#5FB832"/>
<path d="M28.0266 22.0709C24.2265 27.1609 16.1089 25.4428 10.9045 25.6899C10.9045 25.6899 9.9832 25.7415 9.05523 25.895C9.05523 25.895 9.40611 25.7445 9.85362 25.5894C13.5089 24.3187 15.2363 24.0633 17.4574 22.9164C21.6306 20.7673 25.7838 16.0861 26.6289 11.2232C25.0405 15.9002 20.2094 19.9256 15.8105 21.5602C12.7997 22.6772 7.35485 23.7642 7.35406 23.7646C7.35661 23.7685 7.13707 23.65 7.134 23.6475C3.43109 21.8363 3.32425 13.7737 10.0495 11.1748C12.9981 10.0345 15.8185 10.6608 19.0061 9.89802C22.4058 9.08541 26.3433 6.52353 27.9437 3.17417C29.7379 8.52422 31.8932 16.8944 28.0266 22.0709ZM28.0926 1.51633C27.6402 2.59684 27.0881 3.57051 26.4516 4.4414C23.6502 1.55091 19.7399 -0.25 15.4179 -0.25C6.91596 -0.25 0 6.70355 0 15.2491C0 19.729 1.90208 23.7693 4.9346 26.6013L5.27223 26.902C4.70841 26.4398 4.62171 25.6074 5.07868 25.0401C5.53845 24.4725 6.36722 24.3845 6.9313 24.8442C7.4969 25.3049 7.58307 26.1393 7.12512 26.7077C6.66887 27.2763 5.83859 27.3622 5.27376 26.9033L5.50352 27.1079C8.18594 29.3785 11.6438 30.75 15.4179 30.75C23.5443 30.75 30.2173 24.3922 30.7885 16.3676C31.2116 12.4386 30.0572 7.44955 28.0926 1.51633Z" fill="#5FB832"/>
<path d="M118.391 8.58125H117.852V9.29805H118.391C118.565 9.29805 118.756 9.15655 118.756 8.94812C118.756 8.72275 118.565 8.58125 118.391 8.58125ZM118.723 10.3558L118.2 9.55597H117.852V10.3558H117.571V8.33108H118.391C118.731 8.33108 119.046 8.57331 119.046 8.94812C119.046 9.39774 118.647 9.54796 118.532 9.54796L119.071 10.3558H118.723ZM118.242 7.83959C117.413 7.83959 116.749 8.50611 116.749 9.33985C116.749 10.1643 117.413 10.8395 118.242 10.8395C119.062 10.8395 119.733 10.1643 119.733 9.33985C119.733 8.50611 119.062 7.83959 118.242 7.83959ZM118.242 11.1064C117.272 11.1064 116.484 10.3145 116.484 9.33985C116.484 8.35589 117.272 7.57274 118.242 7.57274C119.22 7.57274 119.999 8.35589 119.999 9.33985C119.999 10.3145 119.22 11.1064 118.242 11.1064Z" fill="#5FB832"/>
</g>
<defs>
<clipPath id="clip0_531:1571">
<rect width="120" height="30.75" fill="white"/>
</clipPath>
</defs>
</svg>
