<svg width="120" height="38" viewBox="0 0 120 38" fill="none" xmlns="http://www.w3.org/2000/svg">
<g clip-path="url(#clip0_531:1583)">
<path d="M37.2748 10.5252C37.2726 10.143 37.2685 9.76107 37.2581 9.37845C37.2363 8.54616 37.188 7.70633 37.0429 6.88293C36.8956 6.04674 36.6549 5.26923 36.2756 4.50963C35.9032 3.76365 35.4164 3.08102 34.8357 2.48905C34.2551 1.89709 33.5854 1.4009 32.8533 1.0211C32.1088 0.634836 31.3459 0.389526 30.5264 0.239423C29.7182 0.0910473 28.8943 0.0421646 28.0772 0.0196427C27.7021 0.00927748 27.3273 0.00492666 26.9523 0.00255931C26.5071 0 26.0617 0 25.6167 0H15.7488H11.6608C11.2153 0 10.7704 0 10.3254 0.00262329C9.95023 0.00499065 9.57501 0.00934147 9.20042 0.0197067C8.99618 0.0253371 8.7915 0.0326312 8.5867 0.0426764C7.97234 0.0728762 7.35704 0.128221 6.75122 0.239487C6.13655 0.352097 5.55371 0.518196 4.98668 0.757171C4.79769 0.836765 4.61039 0.924549 4.42423 1.0211C3.87515 1.30595 3.36109 1.65626 2.89355 2.06331C2.7377 2.19902 2.587 2.341 2.44188 2.48899C1.86104 3.08096 1.37423 3.76359 1.00184 4.50956C0.622477 5.26916 0.382082 6.04668 0.234707 6.88287C0.0897169 7.70626 0.0415124 8.5461 0.0195442 9.37839C0.00925056 9.761 0.00491969 10.143 0.0024718 10.5251C-0.000352676 10.979 2.39209e-05 11.433 2.39209e-05 11.8868V18.0815V26.1129C2.39209e-05 26.5671 -0.000415443 27.0206 0.0024718 27.4749C0.00491969 27.857 0.00925056 28.239 0.0195442 28.621C0.0415124 29.4537 0.0896541 30.2937 0.234707 31.1167C0.382082 31.9527 0.622477 32.7309 1.00184 33.4903C1.37423 34.2365 1.86104 34.9189 2.44188 35.5106C3.02228 36.1029 3.69212 36.599 4.42429 36.979C5.16889 37.3654 5.93168 37.6103 6.75141 37.7605C7.55909 37.9086 8.38358 37.9579 9.20049 37.9802C9.57508 37.9903 9.95029 37.9949 10.3254 37.9971C10.7705 38.0003 11.2154 37.9999 11.6609 37.9999H25.6167C26.0617 37.9999 26.5071 38.0003 26.9522 37.9971C27.3273 37.9949 27.702 37.9903 28.0772 37.9802C28.8943 37.9579 29.7181 37.9086 30.5263 37.7605C31.3459 37.6103 32.1087 37.3653 32.8533 36.979C33.5854 36.599 34.255 36.1029 34.8356 35.5106C35.4163 34.9189 35.9032 34.2365 36.2755 33.4903C36.6549 32.7309 36.8956 31.9527 37.0428 31.1167C37.188 30.2937 37.2362 29.4537 37.2581 28.621C37.2684 28.239 37.2725 27.8571 37.2748 27.4749C37.2776 27.0206 37.2774 26.5671 37.2774 26.1129V11.8868C37.2775 11.433 37.2776 10.979 37.2748 10.5252Z" fill="#F05138"/>
<path d="M29.5382 23.4562C29.5373 23.455 29.5365 23.4542 29.5355 23.4531C29.5768 23.3101 29.6193 23.1679 29.6554 23.0212C31.2026 16.7376 27.4265 9.30855 21.0366 5.39697C23.8368 9.26658 25.0749 13.9536 23.9749 18.0524C23.8768 18.418 23.7589 18.7689 23.6285 19.1099C23.487 19.0152 23.3088 18.9076 23.0694 18.7731C23.0694 18.7731 16.7131 14.7724 9.82393 7.69625C9.64316 7.51051 13.4975 13.312 17.8718 18.023C15.8109 16.844 10.0675 12.5842 6.4316 9.19191C6.87831 9.95132 7.40963 10.6826 7.99367 11.3866C11.03 15.3119 14.9897 20.155 19.7337 23.874C16.4005 25.9533 11.6907 26.115 7.0014 23.8762C5.84154 23.3221 4.75117 22.6535 3.74182 21.8939C5.7268 25.1305 8.78396 27.923 12.5048 29.5532C16.9421 31.497 21.3546 31.3652 24.641 29.585L24.6385 29.5889C24.6535 29.5792 24.6725 29.5687 24.6881 29.5589C24.8231 29.4849 24.957 29.4096 25.088 29.3301C26.667 28.4946 29.7859 27.6469 31.4599 30.9673C31.8699 31.7798 32.7411 27.4735 29.5382 23.4562Z" fill="white"/>
<path d="M51.4247 24.6603C51.7159 27.2965 54.1825 29.025 57.608 29.025C60.8627 29.025 63.2092 27.2965 63.2092 24.9049C63.2092 22.8445 61.7877 21.5868 58.5158 20.7491L55.3471 19.9285C50.7909 18.776 48.7353 16.6805 48.7353 13.2236C48.7353 8.96334 52.3837 6.01221 57.574 6.01221C62.6095 6.01221 66.1895 8.98049 66.3095 13.2587H62.9696C62.7124 10.6396 60.6227 9.0327 57.4884 9.0327C54.3877 9.0327 52.2296 10.6567 52.2296 13.0312C52.2296 14.8819 53.5659 15.9823 56.8546 16.8379L59.4924 17.5362C64.5967 18.8111 66.6863 20.8364 66.6863 24.4858C66.6863 29.1303 63.072 32.0464 57.3167 32.0464C51.9727 32.0464 48.3243 29.1474 48.0503 24.6604H51.4247V24.6603Z" fill="black"/>
<path d="M87.9032 31.6266H84.5457L80.6233 17.6931H80.5549L76.6496 31.6266H73.2925L68.3251 13.3799H71.5794L75.0393 28.0295H75.1081L79.0133 13.3799H82.1648L86.1045 28.0295H86.1733L89.6333 13.3799H92.8532L87.9032 31.6266Z" fill="black"/>
<path d="M95.0212 8.47364C95.0212 7.3741 95.9122 6.4834 96.9913 6.4834C98.0876 6.4834 98.9781 7.3741 98.9781 8.47364C98.9781 9.57395 98.0876 10.4819 96.9913 10.4819C95.9122 10.4819 95.0212 9.57402 95.0212 8.47364ZM95.3641 13.38H98.6356V31.6268H95.3641V13.38Z" fill="black"/>
<path d="M120 16.0693V13.38H116.54V9.01529H113.285V13.38H110.63H107.032V11.7739C107.048 10.1499 107.665 9.4688 109.139 9.4688C109.618 9.4688 110.098 9.52177 110.492 9.59113V6.972C109.909 6.88473 109.378 6.83252 108.762 6.83252C105.267 6.83252 103.794 8.31705 103.794 11.7217V13.38H101.294V16.0693H103.794V31.6268H107.049V16.0693H110.63H113.285V26.8428C113.285 30.3698 114.604 31.7312 118.03 31.7312C118.767 31.7312 119.606 31.679 119.983 31.5917V28.8681C119.76 28.9032 119.109 28.9554 118.749 28.9554C117.225 28.9554 116.54 28.2221 116.54 26.581V16.0693H120Z" fill="black"/>
</g>
<defs>
<clipPath id="clip0_531:1583">
<rect width="120" height="38" fill="white"/>
</clipPath>
</defs>
</svg>
