<svg width="80" height="100" viewBox="0 0 80 100" fill="none" xmlns="http://www.w3.org/2000/svg">
<path d="M21.099 99.639C20.9297 99.639 20.747 99.5956 20.6202 99.4213L15.1878 92.1638V99.5665H13.949V90.4509C13.949 90.0882 14.2446 89.7979 14.5827 89.7979C14.7794 89.7979 14.9485 89.8558 15.0748 90.0301L20.4934 97.2732V89.8994H21.7322V99.0004C21.7322 99.3779 21.4366 99.639 21.0989 99.639" fill="#1A1918"/>
<path d="M31.3457 99.7265C30.1073 99.7265 28.8122 99.4651 27.6018 99.0009L27.8975 97.9556C29.0094 98.3185 30.2197 98.5798 31.3457 98.5798C32.908 98.5798 33.7243 98.0137 33.7243 97.2155C33.7243 96.4896 33.0907 96.1268 30.9092 95.0816C28.7277 94.0365 27.8695 93.3689 27.8695 92.0624C27.8695 90.4225 29.1078 89.7544 31.444 89.7544C32.4153 89.7544 33.907 89.9578 34.7659 90.2191L34.5687 91.2931C33.6255 91.061 32.4435 90.9014 31.4723 90.9014C29.8259 90.9014 29.1502 91.2205 29.1502 92.019C29.1502 92.8027 29.6426 93.1366 31.9508 94.2253C34.3858 95.372 35.005 95.9527 35.005 97.1428C35.005 98.8703 33.4003 99.7265 31.3456 99.7265" fill="#1A1918"/>
<path d="M40.8743 89.8994H42.1553V99.5664H40.8743V89.8994Z" fill="#1A1918"/>
<path d="M53.0493 95.1829H49.8681V98.4636H53.0493C54.1329 98.4636 54.7944 97.7667 54.7944 96.794C54.7944 95.8795 54.1048 95.1829 53.0493 95.1829V95.1829ZM52.4297 91.0024H49.8681V94.0943H52.4297C53.4573 94.0943 54.2032 93.4264 54.2032 92.4976C54.2032 91.5831 53.5556 91.0024 52.4297 91.0024ZM53.0633 99.5664H49.2352C48.869 99.5664 48.5875 99.276 48.5875 98.9133V90.5526C48.5875 90.204 48.869 89.8994 49.2352 89.8994H52.4018C54.344 89.8994 55.498 90.8718 55.498 92.396C55.498 93.2232 55.0195 93.9926 54.2874 94.4426C55.3716 94.7765 56.103 95.6908 56.103 96.794C56.103 98.3326 54.8507 99.5664 53.0633 99.5664" fill="#1A1918"/>
<path d="M62.2537 99.5664C61.9024 99.5664 61.6207 99.2616 61.6207 98.9132V89.8994H62.9012V98.3908H67.9962V99.5664H62.2537L62.2537 99.5664Z" fill="#1A1918"/>
<path d="M76.7268 99.7265C74.1089 99.7265 72.5326 98.7396 72.5326 96.751C72.5326 95.8075 73.0535 94.9075 74.0669 94.4866C73.2505 93.964 72.8284 93.2237 72.8284 92.4109C72.8284 90.6111 74.194 89.7544 76.7552 89.7544C77.6139 89.7544 78.8241 89.8562 79.8376 90.0886L79.6967 91.1625C78.6273 90.9883 77.6276 90.887 76.6566 90.887C74.9957 90.887 74.1089 91.3512 74.1089 92.469C74.1089 93.3545 74.9254 94.0512 76.0094 94.0512H78.2047C78.5144 94.0512 78.7535 94.2979 78.7535 94.6027C78.7535 94.9219 78.5144 95.1687 78.2047 95.1687H75.8407C74.6017 95.1687 73.8139 95.7927 73.8139 96.751C73.8139 98.1589 75.0947 98.5798 76.699 98.5798C77.5718 98.5798 78.7535 98.464 79.7105 98.2316L79.8939 99.2911C78.9789 99.5525 77.7824 99.7265 76.7268 99.7265" fill="#1A1918"/>
<path d="M4.4192 91.7126L6.66223 97.4219L3.27455 94.6697L4.41919 91.7126L4.4192 91.7126ZM8.40401 98.7372L4.95404 90.1739C4.85559 89.9271 4.65844 89.7964 4.41917 89.7964C4.1799 89.7964 3.96879 89.9271 3.87034 90.1739L0.0834961 99.5667H1.37867L2.87791 95.6942L7.3511 99.4215C7.53101 99.5713 7.66078 99.6392 7.82989 99.6392C8.16749 99.6392 8.46309 99.378 8.46309 99.0007C8.46309 98.9394 8.44185 98.842 8.40397 98.7372H8.40401Z" fill="#1A1918"/>
<path d="M79.9629 40.5928C79.9629 62.9596 62.116 81.0897 40.0985 81.0897C18.0828 81.0897 0.234131 62.9596 0.234131 40.5928C0.234131 18.2277 18.0829 0.0957031 40.0985 0.0957031C62.116 0.0957031 79.9629 18.2278 79.9629 40.5928Z" fill="#1A1918"/>
<path d="M40.7688 24.8347L51.0849 50.7002L35.5025 38.231L40.7688 24.8347V24.8347ZM59.0952 56.6585L43.2269 17.8642C42.7739 16.7454 41.8681 16.1533 40.7688 16.1533C39.6674 16.1533 38.6957 16.7453 38.2427 17.8642L20.8262 60.4166H26.7841L33.6785 42.872L54.2532 59.7577C55.0807 60.4374 55.6777 60.7449 56.4539 60.7449C58.0082 60.7449 59.3669 59.5611 59.3669 57.8525C59.3669 57.5744 59.2702 57.133 59.0952 56.6584L59.0952 56.6585Z" fill="white"/>
</svg>
