<svg width="100" height="100" viewBox="0 0 100 100" fill="none" xmlns="http://www.w3.org/2000/svg">
<path d="M50.0001 62.5705V52.9095C60.2261 52.9095 68.1639 42.7682 64.2374 32.0055C62.7967 28.0507 59.6046 24.8586 55.6216 23.418C44.8589 19.5197 34.7176 27.4293 34.7176 37.6552H25.0848C25.0848 21.3558 40.8476 8.64395 57.938 13.9829C65.3956 16.3276 71.356 22.2598 73.6724 29.7174C79.0114 46.8078 66.2995 62.5705 50.0001 62.5705Z" fill="#0080FF"/>
<path fill-rule="evenodd" clip-rule="evenodd" d="M50.0283 52.9658H40.3955V43.333H50.0283V52.9658Z" fill="#0080FF"/>
<path fill-rule="evenodd" clip-rule="evenodd" d="M40.3955 60.3387H33.0226V52.9658H40.3955V60.3387Z" fill="#0080FF"/>
<path fill-rule="evenodd" clip-rule="evenodd" d="M33.0226 52.9662H26.8362V46.7798H33.0226V52.9662Z" fill="#0080FF"/>
<path d="M8.81364 72.3444C7.57071 71.4687 5.98879 71.0449 4.18088 71.0449H0.226074V83.6155H4.20912C6.01703 83.6155 7.59895 83.1636 8.84189 82.2314C9.51986 81.7511 10.0566 81.0732 10.4521 80.2257C10.8193 79.3782 11.017 78.3613 11.017 77.2596C11.017 76.1579 10.8193 75.1692 10.4521 74.3218C10.0566 73.4743 9.51986 72.7963 8.81364 72.3444ZM2.54246 73.1636H3.7854C5.16958 73.1636 6.29952 73.446 7.17523 73.9828C8.13568 74.576 8.6159 75.6777 8.6159 77.2596C8.6159 78.898 8.13568 80.0562 7.17523 80.6777C6.35602 81.2144 5.22607 81.4969 3.81364 81.4969H2.54246V73.1636Z" fill="#0080FF"/>
<path d="M13.7571 70.8755C13.3616 70.8755 13.0509 71.0167 12.7684 71.271C12.5142 71.5252 12.3729 71.8359 12.3729 72.2314C12.3729 72.6269 12.5142 72.9376 12.7684 73.2201C13.0226 73.4744 13.3616 73.6156 13.7571 73.6156C14.1243 73.6156 14.4633 73.4744 14.7458 73.2201C15 72.9659 15.1413 72.6269 15.1413 72.2314C15.1413 71.8359 15 71.5252 14.7458 71.271C14.4633 71.0167 14.1243 70.8755 13.7571 70.8755Z" fill="#0080FF"/>
<path d="M14.8588 74.7456H12.6272V83.6157H14.8588V74.7456Z" fill="#0080FF"/>
<path d="M22.9662 75.48C22.2882 74.8868 21.5537 74.5195 20.7345 74.5195C19.4916 74.5195 18.4746 74.9433 17.6837 75.7907C16.8927 76.6099 16.469 77.6834 16.469 78.9828C16.469 80.2258 16.8645 81.2992 17.6554 82.1467C18.4464 82.9659 19.4916 83.3896 20.7063 83.3896C21.5537 83.3896 22.3165 83.1636 22.9097 82.6834V82.8811C22.9097 83.6156 22.7119 84.1806 22.3165 84.576C21.921 84.9715 21.3843 85.1693 20.7063 85.1693C19.6893 85.1693 19.0396 84.7738 18.2487 83.7003L16.7232 85.1693L16.7515 85.2258C17.0905 85.6777 17.5707 86.1297 18.2487 86.5534C18.8984 86.9772 19.7458 87.2032 20.7345 87.2032C22.0622 87.2032 23.1357 86.8077 23.9266 85.9885C24.7176 85.1693 25.1131 84.0958 25.1131 82.7681V74.7173H22.9097V75.48H22.9662ZM22.373 80.7342C21.9775 81.1862 21.469 81.3839 20.8475 81.3839C20.1978 81.3839 19.7176 81.158 19.3221 80.7342C18.9266 80.2822 18.7571 79.7173 18.7571 79.0111C18.7571 78.2766 18.9549 77.7116 19.3221 77.2596C19.6893 76.8077 20.2261 76.6099 20.8475 76.6099C21.4972 76.6099 21.9775 76.8359 22.373 77.2596C22.7684 77.7116 22.9662 78.3049 22.9662 79.0111C22.9662 79.7173 22.7684 80.2822 22.373 80.7342Z" fill="#0080FF"/>
<path d="M29.2939 74.7456H27.0623V83.6157H29.2939V74.7456Z" fill="#0080FF"/>
<path d="M28.192 70.8755C27.7966 70.8755 27.4858 71.0167 27.2033 71.271C26.9491 71.5252 26.8079 71.8359 26.8079 72.2314C26.8079 72.6269 26.9491 72.9376 27.2033 73.2201C27.4576 73.4744 27.7966 73.6156 28.192 73.6156C28.5593 73.6156 28.8983 73.4744 29.1807 73.2201C29.435 72.9659 29.5762 72.6269 29.5762 72.2314C29.5762 71.8359 29.435 71.5252 29.1807 71.271C28.8983 71.0167 28.5875 70.8755 28.192 70.8755Z" fill="#0080FF"/>
<path d="M34.1809 72.3442H31.9775V74.7454H30.7063V76.7793H31.9775V80.4516C31.9775 81.6098 32.2035 82.429 32.6555 82.9092C33.1074 83.3894 33.9266 83.6154 35.0566 83.6154C35.4238 83.6154 35.791 83.6154 36.13 83.5872H36.243V81.5533L35.4803 81.5815C34.9436 81.5815 34.6046 81.4968 34.4351 81.299C34.2656 81.1013 34.1809 80.7058 34.1809 80.1126V76.751H36.2713V74.7171H34.1809V72.3442Z" fill="#0080FF"/>
<path d="M48.9548 71.0166H46.7231V83.6155H48.9548V71.0166Z" fill="#0080FF"/>
<path d="M71.4972 80.4519C71.1017 80.9039 70.678 81.2993 70.3672 81.4971C70.0565 81.6948 69.661 81.8078 69.209 81.8078C68.5593 81.8078 68.0226 81.5818 67.5989 81.0733C67.1751 80.5931 66.9492 79.9434 66.9492 79.2089C66.9492 78.4462 67.1751 77.8248 67.5989 77.3445C68.0226 76.8643 68.5593 76.6101 69.209 76.6101C69.9153 76.6101 70.678 77.062 71.3277 77.8248L72.7966 76.4123C71.8362 75.1694 70.6215 74.5762 69.1525 74.5762C67.9379 74.5762 66.8644 75.0282 65.9887 75.9039C65.113 76.7796 64.6893 77.8813 64.6893 79.2089C64.6893 80.5366 65.1412 81.6383 65.9887 82.514C66.8644 83.3897 67.9096 83.8417 69.1525 83.8417C70.7627 83.8417 72.0621 83.1355 72.9661 81.8643L71.4972 80.4519Z" fill="#0080FF"/>
<path d="M80.678 75.9885C80.3673 75.5366 79.9435 75.1976 79.4068 74.9433C78.8701 74.6891 78.2486 74.5479 77.5706 74.5479C76.3277 74.5479 75.3107 74.9998 74.548 75.9038C73.8136 76.8077 73.4181 77.9094 73.4181 79.2371C73.4181 80.5931 73.8418 81.6947 74.6328 82.5422C75.452 83.3897 76.5254 83.8134 77.8531 83.8134C79.3503 83.8134 80.5932 83.1919 81.5254 82.0055L81.5819 81.949L80.113 80.5366C79.9718 80.706 79.774 80.8755 79.6045 81.045C79.3785 81.2428 79.1808 81.4123 78.9548 81.5253C78.6158 81.6947 78.2486 81.7795 77.8249 81.7795C77.2034 81.7795 76.6949 81.61 76.2995 81.2428C75.9322 80.9038 75.7062 80.4518 75.6497 79.8868H81.5537L81.5819 79.0676C81.5819 78.5027 81.4972 77.9377 81.356 77.4292C81.2147 76.9207 80.9887 76.4405 80.678 75.9885ZM75.791 78.0789C75.904 77.6552 76.1017 77.288 76.3842 77.0337C76.6949 76.723 77.0904 76.5818 77.5424 76.5818C78.0791 76.5818 78.5028 76.723 78.7853 77.0337C79.0396 77.3162 79.2091 77.6552 79.2373 78.0789H75.791Z" fill="#0080FF"/>
<path d="M89.2373 75.4236C88.5594 74.8586 87.6272 74.5479 86.469 74.5479C85.7345 74.5479 85.0283 74.7173 84.4068 75.0281C83.8136 75.3106 83.2486 75.819 82.8814 76.4405L82.9097 76.4688L84.3503 77.8247C84.9436 76.8925 85.5933 76.5535 86.469 76.5535C86.9492 76.5535 87.3164 76.6665 87.6272 76.9207C87.9097 77.175 88.0792 77.4857 88.0792 77.8812V78.3049C87.5142 78.1354 86.9775 78.0507 86.4407 78.0507C85.339 78.0507 84.4351 78.3049 83.7571 78.8134C83.0792 79.3219 82.7402 80.0846 82.7402 81.045C82.7402 81.8925 83.0227 82.5422 83.6159 83.0507C84.2091 83.5309 84.9153 83.7851 85.7628 83.7851C86.6102 83.7851 87.4012 83.4462 88.1357 82.8529V83.5874H90.339V77.8812C90.2543 76.836 89.9153 75.9885 89.2373 75.4236ZM85.2825 80.2258C85.5368 80.0563 85.904 79.9716 86.356 79.9716C86.8927 79.9716 87.4577 80.0846 88.0509 80.2823V81.158C87.5707 81.61 86.921 81.836 86.13 81.836C85.7345 81.836 85.452 81.7512 85.2261 81.5818C85.0283 81.4123 84.9153 81.2145 84.9153 80.932C84.9153 80.6213 85.0283 80.3953 85.2825 80.2258Z" fill="#0080FF"/>
<path d="M98.8418 75.5931C98.2203 74.8868 97.3446 74.5479 96.2429 74.5479C95.3672 74.5479 94.6328 74.8021 94.096 75.3106V74.7738H91.9209V83.6157H94.1525V78.7286C94.1525 78.0507 94.322 77.514 94.6328 77.1467C94.9435 76.7795 95.3672 76.5818 95.9605 76.5818C96.4689 76.5818 96.8362 76.7512 97.1186 77.0902C97.4011 77.4292 97.5424 77.9094 97.5424 78.4744V83.6157H99.774V78.4744C99.774 77.2597 99.4633 76.271 98.8418 75.5931Z" fill="#0080FF"/>
<path d="M43.9266 75.4236C43.2487 74.8586 42.3165 74.5479 41.1583 74.5479C40.4238 74.5479 39.7176 74.7173 39.0961 75.0281C38.5029 75.3106 37.9379 75.819 37.5707 76.4405L37.5989 76.4688L39.0396 77.8247C39.6328 76.8925 40.2826 76.5535 41.1583 76.5535C41.6385 76.5535 42.0057 76.6665 42.3165 76.9207C42.5989 77.175 42.7684 77.4857 42.7684 77.8812V78.3049C42.2035 78.1354 41.6667 78.0507 41.13 78.0507C40.0283 78.0507 39.1244 78.3049 38.4464 78.8134C37.7684 79.3219 37.4294 80.0846 37.4294 81.045C37.4294 81.8925 37.7119 82.5422 38.3052 83.0507C38.8984 83.5309 39.6046 83.7851 40.452 83.7851C41.2995 83.7851 42.0905 83.4462 42.8249 82.8529V83.5874H45.0283V77.8812C44.9436 76.836 44.6046 75.9885 43.9266 75.4236ZM39.9718 80.2258C40.2261 80.0563 40.5933 79.9716 41.0453 79.9716C41.582 79.9716 42.147 80.0846 42.7402 80.2823V81.158C42.26 81.61 41.6102 81.836 40.8193 81.836C40.4238 81.836 40.1413 81.7512 39.9153 81.5818C39.7176 81.4123 39.6046 81.2145 39.6046 80.932C39.6046 80.6213 39.7176 80.3953 39.9718 80.2258Z" fill="#0080FF"/>
<path d="M57.0621 83.8132C53.4745 83.8132 50.5649 80.9036 50.5649 77.316C50.5649 73.7285 53.4745 70.8188 57.0621 70.8188C60.6497 70.8188 63.5593 73.7285 63.5593 77.316C63.5593 80.9036 60.6497 83.8132 57.0621 83.8132ZM57.0621 73.107C54.7457 73.107 52.8531 74.9996 52.8531 77.316C52.8531 79.6324 54.7457 81.5251 57.0621 81.5251C59.3785 81.5251 61.2712 79.6324 61.2712 77.316C61.2712 74.9996 59.3785 73.107 57.0621 73.107Z" fill="#0080FF"/>
</svg>
