<svg width="72" height="100" viewBox="0 0 72 100" fill="none" xmlns="http://www.w3.org/2000/svg">
<g clip-path="url(#clip0_531:1727)">
<path fill-rule="evenodd" clip-rule="evenodd" d="M70.7727 47.8795C70.7727 67.5461 55.1721 83.4893 35.9276 83.4893C16.6834 83.4893 1.08276 67.5461 1.08276 47.8795C1.08276 28.2124 16.6834 12.269 35.9276 12.269C55.1721 12.269 70.7727 28.2124 70.7727 47.8795Z" fill="#D33833"/>
<path d="M2.50205 56.6982C2.50205 56.6982 -0.0204899 19.5631 34.2275 18.5019L31.8382 14.5232L13.2543 20.7567L7.94443 26.8574L3.29851 35.7436L0.643433 46.0884L1.43989 52.9848" fill="#EF3D3A"/>
<path d="M12.0617 23.5866C5.94808 29.8365 2.16491 38.4657 2.16491 48.012C2.16491 57.5563 5.94808 66.1866 12.0617 72.4353C18.1783 78.684 26.6078 82.5398 35.927 82.5398C45.2465 82.5398 53.6766 78.684 59.7927 72.4353C65.9059 66.1866 69.6899 57.5563 69.6899 48.012C69.6899 38.4657 65.9059 29.8365 59.7927 23.5866C53.6766 17.3391 45.2465 13.4833 35.927 13.4825C26.6078 13.4833 18.1783 17.3391 12.0617 23.5866ZM10.5142 73.9469C4.01683 67.3079 0 58.1328 0 48.012C0 37.8895 4.01683 28.7153 10.5142 22.0759C17.01 15.4353 26.002 11.3193 35.927 11.3204C45.8522 11.3193 54.845 15.4353 61.3398 22.0759C67.8377 28.7153 71.855 37.8903 71.8542 48.012C71.855 58.1328 67.8377 67.3079 61.3398 73.9469C54.845 80.5871 45.8522 84.7026 35.927 84.7026C26.002 84.7026 17.01 80.5871 10.5142 73.9469Z" fill="#231F20"/>
<path fill-rule="evenodd" clip-rule="evenodd" d="M50.5955 48.0763L45.2855 48.872L38.1173 49.6678L33.4711 49.8003L28.958 49.6678L25.5064 48.6067L22.4533 45.2911L20.0639 38.5272L19.533 37.0682L16.3472 36.0075L14.4887 32.9569L13.1613 28.5803L14.6217 24.734L18.0728 23.5403L20.8604 24.8669L22.1881 27.7845L23.781 27.5191L24.3118 26.8563L23.781 23.8057L23.648 19.9594L24.4445 14.6545L24.4133 11.6243L26.8338 7.75812L31.0817 4.70758L38.5155 1.52456L46.7454 2.71819L53.9136 7.89061L57.2324 13.1955L59.3562 17.0418L59.887 26.5909L58.2941 34.8138L55.3739 42.1081L52.5863 45.9544" fill="#F0D6B7"/>
<path fill-rule="evenodd" clip-rule="evenodd" d="M46.082 71.0203L27.0994 71.8161V74.9991L28.6923 86.1397L27.8959 87.0684L14.6218 82.5588L13.6923 80.9673L12.3649 65.9808L9.31224 56.9621L8.64832 54.8402L19.2675 47.5459L22.5864 46.2194L25.5065 49.8003L28.0286 52.0551L30.9492 52.9833L32.2764 53.3812L33.8693 60.2776L35.064 61.7366L38.1173 60.6755L35.9932 64.7872L47.5419 70.2246L46.082 71.0203Z" fill="#335061"/>
<path fill-rule="evenodd" clip-rule="evenodd" d="M14.6218 24.7341L18.0728 23.5405L20.8604 24.867L22.1881 27.7847L23.781 27.5193L24.1793 25.9278L23.3828 22.8776L24.1793 15.5829L23.5153 11.6042L25.9047 8.81902L31.0817 4.70775L29.6215 2.71836L22.3207 6.29926L19.2675 8.68653L17.5419 12.3999L14.887 15.9808L14.0905 20.225L14.6218 24.7341Z" fill="#6D6B6D"/>
<path fill-rule="evenodd" clip-rule="evenodd" d="M20.064 12.2673C20.064 12.2673 22.0551 7.3603 30.0197 4.97303C37.9843 2.58577 30.418 3.24863 30.418 3.24863L21.7899 6.56455L18.4711 9.88006L17.0112 12.5327L20.064 12.2673Z" fill="#DCD9D8"/>
<path fill-rule="evenodd" clip-rule="evenodd" d="M16.0817 23.8061C16.0817 23.8061 13.2941 14.522 23.9136 13.1959L23.5153 11.6044L16.2147 13.3288L14.0905 20.2252L14.6218 24.7344L16.0817 23.8061Z" fill="#DCD9D8"/>
<path fill-rule="evenodd" clip-rule="evenodd" d="M20.3295 36.1401L22.0675 34.4575C22.0675 34.4575 22.852 34.5486 22.9845 35.4768C23.1171 36.4055 23.5153 44.7609 29.2232 49.2705C29.7439 49.6819 24.9757 48.6068 24.9757 48.6068L20.7277 41.9758" fill="#F7E4CD"/>
<path fill-rule="evenodd" clip-rule="evenodd" d="M44.7551 33.6206C44.7551 33.6206 45.0645 29.6004 46.1481 29.9096C47.2317 30.2188 47.2317 31.3014 47.2317 31.3014C47.2317 31.3014 44.6001 33.0023 44.7551 33.6206Z" fill="#F7E4CD"/>
<path d="M55.7722 18.8992C55.7722 18.8992 53.5843 19.3607 53.3828 21.2865C53.1813 23.2126 55.7722 21.6843 56.1704 21.5518" fill="#F7E4CD"/>
<path d="M39.7102 19.0316C39.7102 19.0316 36.7896 19.4295 36.7896 21.286C36.7896 23.1429 40.1085 23.0104 41.0376 22.2146" fill="#F7E4CD"/>
<path fill-rule="evenodd" clip-rule="evenodd" d="M21.6569 27.6523C21.6569 27.6523 16.6124 24.6018 16.0816 27.5198C15.5507 30.4374 14.3557 32.5597 16.8781 35.6099L15.1525 35.0795L13.5596 30.9682L13.0288 26.9894L16.0816 23.806L19.533 24.0714L21.5242 25.6629L21.6569 27.6523Z" fill="#F7E4CD"/>
<path fill-rule="evenodd" clip-rule="evenodd" d="M24.0462 19.2969C24.0462 19.2969 26.3029 7.62592 37.719 5.37115C47.1178 3.51505 52.055 5.76902 53.9136 7.89091C53.9136 7.89091 45.5507 -2.05564 37.586 0.994492C29.6214 4.04502 23.781 9.61531 23.9135 13.1958C24.1396 19.2945 24.0462 19.2969 24.0462 19.2969Z" fill="#F7E4CD"/>
<path fill-rule="evenodd" clip-rule="evenodd" d="M54.843 9.2166C54.843 9.2166 50.9937 9.08411 50.8607 12.5325C50.8607 12.5325 50.8603 13.0629 51.1259 13.5933C51.1259 13.5933 54.1796 10.1449 56.0377 12.0017" fill="#F7E4CD"/>
<path fill-rule="evenodd" clip-rule="evenodd" d="M37.9867 13.9528C37.9867 13.9528 37.324 8.65986 32.8073 11.7371C29.887 13.7264 30.1527 16.5116 30.6835 17.042C31.2144 17.5727 31.0701 18.641 31.4742 17.9077C31.8782 17.1745 31.7452 14.7872 33.2056 14.1243C34.6658 13.4611 37.0595 12.7202 37.9867 13.9528Z" fill="#F7E4CD"/>
<path fill-rule="evenodd" clip-rule="evenodd" d="M25.5065 49.8004L13.0288 55.3707C13.0288 55.3707 18.2058 75.9279 15.5508 82.2939L13.6923 81.6311L13.5596 73.8059L10.1087 58.952L8.64832 54.8404L21.6569 46.0874L25.5065 49.8004Z" fill="#49728B"/>
<path fill-rule="evenodd" clip-rule="evenodd" d="M26.7895 61.1706L28.5598 63.3286V71.2861H26.4356C26.4356 71.2861 26.1704 65.7158 26.1704 65.0525C26.1704 64.3893 26.4356 62.0021 26.4356 62.0021" fill="#49728B"/>
<path fill-rule="evenodd" clip-rule="evenodd" d="M26.8339 72.4803L20.8604 72.7452L22.5863 73.9389L26.8339 74.6021" fill="#49728B"/>
<path fill-rule="evenodd" clip-rule="evenodd" d="M47.2767 71.1536L52.188 71.0211L53.3827 83.2229L48.3384 83.8857L47.2767 71.1536Z" fill="#335061"/>
<path fill-rule="evenodd" clip-rule="evenodd" d="M48.604 71.1533L56.0378 70.7554C56.0378 70.7554 59.0906 63.0632 59.0906 62.6653C59.0906 62.2674 61.7456 51.5248 61.7456 51.5248L55.7721 45.2916L54.5775 44.2305L51.3916 47.4135V59.7477L48.604 71.1533Z" fill="#335061"/>
<path fill-rule="evenodd" clip-rule="evenodd" d="M51.9224 70.2253L47.2767 71.1536L47.9401 74.8674C49.6657 75.6631 52.5863 73.5408 52.5863 73.5408" fill="#49728B"/>
<path fill-rule="evenodd" clip-rule="evenodd" d="M52.0554 47.0157L61.3473 53.9121L61.6129 50.7291L54.5774 44.2305L52.0554 47.0157Z" fill="#49728B"/>
<path fill-rule="evenodd" clip-rule="evenodd" d="M31.4406 97.2822L28.6923 86.14L27.3255 77.9188L27.0994 71.8164L39.5381 71.1548L47.2767 71.1535L46.573 85.0806L47.7677 95.8233L47.6351 97.8126L37.5469 98.6084L31.4406 97.2822Z" fill="white"/>
<path fill-rule="evenodd" clip-rule="evenodd" d="M45.5508 71.0206C45.5508 71.0206 44.8873 84.8139 46.8785 94.628C46.8785 94.628 42.8962 97.1482 37.0552 97.811L48.2058 97.4132L49.5331 96.6174L47.9402 74.867L47.5419 70.2245" fill="#DCD9D8"/>
<path fill-rule="evenodd" clip-rule="evenodd" d="M53.6089 82.1626L58.7859 80.7037L68.6087 80.1732L70.069 75.6641L67.414 67.839L64.3611 67.4411L60.1132 68.7673L56.0377 70.7554L53.8742 70.3588L52.188 71.0207" fill="white"/>
<path fill-rule="evenodd" clip-rule="evenodd" d="M53.5154 79.5088C53.5154 79.5088 56.9665 77.9176 57.4977 78.0502L56.0378 70.7555L57.7634 70.0926C57.7634 70.0926 58.9581 76.989 58.9581 77.7847C58.9581 77.7847 66.3914 78.1826 67.0553 78.1826C67.0553 78.1826 68.6482 75.1321 68.2499 71.9491L69.7103 76.1932L69.8429 78.5805L67.7191 81.7635L65.3297 82.2939L61.3474 82.1614L60.0201 80.4374L55.374 81.1003L53.9137 81.6311" fill="#DCD9D8"/>
<path d="M48.2989 70.0942L45.3787 62.667L42.3255 58.2903C42.3255 58.2903 42.989 56.4334 43.9184 56.4334C44.8479 56.4334 46.9716 56.4334 46.9716 56.4334L49.8919 57.4946L49.6266 62.4017L48.2989 70.0942Z" fill="white"/>
<path fill-rule="evenodd" clip-rule="evenodd" d="M48.8696 67.5724C48.8696 67.5724 45.1526 60.4109 45.1526 59.3499C45.1526 59.3499 45.816 57.7583 46.7455 58.1562C47.675 58.5541 49.6661 59.6148 49.6661 59.6148V57.0951L45.1526 56.1664L42.0997 56.5643L47.2767 68.766L48.3384 68.8989" fill="#DCD9D8"/>
<path d="M32.6354 50.0675L28.958 49.6681L25.5065 48.6069V49.8005L27.1929 51.6586L32.5026 54.0459" fill="white"/>
<path fill-rule="evenodd" clip-rule="evenodd" d="M26.7016 50.4649C26.7016 50.4649 30.8169 52.1893 32.1443 51.7914L32.2763 53.3813L28.5602 52.5872L26.3033 50.9957L26.7016 50.4649Z" fill="#DCD9D8"/>
<path fill-rule="evenodd" clip-rule="evenodd" d="M53.5946 56.8848C51.3422 56.8187 49.3073 56.5513 47.5256 56.0492C47.6466 55.3195 47.42 54.6033 47.602 54.0777C48.0986 53.7204 48.9309 53.726 49.6816 53.6421C49.0325 53.3234 48.1205 53.1972 47.3715 53.3814C47.3539 52.8749 47.1266 52.561 46.9888 52.1647C48.2551 51.7131 51.2447 48.7525 52.9264 49.7329C53.7276 50.1992 54.0681 52.8626 54.1302 54.1577C54.182 55.232 54.0327 56.3158 53.5946 56.8848Z" fill="#D33833"/>
<path d="M53.5946 56.8848C51.3422 56.8187 49.3073 56.5513 47.5256 56.0492C47.6466 55.3195 47.42 54.6033 47.602 54.0777C48.0986 53.7204 48.9309 53.726 49.6816 53.6421C49.0325 53.3234 48.1205 53.1972 47.3715 53.3814C47.3539 52.8749 47.1266 52.561 46.9888 52.1647C48.2551 51.7131 51.2447 48.7525 52.9264 49.7329C53.7276 50.1992 54.0681 52.8626 54.1302 54.1577C54.182 55.232 54.0327 56.3158 53.5946 56.8848Z" stroke="#D33833" stroke-width="2.5"/>
<path fill-rule="evenodd" clip-rule="evenodd" d="M42.8237 53.2062C42.8177 53.3765 42.8105 53.5479 42.8038 53.7198C42.1005 54.1814 40.9651 54.1758 40.1934 54.5637C41.3311 54.6135 42.2267 54.8872 43.0017 55.2731C42.9846 55.7021 42.9682 56.1306 42.9515 56.5595C41.6624 57.4412 40.4849 58.7542 38.9671 59.581C38.2495 59.972 35.731 60.9782 34.9675 60.8004C34.5356 60.7002 34.4967 60.1646 34.324 59.6598C33.9561 58.5787 33.1091 56.8579 33.0352 55.2306C32.9411 53.1751 32.7334 49.7303 34.9505 50.1536C36.7391 50.4946 38.8193 51.3178 40.2041 52.0738C41.0503 52.5361 41.5398 53.1075 42.8237 53.2062Z" fill="#D33833"/>
<path d="M42.8237 53.2062C42.8177 53.3765 42.8105 53.5479 42.8038 53.7198C42.1005 54.1814 40.9651 54.1758 40.1934 54.5637C41.3311 54.6135 42.2267 54.8872 43.0017 55.2731C42.9846 55.7021 42.9682 56.1306 42.9515 56.5595C41.6624 57.4412 40.4849 58.7542 38.9671 59.581C38.2495 59.972 35.731 60.9782 34.9675 60.8004C34.5356 60.7002 34.4967 60.1646 34.324 59.6598C33.9561 58.5787 33.1091 56.8579 33.0352 55.2306C32.9411 53.1751 32.7334 49.7303 34.9505 50.1536C36.7391 50.4946 38.8193 51.3178 40.2041 52.0738C41.0503 52.5361 41.5398 53.1075 42.8237 53.2062V53.2062Z" stroke="#D33833" stroke-width="2.5"/>
<path fill-rule="evenodd" clip-rule="evenodd" d="M44.1039 55.6587C43.9072 54.5391 43.6798 54.2196 43.7678 53.2428C46.7565 51.2518 47.3176 56.6626 44.1039 55.6587Z" fill="#D33833"/>
<path d="M44.1039 55.6587C43.9072 54.5391 43.6798 54.2196 43.7678 53.2428C46.7565 51.2518 47.3176 56.6626 44.1039 55.6587Z" stroke="#D33833" stroke-width="2.5"/>
<path fill-rule="evenodd" clip-rule="evenodd" d="M48.4315 56.5659C48.4315 56.5659 47.5021 55.2394 48.1659 54.8415C48.8298 54.4436 49.4936 54.8419 49.8918 54.1787C50.2901 53.5154 49.8918 53.1175 50.0245 52.3218C50.1571 51.526 50.8213 51.3931 51.4848 51.2606C52.1482 51.1281 54.0072 50.8627 54.2724 51.526L53.4759 49.1387L51.883 48.6084L46.8386 51.526L46.573 52.985V55.9027" fill="#EF3D3A"/>
<path fill-rule="evenodd" clip-rule="evenodd" d="M34.4935 60.9429C34.3341 58.8731 34.1653 56.8061 33.9775 54.7383C33.6966 51.6508 34.7198 52.1895 37.3986 52.1895C37.8077 52.1895 39.9177 52.6769 40.0687 52.9853C40.7927 54.4626 38.8581 54.1343 40.9026 55.2484C42.6285 56.1886 45.6773 54.6774 44.98 52.5874C44.5898 52.1227 42.9467 52.4426 42.3577 52.1374C41.3207 51.6003 40.2837 51.0631 39.2466 50.526C37.9272 49.842 34.8777 48.845 33.471 49.8007C29.9067 52.2225 33.696 58.2739 34.9675 60.8004" fill="#EF3D3A"/>
<path fill-rule="evenodd" clip-rule="evenodd" d="M37.9867 13.9528C34.3687 13.1109 32.5709 15.4655 31.4742 17.9077C30.495 17.6706 30.8846 16.3401 31.132 15.6621C31.7796 13.8828 34.3894 11.5142 36.5218 11.8353C37.4394 11.9734 38.6812 12.8117 37.9867 13.9528Z" fill="#231F20"/>
<path fill-rule="evenodd" clip-rule="evenodd" d="M55.6148 18.0696C55.6718 18.0719 55.7295 18.0739 55.7864 18.0763C56.604 19.7733 57.3117 21.5709 58.3431 23.0689C57.6522 24.6767 53.1111 26.0995 53.1812 23.2125C54.1633 22.7836 55.8585 23.125 56.7291 22.5771C56.2257 21.1969 55.4993 20.0219 55.6148 18.0696Z" fill="#231F20"/>
<path fill-rule="evenodd" clip-rule="evenodd" d="M39.839 18.1134C40.6147 19.5342 40.8672 21.0271 41.9699 22.1009C42.4665 22.5844 43.4322 23.1736 42.9535 24.518C42.8416 24.8351 42.024 25.5422 41.5521 25.681C39.8282 26.1895 35.8112 25.7861 37.1715 23.6387C38.5972 23.7052 40.5136 24.5638 41.5792 23.5297C40.7609 22.2227 39.3019 19.6369 39.839 18.1134Z" fill="#231F20"/>
<path fill-rule="evenodd" clip-rule="evenodd" d="M54.9677 32.5541C52.3721 34.22 49.4777 36.0315 45.2246 35.6114C44.3159 34.822 43.9694 33.0654 44.8523 31.9051C45.3119 32.6945 45.0231 34.1464 46.3038 34.3648C48.7171 34.7774 51.5258 32.8899 53.2617 32.2302C54.3381 30.4171 53.1689 29.7502 52.1992 28.5833C50.2141 26.1924 47.5511 23.229 47.6479 19.6497C48.4503 19.0684 48.5196 20.537 48.6347 20.8043C49.6713 23.2282 52.2801 26.3281 54.184 28.4026C54.6515 28.9135 55.4213 29.4037 55.5069 29.7415C55.7538 30.7238 54.8646 31.9008 54.9677 32.5541Z" fill="#231F20"/>
<path fill-rule="evenodd" clip-rule="evenodd" d="M20.7484 30.8002C19.9348 30.3362 19.7412 28.2927 18.786 28.2346C17.421 28.1519 17.6699 30.8857 17.6754 32.4844C16.7358 31.6321 16.5706 29.0081 17.2608 27.6605C16.4741 27.2746 16.1229 28.0862 15.6865 28.3723C16.2473 24.302 21.646 26.4844 20.7484 30.8002Z" fill="#231F20"/>
<path fill-rule="evenodd" clip-rule="evenodd" d="M56.6203 34.249C55.4121 36.5468 53.7029 39.0773 50.1575 39.1509C50.0854 38.4088 50.03 37.2797 50.1614 36.8328C52.8718 36.5726 54.5452 35.1944 56.6203 34.249Z" fill="#231F20"/>
<path fill-rule="evenodd" clip-rule="evenodd" d="M39.6345 35.7388C41.8958 36.9268 46.0517 37.0546 49.1252 36.9646C49.2901 37.6375 49.2861 38.4686 49.2925 39.289C45.3417 39.486 40.6704 38.5092 39.6345 35.7388Z" fill="#231F20"/>
<path fill-rule="evenodd" clip-rule="evenodd" d="M39.2047 37.9539C40.7684 41.8766 46.1429 41.425 50.6752 41.3168C50.4757 41.8261 50.0432 42.4277 49.5056 42.6453C48.0533 43.2358 44.0475 43.6838 42.0312 42.6139C40.7525 41.9347 39.931 40.4001 39.2304 39.5005C38.892 39.066 37.2073 37.9563 39.2047 37.9539Z" fill="#231F20"/>
<path fill-rule="evenodd" clip-rule="evenodd" d="M54.779 59.5915C52.944 62.7317 51.1882 65.9568 49.011 68.7266C49.9238 66.0452 50.3145 61.5574 50.4522 58.1362C52.3618 57.2433 53.9969 58.3371 54.779 59.5915Z" fill="#81B0C4"/>
<path fill-rule="evenodd" clip-rule="evenodd" d="M64.6534 70.8779C62.5989 71.2888 61.1554 73.2838 59.1511 73.1557C60.2526 71.6043 62.1828 70.9503 64.6534 70.8779Z" fill="#231F20"/>
<path fill-rule="evenodd" clip-rule="evenodd" d="M65.5598 74.0899C63.8852 74.2666 61.9184 74.5375 60.2199 74.398C61.0239 73.1709 64.1218 73.5943 65.5598 74.0899Z" fill="#231F20"/>
<path fill-rule="evenodd" clip-rule="evenodd" d="M66.1401 76.8596C64.2581 76.9004 61.9189 76.8629 60.13 76.7129C61.1881 75.5774 64.9195 76.2916 66.1401 76.8596Z" fill="#231F20"/>
<path fill-rule="evenodd" clip-rule="evenodd" d="M51.2379 84.4393C51.5079 86.8007 52.4449 89.1935 52.3274 91.7797C51.2869 92.1303 50.6891 92.4369 49.2949 92.4351C49.1966 90.2371 48.9023 86.8771 48.9903 84.7818C49.676 84.8272 50.6871 84.2924 51.2379 84.4393Z" fill="#DCD9D8"/>
<path fill-rule="evenodd" clip-rule="evenodd" d="M48.2038 49.6359C47.2588 50.2522 46.454 51.0217 45.5464 51.6798C43.5337 51.7793 42.4354 51.5406 40.9568 50.3859C40.9811 50.2932 41.1296 50.3346 41.1352 50.2208C43.2896 51.1801 46.0282 49.8301 48.2038 49.6359Z" fill="#F0D6B7"/>
<path fill-rule="evenodd" clip-rule="evenodd" d="M36.8938 64.3087C37.4857 61.746 39.8051 60.4187 41.9113 59.0074C44.0852 61.764 45.4074 65.309 46.8633 68.73C43.4234 67.6939 39.9086 66.0129 36.8938 64.3087Z" fill="#81B0C4"/>
<path fill-rule="evenodd" clip-rule="evenodd" d="M48.9903 84.7816C48.9023 86.8768 49.1965 90.2368 49.2949 92.4348C50.6891 92.4367 51.2869 92.13 52.3274 91.7794C52.4449 89.1932 51.5079 86.8005 51.2379 84.439C50.6871 84.2921 49.676 84.8269 48.9903 84.7816ZM27.2811 72.8656C28.2005 81.3098 29.532 88.4081 31.9743 95.8856C37.3947 97.53 43.9292 97.6733 48.7203 96.1895C47.8406 91.9692 48.2249 86.8311 47.7108 82.3275C47.3233 78.9424 47.5208 75.5365 46.9896 72.0829C41.1842 70.8762 32.9784 71.8008 27.2811 72.8656ZM48.3623 72.1359C48.3133 75.7625 48.5247 79.3398 48.8019 82.9709C50.1957 82.7619 51.1415 82.6223 52.4365 82.3386C52.016 78.8429 52.0678 74.9094 51.2112 71.8171C50.2212 71.8266 49.3495 71.8056 48.3623 72.1359ZM55.4328 71.5513C54.7714 71.3998 54.0012 71.5454 53.3692 71.5577C53.6663 74.514 54.3871 77.7761 54.6408 80.8793C55.6351 80.9102 56.1664 80.4416 56.9843 80.284C57.0281 77.5601 56.7462 73.8073 55.4328 71.5513ZM66.1388 81.3244C68.2116 80.8214 69.515 78.285 68.9352 75.6801C68.5461 73.9294 67.8532 70.6329 67.1117 69.513C66.5638 68.6846 65.078 67.6001 63.8916 68.3592C61.9618 69.5938 58.5621 69.9522 57.1548 71.4467C57.8604 73.7942 58.0795 77.0186 58.3706 79.993C60.7815 80.1432 63.7479 79.3302 65.753 80.1929C64.3532 80.6459 62.5369 80.6495 61.3274 81.3098C62.3158 81.7867 64.63 81.6904 66.1388 81.3244ZM46.8633 68.73C45.4074 65.309 44.0853 61.764 41.9113 59.0074C39.8051 60.4187 37.4858 61.746 36.8938 64.3087C39.9086 66.0129 43.4234 67.6939 46.8633 68.73ZM50.4522 58.1365C50.3144 61.5578 49.9237 66.0455 49.011 68.7269C51.1881 65.9571 52.9439 62.732 54.7789 59.5918C53.9968 58.3374 52.3617 57.2436 50.4522 58.1365ZM46.3839 56.6922C45.5591 56.6035 44.859 57.6395 43.7866 57.1915C43.5409 57.4629 43.3175 57.7569 43.067 58.0219C45.4357 60.8739 46.5121 64.9203 48.3415 68.2719C49.3232 65.0524 49.2101 61.5251 49.4263 58.0111C48.0775 58.0967 47.3292 56.7924 46.3839 56.6922ZM43.7679 53.2426C43.6799 54.2194 43.9073 54.5389 44.104 55.6585C47.3177 56.6623 46.7566 51.2516 43.7679 53.2426ZM40.2041 52.0736C38.8194 51.3176 36.7391 50.4944 34.9505 50.1535C32.7334 49.7297 32.9411 53.1749 33.0352 55.2304C33.1091 56.8577 33.9561 58.5785 34.324 59.6596C34.4967 60.1644 34.5356 60.7 34.9676 60.8002C35.731 60.978 38.2495 59.9719 38.9671 59.5808C40.4849 58.754 41.6624 57.441 42.9515 56.5593C42.9682 56.1304 42.9846 55.7019 43.0017 55.2729C42.2267 54.887 41.3311 54.6133 40.1934 54.5635C40.9651 54.1756 42.1005 54.1812 42.8038 53.7196C42.8105 53.5478 42.8177 53.3763 42.8237 53.206C41.5398 53.1073 41.0504 52.5359 40.2041 52.0736ZM26.9775 49.6732C25.8282 50.839 30.2009 52.4281 31.5932 52.5137C31.5854 51.776 32.014 51.0805 31.9276 50.5513C30.274 50.2613 28.1009 50.4527 26.9775 49.6732ZM41.1352 50.2207C41.1296 50.3345 40.9811 50.2931 40.9568 50.3858C42.4354 51.5405 43.5337 51.7792 45.5464 51.6797C46.4539 51.0216 47.2588 50.2521 48.2038 49.6358C46.0282 49.83 43.2896 51.18 41.1352 50.2207ZM54.1302 54.1577C54.0681 52.8626 53.7276 50.1992 52.9264 49.7329C51.2446 48.7521 48.2551 51.7131 46.9888 52.1647C47.1265 52.561 47.3539 52.8749 47.3715 53.3814C48.1205 53.1972 49.0325 53.3233 49.6816 53.642C48.9309 53.726 48.0986 53.7204 47.602 54.0777C47.42 54.6033 47.6466 55.3195 47.5256 56.0492C49.3073 56.5513 51.3422 56.8187 53.5946 56.8848C54.0327 56.3158 54.182 55.232 54.1302 54.1577ZM25.0426 50.8008C24.6817 50.5438 22.2402 47.3699 21.9058 47.5016C17.4879 49.2423 13.357 52.2523 9.66565 55.0991C13.1852 62.6445 14.6059 71.8888 14.8569 80.7987C18.8887 82.6828 22.43 85.3988 27.901 85.6824C27.2679 81.207 26.69 77.2142 26.3306 73.0008C24.956 72.4218 22.9838 73.0271 21.6973 72.8213C21.6864 71.2724 23.662 72.143 23.8266 71.1014C23.9506 70.3136 22.7396 70.2539 23.1339 69.0133C24.1396 69.3786 24.6677 70.1853 25.7403 70.4883C26.7203 68.3461 25.7266 64.5558 25.8678 62.7654C25.8946 62.4292 26.0358 60.903 26.7895 61.1708C27.4566 61.4078 26.7514 65.2299 26.8245 66.9244C26.8911 68.4857 26.6358 69.9963 27.2686 70.9764C32.5553 70.2575 37.9275 69.7927 43.6476 69.6359C42.3892 69.0965 40.8942 68.5859 39.2552 67.6629C38.3667 67.1624 35.5659 66.1211 35.3095 65.2779C34.9004 63.9343 36.3828 63.2186 36.6364 62.0668C33.9678 63.5209 33.4471 60.673 32.8159 58.6553C32.2439 56.8279 31.9183 55.4627 31.778 54.4088C29.4791 53.3138 27.0213 52.2049 25.0426 50.8008ZM51.7954 47.8855C55.4762 46.1023 56.1397 54.5504 54.6969 57.2719C54.9199 58.0836 55.6869 58.3943 55.9999 59.124C53.9458 62.8004 51.6644 66.2321 49.5685 69.8652C51.1276 68.8955 53.3545 69.6917 55.1891 68.9659C55.8597 68.7009 56.3452 67.1671 56.8529 65.94C58.2495 62.5641 59.7158 58.308 60.3681 55.0863C60.5154 54.3523 60.9169 52.7528 60.8269 52.0995C60.6664 50.9297 59.0778 50.0623 58.2698 49.339C56.7812 48.0029 55.8438 46.8272 54.2911 45.5779C53.6615 46.5065 52.3103 47.1304 51.7954 47.8855ZM16.6246 15.2723C14.8706 17.2004 15.2378 20.8131 15.4501 23.3834C18.6204 21.3909 22.8282 23.541 22.7886 26.9301C24.3022 26.8899 23.354 25.0414 23.0802 23.8505C22.1855 19.9609 24.5876 15.735 23.1891 12.178C20.4738 12.3837 18.2431 13.4918 16.6246 15.2723ZM29.1743 4.08157C25.2036 5.20598 20.1148 8.0886 18.4832 11.6524C19.7466 11.469 20.6237 10.8324 21.87 10.7536C22.341 10.723 22.9581 10.9509 23.4995 10.8165C24.5783 10.5491 25.4888 8.13237 26.3026 7.23316C27.096 6.35505 28.0495 5.97985 28.7021 5.17932C29.1214 4.9772 29.7413 4.99113 29.7651 4.36208C29.5834 4.16792 29.392 4.01991 29.1743 4.08157ZM49.8437 5.13913C45.7224 2.81592 38.7466 1.06844 34.3626 3.252C30.8252 5.0142 26.0436 7.92985 24.4134 11.6245C25.9363 15.1899 23.9623 18.4569 23.8363 22.0768C23.7694 24.0029 24.7439 25.6844 24.8186 27.7812C24.2975 28.6402 22.7053 28.746 21.6032 28.6871C21.2322 26.8322 20.5827 24.7474 18.6709 24.5381C15.9658 24.2424 13.9878 26.4793 13.8649 28.8168C13.7195 31.5658 15.9782 36.1219 19.1796 35.8056C20.4163 35.6834 20.7201 34.4448 22.0676 34.4576C22.7979 35.9134 20.941 36.3706 20.75 37.4118C20.7002 37.6808 20.904 38.732 21.0225 39.2249C21.604 41.6253 22.9003 44.732 24.1762 46.5594C25.7955 48.8775 28.977 49.2268 32.3998 49.454C33.0111 48.1382 35.2631 48.2464 36.7305 48.5906C34.9719 47.8947 33.337 46.2077 31.9821 44.7145C30.4257 43.0012 28.8491 41.1634 28.7695 38.9241C31.7106 43.0008 34.1405 46.561 39.4886 48.3542C43.5353 49.7102 48.2615 47.7328 51.3709 45.5512C52.6611 44.6444 53.4313 43.2057 54.3485 41.8887C57.78 36.957 59.3813 29.9178 59.0292 23.095C58.8843 20.2812 58.8907 17.4769 57.9457 15.5838C56.958 13.6044 53.6177 11.8334 51.6624 13.6239C51.3 11.699 53.2884 10.5085 55.624 11.2012C53.9586 9.05386 52.2108 6.47361 49.8437 5.13913ZM57.5219 68.6274C60.7424 67.0278 66.7597 64.3219 68.7787 68.6333C69.5238 70.2225 70.3979 72.9089 70.7838 74.5494C71.329 76.8638 70.1928 81.7283 67.8118 82.505C65.7088 83.1908 63.2549 83.149 60.7217 82.6406C60.4234 82.3927 60.0913 81.9607 59.8592 81.5103C58.0504 81.4401 56.3567 81.6073 54.9279 82.3501C55.0633 83.6866 54.1585 83.9011 53.3103 84.1764C52.6815 86.6674 54.5683 89.9206 54.1167 92.192C53.7945 93.8103 51.8018 94.0605 50.3371 94.3633C50.2893 95.2625 50.4012 96.0132 50.5012 96.774C50.1662 98.007 48.6641 98.7088 47.2408 98.8807C42.5581 99.4434 35.4479 99.6961 30.9437 98.0778C29.6868 94.9976 28.6967 91.2511 27.6498 87.7338C23.2568 88.2025 19.7038 85.84 16.3544 84.2921C15.1947 83.755 13.5904 83.4591 13.1572 82.5368C12.7372 81.6439 12.909 79.9326 12.8048 78.3161C12.5396 74.1873 12.3125 70.2049 11.2212 65.9775C10.7312 64.0804 9.87719 62.4065 9.2814 60.5786C8.73072 58.8845 7.7686 56.7909 7.51767 55.1015C7.14561 52.5976 9.5054 52.4584 11.0143 51.3733C13.3469 49.6955 15.1779 48.7676 17.7041 47.2533C18.4524 46.8049 20.7088 45.6698 20.9654 45.147C21.4756 44.1105 20.0896 42.6491 19.7191 41.8366C19.1329 40.5519 18.8272 39.4605 18.7433 38.1928C16.6241 37.8582 15.0176 36.5981 14.0473 35.1773C12.4421 32.8259 11.3289 28.4755 12.7177 25.1663C12.8266 24.9057 13.3698 24.3932 13.4499 23.993C13.608 23.2048 13.1525 22.1568 13.1242 21.3184C12.9782 17.0174 13.8525 13.3115 16.7506 12.0145C17.927 7.33183 22.1379 5.77494 26.1051 3.44775C27.588 2.578 29.2228 2.02216 30.9111 1.40147C36.9674 -0.825455 46.2596 -0.40609 51.2861 3.39205C53.4174 5.00266 56.8242 8.40332 58.0428 10.8654C61.2613 17.3655 61.0327 28.2288 58.7815 36.1358C58.4789 37.1973 58.04 38.7578 57.4272 40.033C56.9999 40.9235 55.6718 42.7052 55.8331 43.4914C55.9991 44.3042 58.8612 46.4755 59.4749 47.0667C60.58 48.1318 62.6794 49.5455 62.8495 50.8895C63.0323 52.3199 62.2187 54.2767 61.8065 55.6569C60.4286 60.2631 59.0842 64.5209 57.5219 68.6274Z" fill="#231F20"/>
<path fill-rule="evenodd" clip-rule="evenodd" d="M36.0362 36.7421C36.2109 36.5097 37.1715 36.1568 38.5155 36.8033C38.5155 36.8033 36.9226 37.0687 37.0551 39.7222L36.3914 39.5893C36.3914 39.5893 35.7054 37.1833 36.0362 36.7421Z" fill="#F7E4CD"/>
<path fill-rule="evenodd" clip-rule="evenodd" d="M47.6749 59.5491C47.6749 59.9518 47.348 60.2783 46.9445 60.2783C46.5415 60.2783 46.2146 59.9518 46.2146 59.5491C46.2146 59.1464 46.5415 58.8194 46.9445 58.8194C47.348 58.8194 47.6749 59.1464 47.6749 59.5491Z" fill="#1D1919"/>
<path fill-rule="evenodd" clip-rule="evenodd" d="M48.4049 62.9309C48.4049 63.3336 48.0779 63.6602 47.6745 63.6602C47.2715 63.6602 46.9446 63.3336 46.9446 62.9309C46.9446 62.5282 47.2715 62.2012 47.6745 62.2012C48.0779 62.2012 48.4049 62.5282 48.4049 62.9309Z" fill="#1D1919"/>
</g>
<defs>
<clipPath id="clip0_531:1727">
<rect width="72" height="99.3103" fill="white"/>
</clipPath>
</defs>
</svg>
