<svg width="100" height="100" viewBox="0 0 100 100" fill="none" xmlns="http://www.w3.org/2000/svg">
<path d="M100 0H0V100H100V0Z" fill="#F7DF1E"/>
<path d="M67.1747 78.1254C69.1889 81.4143 71.8096 83.8318 76.4445 83.8318C80.3381 83.8318 82.8254 81.8857 82.8254 79.1969C82.8254 75.9746 80.2699 74.8334 75.9842 72.9588L73.635 71.9508C66.854 69.0619 62.3492 65.4429 62.3492 57.7921C62.3492 50.7445 67.7191 45.3794 76.1112 45.3794C82.0858 45.3794 86.381 47.4588 89.4762 52.9032L82.1588 57.6016C80.5477 54.7127 78.8096 53.5746 76.1112 53.5746C73.3588 53.5746 71.6143 55.3207 71.6143 57.6016C71.6143 60.4207 73.3604 61.5619 77.3921 63.308L79.7413 64.3143C87.7254 67.7381 92.2334 71.2286 92.2334 79.0762C92.2334 87.5365 85.5873 92.1715 76.662 92.1715C67.935 92.1715 62.2969 88.0127 59.5381 82.5619L67.1747 78.1254ZM33.9794 78.9397C35.4556 81.5588 36.7985 83.7731 40.027 83.7731C43.1143 83.7731 45.062 82.5651 45.062 77.8683V45.9159H54.4588V77.9953C54.4588 87.7254 48.754 92.154 40.427 92.154C32.9032 92.154 28.5461 88.2604 26.3302 83.5707L33.9794 78.9397Z" fill="black"/>
</svg>
