<svg width="100" height="87" viewBox="0 0 100 87" fill="none" xmlns="http://www.w3.org/2000/svg">
<path d="M10.4673 73.0259H6.11398V69.0832H10.7121C12.3944 69.0832 13.2373 69.7495 13.2373 71.0851C13.2373 72.379 12.3168 73.0259 10.4757 73.0259H10.4673ZM13.6102 69.0461C13.0121 68.5649 12.1766 68.3242 11.1018 68.3242L4.8551 68.3557V77.7961H6.11398L6.10277 73.7812H10.7504C11.9158 73.7812 12.8345 73.5405 13.5028 73.0592C14.171 72.578 14.5074 71.9116 14.5074 71.0573C14.5074 70.2031 14.2084 69.5367 13.6102 69.0554V69.0461ZM21.757 75.7988C21.6321 76.1134 21.4262 76.39 21.1598 76.6013C20.5962 77.0955 19.7364 77.3417 18.5803 77.3417C17.5355 77.3417 16.7336 77.101 16.1747 76.6198C15.6158 76.1385 15.3355 75.4962 15.3355 74.69C15.3355 74.2708 15.4084 73.8978 15.5551 73.5729C15.6984 73.2525 15.9161 72.9703 16.1906 72.7492C16.7701 72.2753 17.5644 72.0384 18.5803 72.0384C20.8271 72.0384 21.9504 72.9223 21.9504 74.6891C21.9504 75.1093 21.885 75.4777 21.7588 75.796L21.757 75.7988ZM21.9869 72.316C21.2205 71.6867 20.0841 71.372 18.5803 71.372C17.1598 71.372 16.0607 71.6932 15.2869 72.3346C14.5878 72.9158 14.2383 73.6997 14.2383 74.6854C14.2383 75.6711 14.599 76.456 15.3224 77.0575C15.7314 77.3873 16.2063 77.6273 16.7158 77.7619C17.2458 77.9072 17.8682 77.9794 18.5822 77.9794C20.0775 77.9794 21.2177 77.6684 22 77.0464C22.699 76.4791 23.0486 75.6915 23.0486 74.6845C23.0486 73.671 22.6953 72.8797 21.9878 72.3123L21.9869 72.316ZM31.5065 76.0709C31.5065 77.3408 30.2411 77.9747 27.7093 77.9747C26.9355 77.9747 26.2841 77.9303 25.7542 77.8424C25.2243 77.7545 24.7944 77.6073 24.4644 77.4037C24.2093 77.2482 23.9972 77.0455 23.857 76.7956C23.6984 76.5034 23.599 76.1834 23.5644 75.8534L24.742 75.8442C24.742 76.344 24.9476 76.7114 25.3607 76.9483C25.8028 77.2325 26.5869 77.3741 27.7112 77.3741C29.4803 77.3741 30.3654 76.9761 30.3654 76.1709C30.3654 75.7053 30.0691 75.3842 29.4757 75.2083C29.3542 75.1741 28.6401 75.0852 27.3289 74.9307L24.8785 74.5419C24.1803 74.2921 23.8317 73.8432 23.8317 73.1944C23.8317 72.5595 24.1439 72.0865 24.7682 71.7765C25.0766 71.6469 25.4616 71.5488 25.9243 71.4775C26.3869 71.4062 26.9224 71.3711 27.5317 71.3711C29.9682 71.3711 31.1766 72.0578 31.1766 73.4322H30.0551C30.0551 72.4669 29.199 71.9838 27.485 71.9838C26.614 71.9838 25.9635 72.0819 25.5355 72.2772C25.1074 72.4725 24.8934 72.7733 24.8934 73.1786C24.8934 73.5489 25.1738 73.8302 25.7607 73.9987C26.099 74.0866 26.8766 74.1884 28.0934 74.3022C29.1831 74.3902 29.9299 74.5151 30.3364 74.6771C31.1102 74.9473 31.4972 75.4064 31.4972 76.0543L31.5065 76.0709ZM36.1308 77.7906L35.6514 77.8507L35.3523 77.8711C34.5859 77.8711 34.0327 77.7711 33.6934 77.5712C33.3542 77.3713 33.185 77.0215 33.185 76.5207V72.217H31.7878V71.5839H33.1738L33.185 69.5506H34.2598V71.5839H36.1289V72.2272L34.2598 72.2179V76.405C34.2598 76.717 34.3514 76.9326 34.5364 77.0511C34.7215 77.1695 35.0504 77.2288 35.5224 77.2288C35.5897 77.2352 35.6654 77.2334 35.7467 77.2223C35.828 77.2112 35.9523 77.1853 36.1187 77.1464L36.1299 77.7924L36.1308 77.7906ZM43.5579 76.3634C43.2548 76.5844 42.9156 76.7522 42.5551 76.8595C42.1794 76.9742 41.7476 77.0316 41.2598 77.0316C39.014 77.0316 37.8915 76.1986 37.8915 74.5327C37.8915 73.7571 38.1785 73.149 38.7532 72.7112C39.328 72.2735 40.1364 72.0634 41.1803 72.0634C42.2317 72.0634 43.0308 72.2855 43.5729 72.7261C44.1149 73.1666 44.3897 73.7599 44.3897 74.5031C44.3897 75.3129 44.1121 75.9377 43.556 76.3754L43.5579 76.3634ZM45.4626 71.5997H44.3925L44.3813 72.664C43.9084 72.2318 43.5701 71.9588 43.3672 71.844C42.7663 71.5479 41.9887 71.3998 41.0345 71.3998C39.6364 71.3998 38.5701 71.6774 37.8336 72.2605C37.1345 72.7881 36.785 73.5498 36.785 74.5484C36.785 75.0408 36.8738 75.4814 37.0504 75.8692C37.2249 76.2544 37.4899 76.5927 37.8233 76.8558C38.571 77.4092 39.6028 77.686 40.9504 77.686C42.5672 77.686 43.7168 77.288 44.3934 76.4828V77.5934C44.3934 78.2968 44.1467 78.8392 43.6458 79.2242C43.1448 79.6092 42.3439 79.8017 41.2159 79.8017C40.156 79.8017 39.4009 79.6703 38.9504 79.4084C38.6121 79.2066 38.3897 78.8568 38.2514 78.3598H37.1467C37.2682 79.0539 37.5953 79.5574 38.128 79.8684C38.7448 80.2256 39.785 80.4052 41.2514 80.4052C44.0551 80.4052 45.457 79.4686 45.457 77.5953V71.5793L45.4626 71.5997ZM51.2729 72.2244C50.9747 72.1793 50.6736 72.1558 50.3719 72.1541C48.6074 72.1541 47.7252 73.0241 47.7252 74.7641V77.7887H46.6635L46.6523 71.5997L47.7271 71.6089V72.7131H47.7831C47.947 72.2967 48.2489 71.9479 48.6392 71.7237C49.0672 71.5062 49.7046 71.397 50.5551 71.397H51.2747V72.2253L51.2729 72.2244ZM52.271 74.2921C52.4065 73.5886 52.7102 73.0444 53.1831 72.6585C53.4915 72.4364 53.8401 72.2679 54.2299 72.1559C54.6196 72.0439 55.0598 71.9893 55.5383 71.9893C56.4915 71.9893 57.271 72.2244 57.8747 72.6946C58.4785 73.1648 58.7813 73.6969 58.7813 74.293H52.2579L52.271 74.2921ZM58.8859 72.3836C58.5102 72.0449 58.0448 71.794 57.4878 71.6321C56.9308 71.4701 56.2729 71.3877 55.5373 71.3877C54.1355 71.3877 53.0672 71.6783 52.3 72.2596C51.5327 72.8408 51.1504 73.6312 51.1504 74.6317C51.1504 75.6322 51.5187 76.4254 52.2551 77.0131C53.0514 77.661 54.1757 77.9849 55.6261 77.9849C56.2056 77.9849 56.7401 77.9257 57.2336 77.7998C57.7271 77.6739 58.156 77.5157 58.5233 77.3C59.1701 76.8835 59.5794 76.368 59.7523 75.7562H58.5915C58.1934 76.8141 57.2018 77.3435 55.6168 77.3435C54.4972 77.3435 53.6355 77.0844 53.0373 76.5661C52.5187 76.1218 52.2598 75.548 52.2598 74.8418H59.9233C59.9233 73.7923 59.5813 72.9685 58.8972 72.3725L58.8859 72.3836Z" fill="#231F20"/>
<path d="M71.2693 75.2502C71.2693 77.0874 69.6207 78.0064 66.3216 78.0064C64.345 78.0064 62.9029 77.6899 61.9945 77.0569C61.2506 76.5367 60.8786 75.7426 60.8786 74.6764H62.2057C62.2057 76.3914 63.5767 77.2494 66.3207 77.2494C67.6356 77.2494 68.587 77.0643 69.1739 76.7218C69.6693 76.4118 69.9179 75.9259 69.9179 75.2641C69.9179 74.6097 69.5795 74.1507 68.9029 73.8878C68.5291 73.7462 67.5833 73.5676 66.0954 73.351C64.2235 73.0946 63.0113 72.8383 62.4534 72.5828C61.6496 72.2052 61.2384 71.5647 61.2384 70.6596C61.2384 69.8266 61.5805 69.1787 62.2646 68.777C63.001 68.3254 64.2646 68.0986 66.0534 68.0986C69.287 68.0986 70.902 69.063 70.902 70.9928H69.5627C69.5627 69.5471 68.3627 68.8252 65.9627 68.8252C64.759 68.8252 63.8786 68.9705 63.3216 69.2602C62.7945 69.5712 62.5319 70.0265 62.5319 70.6281C62.5319 71.2575 62.8702 71.699 63.5468 71.9553C63.9076 72.1034 64.9674 72.3098 66.7263 72.5736C68.3805 72.7957 69.4964 73.0567 70.0758 73.3538C70.8655 73.7185 71.2599 74.3506 71.2599 75.2493L71.2693 75.2502ZM82.0543 76.1878C81.5456 76.551 80.9765 76.8232 80.373 76.9921C79.7487 77.1707 79.0487 77.2697 78.2739 77.2697C76.6851 77.2697 75.4169 76.8875 74.4422 76.1221C73.4674 75.3567 72.9908 74.3265 72.9908 73.0521C72.9908 71.7239 73.4739 70.6892 74.4394 69.9469C75.4048 69.2046 76.687 68.8344 78.2823 68.8344C79.8992 68.8344 81.1721 69.2231 82.0973 69.9978C82.5596 70.3483 82.9312 70.8025 83.1814 71.3232C83.4244 71.8294 83.5309 72.4061 83.5309 73.0539C83.5309 74.3756 83.0422 75.4205 82.0637 76.1887L82.0543 76.1878ZM82.7693 76.8144C83.4609 76.3757 83.973 75.8444 84.3038 75.2206C84.6347 74.5968 84.801 73.8758 84.801 73.0595C84.801 71.5953 84.259 70.4217 83.1767 69.5369C82.5973 69.051 81.8982 68.69 81.0795 68.454C80.2608 68.218 79.3225 68.0996 78.2721 68.0996C76.2272 68.0996 74.6225 68.5438 73.4571 69.436C72.2917 70.3282 71.7094 71.5342 71.7094 73.0595C71.6914 73.7545 71.8422 74.4435 72.1491 75.0688C72.4559 75.694 72.91 76.2371 73.473 76.6524C74.6478 77.5631 76.2562 78.0185 78.2926 78.0185C78.9902 78.0258 79.6871 77.9772 80.3767 77.8732C80.9693 77.776 81.4739 77.6279 81.888 77.4271L83.8506 78.6488L84.6693 77.9731L82.7702 76.8162L82.7693 76.8144ZM94.7356 77.7769H85.6637V68.3365L86.9104 68.3161V76.9884H94.7468L94.7356 77.7769Z" fill="#367FAF"/>
<path d="M63.1272 45.957C63.4843 43.0092 63.3777 42.577 65.5945 43.0545L66.1572 43.1036C67.8618 43.1804 70.0824 42.8324 71.402 42.229C74.2226 40.9332 75.8945 38.7693 73.1142 39.3376C66.7712 40.6334 66.3347 38.5065 66.3347 38.5065C73.0329 28.6644 75.8329 16.1697 73.416 13.1099C66.8235 4.76807 55.4132 8.71361 55.2216 8.81542L55.1609 8.82652C53.9067 8.56923 52.5048 8.41559 50.9291 8.38967C48.06 8.3434 45.8805 9.13473 44.2282 10.3759C44.2282 10.3759 23.873 2.07014 24.8188 20.8214C25.0207 24.8012 30.5927 51.0049 37.2375 43.0925C39.6674 40.1993 42.0132 37.7522 42.0132 37.7522C43.1786 38.5204 44.574 38.9091 46.0375 38.7703L46.1497 38.6749C46.1142 39.034 46.131 39.3857 46.1945 39.8013C44.4824 41.6959 44.9861 42.0281 41.5628 42.726C38.1001 43.4331 40.1347 44.6909 41.4628 45.0194C43.073 45.4174 46.7992 45.982 49.3151 42.4927L49.2151 42.8907C49.888 43.4229 49.8413 46.715 49.9366 49.0668C50.0319 51.4186 50.1908 53.6139 50.6843 54.9088C51.1777 56.2036 51.7403 59.5364 56.2385 58.5813C59.9983 57.7835 62.8721 56.6349 63.1357 45.9533" fill="#231F20"/>
<path d="M63.1272 45.957C63.4843 43.0092 63.3777 42.577 65.5945 43.0545L66.1572 43.1036C67.8618 43.1804 70.0824 42.8324 71.402 42.229C74.2226 40.9332 75.8945 38.7693 73.1142 39.3376C66.7712 40.6334 66.3347 38.5065 66.3347 38.5065C73.0329 28.6644 75.8329 16.1697 73.416 13.1099C66.8235 4.76807 55.4132 8.71361 55.2216 8.81542L55.1609 8.82652C53.9067 8.56923 52.5048 8.41559 50.9291 8.38967C48.06 8.3434 45.8805 9.13473 44.2282 10.3759C44.2282 10.3759 23.873 2.07014 24.8188 20.8214C25.0207 24.8012 30.5927 51.0049 37.2375 43.0925C39.6674 40.1993 42.0132 37.7522 42.0132 37.7522C43.1786 38.5204 44.574 38.9091 46.0375 38.7703L46.1497 38.6749C46.1142 39.034 46.131 39.3857 46.1945 39.8013C44.4824 41.6959 44.9861 42.0281 41.5628 42.726C38.1001 43.4331 40.1347 44.6909 41.4628 45.0194C43.073 45.4174 46.7992 45.982 49.3151 42.4927L49.2151 42.8907C49.888 43.4229 49.8413 46.715 49.9366 49.0668C50.0319 51.4186 50.1908 53.6139 50.6843 54.9088C51.1777 56.2036 51.7403 59.5364 56.2385 58.5813C59.9983 57.7835 62.8721 56.6349 63.1357 45.9533" stroke="#231F20" stroke-width="5.046"/>
<path d="M73.1148 39.3378C66.7709 40.6335 66.3344 38.5066 66.3344 38.5066C73.0326 28.6636 75.8326 16.1689 73.4167 13.11C66.8242 4.76914 55.4129 8.71376 55.2223 8.81557L55.1606 8.82667C53.9064 8.56938 52.5045 8.41574 50.927 8.38982C48.0578 8.34355 45.8802 9.13488 44.226 10.376C44.226 10.376 23.869 2.07122 24.8148 20.8216C25.0157 24.8014 30.5877 51.005 37.2335 43.0936C39.6634 40.2004 41.9998 37.7532 41.9998 37.7532C43.1653 38.5214 44.5606 38.9102 46.0241 38.7713L46.1382 38.676C46.1027 39.0351 46.1195 39.3868 46.1849 39.8024C44.4727 41.6969 44.9756 42.0292 41.5531 42.7271C38.0896 43.4342 40.1232 44.692 41.4522 45.0205C43.0625 45.4185 46.7886 45.9831 49.3045 42.4938L49.2045 42.8918C49.8756 43.424 50.3466 46.3533 50.2671 49.0077C50.1877 51.6621 50.1363 53.4854 50.6643 54.9098C51.1924 56.3342 51.7204 59.5375 56.2195 58.5823C59.9793 57.7845 61.927 55.7169 62.198 52.2684C62.3905 49.8157 62.8242 50.1785 62.8522 47.9869L63.2017 46.9503C63.6036 43.6276 63.2653 42.554 65.5821 43.0538L66.1447 43.1028C67.8494 43.1796 70.0793 42.8316 71.3905 42.2282C74.2101 40.9324 75.883 38.7686 73.1027 39.3368L73.1148 39.3378Z" fill="#417BA2"/>
<path d="M55.2001 8.7341C54.4945 8.95345 66.5318 4.3767 73.372 13.0323C75.7879 16.0902 72.9982 28.5849 66.2898 38.4289M49.5889 41.2434C49.4141 47.4278 49.6328 53.6455 50.2431 55.169C50.8533 56.6924 52.1627 59.6263 56.6636 58.6721C60.4225 57.8743 61.7907 56.3305 62.3832 52.9208C62.8206 50.4219 63.6636 43.4471 63.7711 42.0199L49.5889 41.2434ZM44.2057 10.239C44.2057 10.239 23.8346 2.00178 24.7823 20.7438C24.9842 24.7236 30.5561 50.9282 37.2122 43.0158C39.6421 40.1226 41.8384 37.8532 41.8384 37.8532L44.2057 10.239Z" stroke="white" stroke-width="1.682" stroke-linecap="round" stroke-linejoin="round"/>
<path d="M66.2898 38.4279C66.2898 38.4279 66.7263 40.5567 73.0702 39.2591C75.8496 38.6908 74.1767 40.8547 71.358 42.1514C69.044 43.2157 63.8571 43.4869 63.7721 42.0181C63.5534 38.2271 66.501 39.3785 66.2898 38.4289C66.0973 37.5737 64.7786 36.7333 63.9066 34.6397C63.145 32.8118 53.4646 18.7946 66.5917 20.8771C67.073 20.779 63.1683 8.51197 50.8833 8.31298C38.5982 8.11399 39.0141 23.2714 39.0141 23.2714" stroke="white" stroke-width="1.682" stroke-linecap="round" stroke-linejoin="bevel"/>
<path d="M46.1522 39.7257C44.4401 41.6203 44.9438 41.9525 41.5204 42.6504C38.0578 43.3575 40.0924 44.6153 41.4195 44.9439C43.0298 45.3418 46.7559 45.9083 49.2718 42.4171C50.0382 41.3546 49.2672 39.6591 48.2158 39.2259C47.7073 39.0177 47.027 38.7557 46.1522 39.7257Z" stroke="white" stroke-width="1.682" stroke-linejoin="round"/>
<path d="M46.0392 39.6922C45.8673 38.5788 46.4093 37.2535 46.9897 35.7032C47.8626 33.3773 49.8776 31.0496 48.2654 23.6713C47.0645 18.1718 39.0093 22.5264 39.0037 23.2733C38.9981 24.0202 39.3776 27.0532 38.8691 30.585C38.2177 35.1942 41.8318 39.0944 45.9925 38.6954" stroke="white" stroke-width="1.682" stroke-linecap="round" stroke-linejoin="round"/>
<path d="M44.1234 23.1591C44.086 23.4137 44.5944 24.0939 45.2542 24.1846C45.914 24.2753 46.4785 23.745 46.5159 23.4905C46.5533 23.236 46.0449 22.9555 45.3851 22.8639C44.7253 22.7723 44.1589 22.9056 44.1234 23.1601V23.1591Z" fill="white" stroke="white" stroke-width="0.561"/>
<path d="M64.2291 22.6401C64.2646 22.8946 63.758 23.5656 63.0982 23.6656C62.4384 23.7656 61.8739 23.226 61.8365 22.9714C61.7991 22.7169 62.3085 22.4365 62.9692 22.3449C63.63 22.2532 64.1935 22.3865 64.2309 22.641L64.2291 22.6401Z" fill="white" stroke="white" stroke-width="0.28"/>
<path d="M66.5916 20.8774C66.7001 22.8747 66.1571 24.2371 66.0888 26.3631C65.986 29.4543 67.5767 32.9917 65.1823 36.5347" stroke="white" stroke-width="1.682" stroke-linecap="round" stroke-linejoin="round"/>
</svg>
