<svg width="120" height="40" viewBox="0 0 120 40" fill="none" xmlns="http://www.w3.org/2000/svg">
<path d="M65.5551 12.8775C65.5551 13.8066 64.7917 14.6359 63.7963 14.6359C63.0329 14.6359 62.3694 14.8351 61.8053 15.2664C61.175 15.6649 60.6771 16.2287 60.2791 16.859C59.4827 17.9209 59.0849 19.1815 58.9188 19.6456V25.9496C58.9188 26.9119 58.0895 27.7083 57.094 27.7083C56.1317 27.7083 55.3354 26.9119 55.3354 25.9496V12.8775C55.3354 11.9152 56.1317 11.1522 57.094 11.1522C58.0895 11.1522 58.9188 11.9155 58.9188 12.8775V13.1098C59.1178 12.8775 59.3833 12.6123 59.6157 12.4462C60.7108 11.7165 62.1373 11.1191 63.7963 11.1522C64.7917 11.1522 65.5551 11.9155 65.5551 12.8775Z" fill="#636466"/>
<path d="M64.582 19.4136C64.6154 14.9014 68.1325 11.1191 72.678 11.1191C76.9916 11.1191 80.409 14.3374 80.6748 18.8162V18.982C80.6748 19.0485 80.6748 19.2141 80.6417 19.2806C80.5418 20.077 79.8452 20.608 78.916 20.608H68.3646C68.5305 21.3713 68.8954 22.2336 69.4928 22.7977C70.1897 23.5941 71.5169 24.1908 72.678 24.2904C73.8724 24.3897 75.2992 24.0914 76.1288 23.4611C76.8254 22.7309 78.186 22.8308 78.6174 23.3612C79.0487 23.8262 79.3805 24.8216 78.6174 25.5179C76.9913 27.0105 75.0338 27.7076 72.6777 27.7076C68.1325 27.675 64.6154 23.9258 64.582 19.4136ZM68.1988 17.7879H77.5888C77.257 16.4609 75.5647 14.5035 72.678 14.2711C69.858 14.4036 68.4643 16.4277 68.1988 17.7879Z" fill="#636466"/>
<path d="M97.5784 25.917C97.5784 26.8793 96.7819 27.7088 95.7865 27.7088C94.8906 27.7088 94.194 27.0785 94.0279 26.2821C92.7672 27.1445 91.1745 27.7088 89.5153 27.7088C85.0361 27.7088 81.4525 23.9265 81.4525 19.4474C81.4525 14.9019 85.0361 11.1196 89.5153 11.1196C91.1414 11.1196 92.7338 11.6503 93.9614 12.5129V6.27567C93.9614 5.31341 94.7579 4.48389 95.7862 4.48389C96.7817 4.48389 97.5782 5.31341 97.5782 6.27567V19.4141V19.4474V25.917H97.5784ZM89.5156 14.736C88.3211 14.736 87.2261 15.2336 86.397 16.0962C85.5674 16.9257 85.0695 18.1198 85.0695 19.4472C85.0695 20.7078 85.5671 21.9021 86.397 22.7316C87.2261 23.5945 88.3211 24.0921 89.5156 24.0921C90.7432 24.0921 91.8051 23.5945 92.6345 22.7316C93.4638 21.9024 93.9617 20.7078 93.9617 19.4472C93.9617 18.1198 93.4641 16.9257 92.6345 16.0962C91.8051 15.2336 90.7432 14.736 89.5156 14.736Z" fill="#636466"/>
<path d="M103.892 6.97246C103.892 7.96784 103.129 8.79711 102.101 8.79711C101.105 8.79711 100.309 7.96784 100.309 6.97246V6.27567C100.309 5.28029 101.105 4.48389 102.101 4.48389C103.129 4.48389 103.892 5.28029 103.892 6.27567V6.97246ZM103.892 12.9776V25.917C103.892 26.9124 103.129 27.7088 102.101 27.7088C101.105 27.7088 100.309 26.9124 100.309 25.917V12.9776C100.309 11.916 101.105 11.1527 102.101 11.1527C103.13 11.1527 103.892 11.916 103.892 12.9776Z" fill="#636466"/>
<path d="M106.172 22.9618C106.77 22.1659 107.931 22.0663 108.661 22.6966C109.524 23.4268 111.017 24.1893 112.311 24.1564C113.207 24.1564 114.036 23.8581 114.567 23.5261C115.032 23.1279 115.164 22.7965 115.164 22.5308C115.164 22.3649 115.131 22.2987 115.065 22.1988C115.032 22.0994 114.899 21.9667 114.633 21.8011C114.169 21.4691 113.173 21.1041 111.979 20.872H111.946C110.917 20.673 109.921 20.4075 109.059 20.0091C108.163 19.578 107.367 18.9808 106.769 18.0851C106.405 17.4879 106.206 16.758 106.206 15.995C106.206 14.4686 107.068 13.1747 108.163 12.3451C109.324 11.549 110.718 11.1177 112.245 11.1177C114.534 11.1177 116.16 12.2127 117.222 12.9423C118.018 13.4733 118.25 14.5683 117.752 15.3973C117.222 16.1937 116.127 16.426 115.297 15.862C114.236 15.1654 113.306 14.6342 112.245 14.6342C111.415 14.6342 110.685 14.8997 110.254 15.2314C109.822 15.5303 109.723 15.8288 109.723 15.9947C109.723 16.1272 109.723 16.1606 109.789 16.2599C109.823 16.3262 109.922 16.4589 110.154 16.5916C110.586 16.8902 111.448 17.1888 112.577 17.388L112.61 17.4214H112.643C113.738 17.6201 114.767 17.919 115.729 18.3834C116.625 18.7816 117.521 19.4119 118.085 20.3408C118.483 21.0042 118.715 21.7675 118.715 22.5305C118.715 24.1562 117.819 25.5166 116.625 26.379C115.43 27.2083 113.937 27.7064 112.311 27.7064C109.723 27.6733 107.732 26.4789 106.405 25.4173C105.675 24.8201 105.576 23.6917 106.172 22.9618Z" fill="#636466"/>
<path d="M43.2502 30.1484C40.9193 31.3633 28.8443 36.3276 26.2736 37.6676C23.7028 39.008 22.2747 38.9949 20.244 38.0242C18.2132 37.0534 5.36329 31.8634 3.04857 30.7571C1.8916 30.2041 1.28333 29.7376 1.28333 29.2968V24.8821C1.28333 24.8821 18.0122 21.2405 20.7131 20.2718C23.4137 19.3029 24.3507 19.268 26.6489 20.1098C28.9475 20.9517 42.6899 23.431 44.9615 24.2629C44.9615 24.2629 44.9605 28.2056 44.9605 28.6149C44.9608 29.0513 44.4367 29.5302 43.2502 30.1484Z" fill="#A41E11"/>
<path d="M43.2501 25.7327C40.9192 26.9471 28.8442 31.912 26.2735 33.2519C23.7028 34.5923 22.2747 34.5792 20.2439 33.6085C18.2129 32.6383 5.36323 27.4472 3.04851 26.3414C0.733792 25.2351 0.685262 24.4736 2.95915 23.5835C5.23279 22.6929 18.0121 17.6795 20.7133 16.7106C23.4139 15.7421 24.3508 15.7067 26.6491 16.5488C28.9477 17.3907 40.9506 22.1679 43.2219 22.9997C45.4937 23.8323 45.581 24.5178 43.2501 25.7327Z" fill="#D82C20"/>
<path d="M43.2502 22.9491C40.9193 24.164 28.8443 29.1283 26.2736 30.4688C23.7028 31.8087 22.2747 31.7956 20.244 30.8249C18.213 29.8546 5.36329 24.6641 3.04857 23.5578C1.8916 23.0048 1.28333 22.5388 1.28333 22.098V17.6828C1.28333 17.6828 18.0122 14.0415 20.7131 13.0725C23.4137 12.1038 24.3507 12.0687 26.6489 12.9105C28.9475 13.7524 42.6899 16.2312 44.9615 17.0633C44.9615 17.0633 44.9605 21.0061 44.9605 21.4158C44.9608 21.852 44.4367 22.3309 43.2502 22.9491Z" fill="#A41E11"/>
<path d="M43.2501 18.5334C40.9192 19.7483 28.8442 24.7126 26.2735 26.053C23.7028 27.393 22.2747 27.3799 20.2439 26.4091C18.2129 25.4389 5.36323 20.2481 3.04851 19.1421C0.733792 18.036 0.685262 17.2746 2.95915 16.3839C5.23279 15.4938 18.0121 10.4802 20.7133 9.51148C23.4139 8.5428 24.3508 8.50762 26.6491 9.34947C28.9477 10.1913 40.9506 14.9683 43.2219 15.8004C45.4937 16.6327 45.581 17.3185 43.2501 18.5334Z" fill="#D82C20"/>
<path d="M43.2502 15.4833C40.9193 16.6982 28.8443 21.6628 26.2736 23.0033C23.7028 24.3432 22.2747 24.3301 20.244 23.3594C18.213 22.3891 5.36329 17.1984 3.04857 16.0923C1.8916 15.5393 1.28333 15.0731 1.28333 14.6325V10.2173C1.28333 10.2173 18.0122 6.57596 20.7131 5.60727C23.4137 4.63833 24.3507 4.60342 26.6489 5.44527C28.9475 6.28712 42.6899 8.76596 44.9615 9.59806C44.9615 9.59806 44.9605 13.5408 44.9605 13.9503C44.9608 14.3863 44.4367 14.8651 43.2502 15.4833Z" fill="#A41E11"/>
<path d="M43.2501 11.0673C40.9192 12.2822 28.8442 17.2468 26.2735 18.587C23.7028 19.927 22.2747 19.9139 20.2439 18.9434C18.2132 17.9729 5.36323 12.7824 3.04851 11.6763C0.733792 10.5703 0.685262 9.80853 2.95915 8.91815C5.23279 8.02778 18.0121 3.01465 20.7133 2.04571C23.4139 1.07677 24.3508 1.04186 26.6491 1.88397C28.9477 2.72582 40.9506 7.50274 43.2219 8.33484C45.4937 9.16668 45.581 9.85269 43.2501 11.0673Z" fill="#D82C20"/>
<path d="M28.8456 6.81558L25.0609 7.20839L24.2136 9.2469L22.8451 6.97219L18.475 6.57938L21.7358 5.40351L20.7576 3.59863L23.8105 4.79247L26.6888 3.85024L25.9108 5.71673L28.8456 6.81558Z" fill="white"/>
<path d="M23.9878 16.7053L16.9243 13.7759L27.0458 12.2227L23.9878 16.7053Z" fill="white"/>
<path d="M14.1949 12.1423C17.1826 12.1423 19.6046 11.2035 19.6046 10.0455C19.6046 8.88749 17.1826 7.94873 14.1949 7.94873C11.2072 7.94873 8.78516 8.88749 8.78516 10.0455C8.78516 11.2035 11.2072 12.1423 14.1949 12.1423Z" fill="white"/>
<path d="M33.3186 7.37305L39.3088 9.74018L33.3237 12.1048L33.3186 7.37305Z" fill="#7A0C00"/>
<path d="M26.6915 9.99436L33.3185 7.37305L33.3237 12.1048L32.6741 12.3589L26.6915 9.99436Z" fill="#AD2115"/>
</svg>
