<svg width="120" height="82" viewBox="0 0 120 82" fill="none" xmlns="http://www.w3.org/2000/svg">
<g clip-path="url(#clip0_531:1646)">
<path d="M28.9036 74.27H24.2626C24.0985 66.4462 23.6465 59.0908 22.9075 52.1984H22.8662L15.8001 74.27H12.2667L5.24274 52.1984H5.20238C4.68132 58.8158 4.35309 66.173 4.21677 74.27H-0.0135498C0.259085 64.4237 0.944258 55.1927 2.03928 46.5762H7.79151L14.4863 66.9254H14.5276L21.2636 46.5762H26.7674C27.9727 56.6688 28.6848 65.9007 28.9036 74.27ZM49.0311 53.8375C47.1415 64.0789 44.6483 71.5202 41.5542 76.1653C39.1436 79.7409 36.5024 81.5305 33.6263 81.5305C32.8595 81.5305 31.9134 81.2994 30.7924 80.8408V78.3714C31.3403 78.4502 31.9833 78.495 32.7223 78.495C34.0658 78.495 35.1455 78.126 35.9688 77.3861C36.9535 76.4851 37.4459 75.472 37.4459 74.3515C37.4459 73.583 37.062 72.012 36.2962 69.633L31.2031 53.8366H35.7626L39.418 65.6508C40.2395 68.3334 40.5821 70.2063 40.4449 71.273C42.4439 65.941 43.8402 60.1271 44.6357 53.8357H49.0311V53.8375Z" fill="#5D87A1"/>
<path d="M110.809 74.2695H97.6256V46.5756H102.06V70.8605H110.809V74.2695ZM94.1746 74.9386L89.0771 72.4261C89.5291 72.0553 89.9613 71.6541 90.3506 71.1892C92.5173 68.6472 93.598 64.888 93.598 59.9089C93.598 50.7468 89.9981 46.1636 82.7957 46.1636C79.264 46.1636 76.509 47.3262 74.5387 49.6523C72.3737 52.1961 71.2931 55.9418 71.2931 60.8941C71.2931 65.7622 72.2509 69.3333 74.1674 71.5985C75.9207 73.6505 78.5636 74.6779 82.098 74.6779C83.4163 74.6779 84.6261 74.5167 85.7283 74.1915L92.3648 78.0502L94.1746 74.9386ZM77.6614 68.7278C76.5386 66.9239 75.9772 64.0272 75.9772 60.0334C75.9772 53.0604 78.0982 49.5699 82.3446 49.5699C84.5643 49.5699 86.1911 50.4047 87.2314 52.0707C88.3524 53.8773 88.9165 56.748 88.9165 60.6863C88.9165 67.7166 86.7938 71.2322 82.55 71.2322C80.3295 71.2331 78.7026 70.401 77.6614 68.7278ZM69.3604 66.5934C69.3604 68.9419 68.4977 70.8685 66.774 72.3778C65.0485 73.8807 62.7347 74.634 59.8353 74.634C57.1233 74.634 54.4938 73.7688 51.9486 72.0473L53.1405 69.6692C55.3305 70.7646 57.3134 71.3092 59.0936 71.3092C60.7644 71.3092 62.0702 70.9393 63.0172 70.2057C63.9633 69.4695 64.5274 68.4367 64.5274 67.1308C64.5274 65.4854 63.3786 64.0792 61.2711 62.9014C59.3277 61.8355 55.4408 59.607 55.4408 59.607C53.3342 58.0736 52.2795 56.4273 52.2795 53.7151C52.2795 51.4705 53.066 49.6586 54.64 48.2801C56.2157 46.8962 58.2488 46.2066 60.7411 46.2066C63.3149 46.2066 65.6548 46.8954 67.7623 48.2586L66.6933 50.6375C64.8907 49.8726 63.1114 49.4902 61.3563 49.4902C59.9348 49.4902 58.8371 49.8314 58.0739 50.5166C57.3044 51.1992 56.83 52.0724 56.83 53.1437C56.83 54.781 58.0031 56.2052 60.168 57.4063C62.1374 58.474 66.1211 60.7409 66.1211 60.7409C68.2815 62.2717 69.3604 63.9027 69.3604 66.5934Z" fill="#F8981D"/>
<path d="M116.376 37.3003C113.694 37.2323 111.618 37.5019 109.876 38.2381C109.373 38.4388 108.573 38.4388 108.503 39.0738C108.775 39.3425 108.806 39.776 109.042 40.1469C109.444 40.8159 110.144 41.7161 110.783 42.1854C111.486 42.7229 112.191 43.2549 112.929 43.7233C114.233 44.5286 115.71 44.997 116.98 45.7995C117.719 46.2662 118.455 46.8699 119.196 47.3724C119.56 47.6402 119.793 48.0746 120.266 48.2421V48.14C120.029 47.839 119.961 47.4037 119.729 47.0687L118.723 46.0996C117.751 44.7955 116.543 43.6571 115.24 42.722C114.167 41.9839 111.821 40.9807 111.386 39.7465L111.318 39.6784C112.055 39.6094 112.929 39.3425 113.63 39.1374C114.77 38.8373 115.809 38.9054 116.979 38.6054C117.517 38.471 118.05 38.3026 118.59 38.1369V37.8351C117.984 37.2323 117.552 36.4315 116.914 35.8619C115.208 34.3903 113.329 32.9509 111.386 31.7462C110.346 31.0753 109.008 30.6436 107.9 30.073C107.501 29.8715 106.828 29.7721 106.593 29.4371C105.993 28.7008 105.654 27.7317 105.219 26.8602C104.25 25.0213 103.309 22.9809 102.473 21.0364C101.869 19.7323 101.501 18.4299 100.764 17.2234C97.3113 11.5358 93.5617 8.09099 87.7987 4.70976C86.5602 4.00574 85.0867 3.70569 83.5128 3.33666L80.999 3.2041C80.4627 2.96943 79.9255 2.33259 79.4573 2.03164C77.5453 0.827833 72.6226 -1.78131 71.2164 1.66351C70.3106 3.84094 72.5563 5.98164 73.3275 7.08602C73.897 7.85273 74.6351 8.72513 75.0333 9.59575C75.2692 10.1645 75.3355 10.7682 75.5714 11.3692C76.1077 12.8417 76.609 14.4799 77.3139 15.8539C77.6816 16.5544 78.0825 17.2906 78.5524 17.9248C78.8215 18.2956 79.2896 18.4595 79.3919 19.0641C78.9246 19.7305 78.8878 20.7363 78.6197 21.5729C77.4144 25.3536 77.8852 30.0372 79.5936 32.8156C80.1282 33.6522 81.4034 35.4937 83.1092 34.7879C84.6195 34.186 84.2849 32.2791 84.719 30.6068C84.8185 30.2029 84.7531 29.9378 84.954 29.6726V29.738C85.4212 30.674 85.8929 31.576 86.3261 32.5147C87.3655 34.1529 89.1753 35.8601 90.6829 36.9949C91.4855 37.6004 92.1214 38.6358 93.1267 39.0057V38.9054H93.0604C92.8568 38.6054 92.559 38.471 92.2918 38.2381C91.6873 37.6353 91.0183 36.8991 90.5493 36.2309C89.1448 34.3562 87.9018 32.2809 86.7987 30.1393C86.2588 29.1003 85.7934 27.9646 85.3584 26.9274C85.1557 26.527 85.1558 25.9233 84.8194 25.7218C84.3154 26.4571 83.5809 27.094 83.2132 27.995C82.5756 29.4362 82.5092 31.2088 82.2725 33.0521L82.1406 33.1166C81.0734 32.8488 80.7021 31.7462 80.2968 30.8102C79.2932 28.433 79.1246 24.6174 79.9954 21.8748C80.2286 21.1734 81.2375 18.9647 80.8349 18.2965C80.6331 17.6561 79.9622 17.2915 79.5945 16.7872C79.1623 16.1531 78.6888 15.3506 78.3874 14.6465C77.5839 12.7737 77.1794 10.6983 76.314 8.82635C75.9095 7.95395 75.2073 7.05109 74.6387 6.24766C74.0002 5.3448 73.2979 4.70886 72.793 3.63851C72.6262 3.27038 72.3922 2.66848 72.6603 2.2681C72.7258 1.9994 72.8621 1.89908 73.1293 1.8319C73.5634 1.46556 74.8037 1.93132 75.2387 2.13285C76.4808 2.63444 77.5193 3.10289 78.556 3.80511C79.0251 4.14099 79.5282 4.77693 80.13 4.94442H80.8349C81.9048 5.1773 83.111 5.00892 84.1181 5.31166C85.8929 5.88132 87.5009 6.717 88.943 7.61896C93.3312 10.3983 96.9499 14.3474 99.3928 19.0641C99.7937 19.8326 99.9641 20.5366 100.33 21.3382C101.036 22.9792 101.908 24.6523 102.609 26.2583C103.313 27.8302 103.984 29.4353 104.989 30.7412C105.49 31.4434 107.505 31.8116 108.408 32.1797C109.076 32.4797 110.116 32.7467 110.719 33.1148C111.859 33.8161 112.994 34.6213 114.066 35.3925C114.599 35.7938 116.276 36.6304 116.376 37.3003ZM82.2016 8.22266C81.7391 8.21785 81.278 8.27448 80.8304 8.39104V8.45822H80.8949C81.1649 8.99295 81.6339 9.36376 81.9684 9.83042C82.2384 10.3669 82.4725 10.899 82.737 11.4346L82.8016 11.3683C83.2742 11.0342 83.5092 10.4986 83.5092 9.69517C83.3056 9.4587 83.2742 9.22762 83.1047 8.99295C82.9074 8.65796 82.4725 8.49136 82.2016 8.22266Z" fill="#5D87A1"/>
<path d="M119.567 74.2654H120.261V70.8725H119.22L118.371 73.1879L117.448 70.8725H116.445V74.2654H117.101V71.684H117.137L118.104 74.2654H118.604L119.567 71.684V74.2654ZM113.975 74.2654H114.71V71.4475H115.671V70.8716H112.973V71.4475H113.973L113.975 74.2654Z" fill="#F8981D"/>
</g>
<defs>
<clipPath id="clip0_531:1646">
<rect width="120" height="82" fill="white"/>
</clipPath>
</defs>
</svg>
