<svg width="120" height="28" viewBox="0 0 120 28" fill="none" xmlns="http://www.w3.org/2000/svg">
<g clip-path="url(#clip0_531:1600)">
<path d="M37.1281 3.65885V2.15528H35.6881V3.65885H34.9873V0.0512053H35.7121V1.56409H37.1521V0.0512053H37.8769V3.65885H37.1281ZM40.4881 3.65885H39.9121L39.8593 3.48196C39.6155 3.63396 39.3331 3.71772 39.0433 3.72402C38.5345 3.72402 38.3137 3.39817 38.3137 2.95129C38.3137 2.42061 38.5585 2.22045 39.1297 2.22045H39.8017V1.93184C39.8017 1.64323 39.7153 1.54081 39.2689 1.54081C39.0093 1.54317 38.7505 1.56967 38.4961 1.61995L38.4001 1.12652C38.7134 1.04651 39.0361 1.00584 39.3601 1.00549C40.2385 1.00549 40.4977 1.2941 40.4977 1.93649L40.4881 3.65885ZM39.8017 2.67664H39.2833C39.0529 2.67664 38.9905 2.73716 38.9905 2.93267C38.9905 3.12818 39.0529 3.19335 39.2737 3.19335C39.4584 3.19059 39.6396 3.14426 39.8017 3.05835V2.67664ZM41.9665 3.72402C41.6408 3.71899 41.3176 3.66883 41.0065 3.57506L41.1025 3.07697C41.3732 3.14883 41.6523 3.18638 41.9329 3.18869C42.2449 3.18869 42.2881 3.12352 42.2881 2.92801C42.2881 2.7325 42.2545 2.68595 41.8081 2.5882C41.1265 2.43458 41.0449 2.27165 41.0449 1.76891C41.0449 1.26617 41.2801 1.00083 42.0817 1.00083C42.3644 1.00179 42.6461 1.03301 42.9217 1.09393L42.8545 1.61064C42.6008 1.5671 42.3441 1.5422 42.0865 1.53616C41.7841 1.53616 41.7313 1.60133 41.7313 1.7596C41.7313 1.91787 41.7313 1.98304 42.1249 2.07614C42.9073 2.267 42.9793 2.36475 42.9793 2.90008C42.9793 3.43541 42.8113 3.72402 41.9665 3.72402ZM45.1729 3.67282V1.86201C45.1729 1.72236 45.1105 1.65254 44.9473 1.65254C44.6925 1.67613 44.4447 1.74726 44.2177 1.86201V3.65885H43.5169V0L44.2177 0.102411V1.2522C44.5367 1.1002 44.885 1.01457 45.2401 1.00083C45.7201 1.00083 45.8737 1.30341 45.8737 1.76891V3.65885L45.1729 3.67282ZM46.4593 0.702909V0.0512053H47.1601V0.688944L46.4593 0.702909ZM46.4593 3.67282V1.05669H47.1601V3.65885L46.4593 3.67282ZM47.7169 1.09393C47.7169 0.442228 48.1249 0.0605154 49.0753 0.0605154C49.4244 0.0601549 49.7723 0.0992097 50.1121 0.176891L50.0305 0.75877C49.7216 0.703459 49.4086 0.672325 49.0945 0.665669C48.6145 0.665669 48.4369 0.82394 48.4369 1.20565V2.56027C48.4369 2.93732 48.5953 3.10025 49.0945 3.10025C49.4086 3.09359 49.7216 3.06246 50.0305 3.00715L50.1121 3.58903C49.7723 3.66671 49.4244 3.70576 49.0753 3.7054C48.1153 3.7054 47.7169 3.32835 47.7169 2.67199V1.09393ZM51.6625 3.72402C50.7025 3.72402 50.4481 3.23059 50.4481 2.69992V2.02959C50.4481 1.49426 50.7073 1.00549 51.6625 1.00549C52.6177 1.00549 52.8769 1.49892 52.8769 2.02959V2.68595C52.8817 3.22128 52.6225 3.72402 51.6625 3.72402ZM51.6625 1.56874C51.2881 1.56874 51.1441 1.72236 51.1441 2.03425V2.7325C51.1441 3.02577 51.2881 3.198 51.6625 3.198C52.0369 3.198 52.1809 3.04439 52.1809 2.7325V2.00632C52.1809 1.71305 52.0369 1.55943 51.6625 1.55943V1.56874ZM54.8497 1.61064C54.5939 1.71815 54.3468 1.8442 54.1105 1.9877V3.66351H53.4097V1.05669H54.0001L54.0481 1.3453C54.2769 1.20202 54.5237 1.08782 54.7825 1.00549L54.8497 1.61064ZM57.6481 2.79302C57.6693 2.91664 57.6604 3.04334 57.6222 3.16305C57.5839 3.28276 57.5174 3.39216 57.4279 3.48256C57.3385 3.57296 57.2285 3.64186 57.1067 3.68378C56.9849 3.7257 56.8547 3.73948 56.7265 3.72402C56.4767 3.72171 56.2276 3.69678 55.9825 3.64954V4.70158L55.2817 4.80399V1.07997H55.8385L55.9057 1.29875C56.1632 1.11973 56.4721 1.02366 56.7889 1.02411C57.3505 1.02411 57.6481 1.33599 57.6481 1.92718V2.79302ZM55.9777 3.08628C56.1813 3.12889 56.3887 3.15228 56.5969 3.15611C56.8513 3.15611 56.9473 3.04439 56.9473 2.80698V1.87598C56.9473 1.66185 56.8609 1.54547 56.6017 1.54547C56.372 1.55362 56.1519 1.63735 55.9777 1.78288V3.08628ZM39.2545 9.09593H34.9873V6.62411H46.4161V9.09593H42.1441V21.4457H39.2641L39.2545 9.09593Z" fill="black"/>
<path d="M49.0511 19.444C50.2102 19.4383 51.3619 19.2657 52.4687 18.9319L52.9055 20.9801C51.5879 21.4406 50.1973 21.6737 48.7967 21.6691C45.2879 21.6691 44.0687 20.091 44.0687 17.4796V14.6167C44.0687 12.3264 45.1247 10.39 48.7055 10.39C52.2863 10.39 53.0879 12.4149 53.0879 14.7517V17.0792H46.8479V17.6378C46.8719 18.9319 47.3519 19.444 49.0511 19.444ZM46.8719 14.896H50.4287V14.3467C50.4287 13.3226 50.1071 12.6104 48.7295 12.6104C47.3519 12.6104 46.8719 13.3226 46.8719 14.3467V14.896ZM60.5711 12.8804C59.5402 13.3313 58.5469 13.8589 57.5999 14.4584V21.441H54.8015V10.6087H57.1631L57.3455 11.8097C58.256 11.2119 59.2437 10.733 60.2831 10.3853L60.5711 12.8804ZM67.4063 12.8804C66.3787 13.3317 65.3886 13.8593 64.4447 14.4584V21.441H61.6463V10.6087H64.0079L64.1903 11.8097C65.1008 11.2119 66.0885 10.733 67.1279 10.3853L67.4063 12.8804ZM76.7711 21.4456H74.4767L74.2703 20.7102C73.2804 21.3348 72.125 21.6679 70.9439 21.6691C68.9039 21.6691 68.0303 20.3098 68.0303 18.4432C68.0303 16.2413 69.0191 15.3941 71.2895 15.3941H73.9727V14.2583C73.9727 13.0573 73.6271 12.6337 71.8367 12.6337C70.7958 12.645 69.7586 12.7573 68.7407 12.9688L68.3951 10.8974C69.6459 10.5617 70.9373 10.3895 72.2351 10.3853C75.7439 10.3853 76.7807 11.5863 76.7807 14.3002L76.7711 21.4456ZM73.9727 17.3492H71.9087C70.9919 17.3492 70.7375 17.5959 70.7375 18.4152C70.7375 19.2345 70.9919 19.5045 71.8607 19.5045C72.602 19.4936 73.3284 19.3014 73.9727 18.9459V17.3492ZM85.3727 8.13692C84.844 8.02676 84.3054 7.96751 83.7647 7.96003C82.6655 7.96003 82.5023 8.42553 82.5023 9.24947V10.6087H85.3487L85.1903 12.7687H82.5071V21.4456H79.7087V12.7687H77.9183V10.6087H79.7087V9.09586C79.7087 6.84748 80.7887 5.73492 83.2655 5.73492C84.0765 5.73195 84.884 5.83689 85.6655 6.04681L85.3727 8.13692ZM90.8351 21.6691C86.9951 21.6691 85.9727 19.6209 85.9727 17.3958V14.6586C85.9727 12.4335 87.0047 10.3853 90.8351 10.3853C94.6655 10.3853 95.6975 12.4335 95.6975 14.6586V17.3958C95.7023 19.6209 94.6655 21.6691 90.8351 21.6691ZM90.8351 12.6988C89.3423 12.6988 88.7711 13.3459 88.7711 14.5609V17.4749C88.7711 18.6992 89.3471 19.3369 90.8351 19.3369C92.3231 19.3369 92.8991 18.6899 92.8991 17.4749V14.5702C92.8991 13.3459 92.3279 12.6988 90.8351 12.6988ZM102.902 12.8804C101.875 13.3317 100.885 13.8593 99.9407 14.4584V21.441H97.1423V10.6087H99.5039L99.6863 11.8097C100.597 11.2119 101.584 10.7329 102.624 10.3853L102.902 12.8804ZM110.592 21.4456V13.8812C110.592 13.304 110.338 13.0154 109.699 13.0154C108.673 13.1335 107.683 13.4501 106.786 13.9464V21.4456H103.987V10.6087H106.123L106.397 11.5397C107.792 10.8556 109.319 10.4623 110.88 10.3853C111.312 10.3459 111.746 10.4358 112.124 10.6431C112.501 10.8504 112.804 11.1649 112.992 11.5444C114.388 10.8502 115.922 10.4549 117.49 10.3853C119.347 10.3853 120.014 11.6515 120.014 13.588V21.4456H117.216V13.8812C117.216 13.304 116.962 13.0154 116.323 13.0154C115.296 13.1251 114.303 13.4423 113.41 13.9464V21.4456H110.592Z" fill="black"/>
<path d="M17.4722 9.4032V18.2152L25.3442 13.8115V4.99023L17.4722 9.4032Z" fill="#4040B2"/>
<path d="M8.73608 4.99023L16.6081 9.4032V18.2152L8.73608 13.8069V4.99023Z" fill="#5C4EE5"/>
<path d="M0 0.0698242V8.88645L7.872 13.2948V4.47814L0 0.0698242ZM8.736 23.5917L16.608 28V19.1834L8.736 14.7751V23.5917Z" fill="#5C4EE5"/>
</g>
<defs>
<clipPath id="clip0_531:1600">
<rect width="120" height="28" fill="white"/>
</clipPath>
</defs>
</svg>
