<svg width="42" height="42" viewBox="0 0 42 42" fill="none" xmlns="http://www.w3.org/2000/svg">
<path d="M21.0322 38.2301C30.5305 38.2301 38.2304 30.5303 38.2304 21.032C38.2304 11.5338 30.5305 3.83398 21.0322 3.83398C11.5338 3.83398 3.83392 11.5338 3.83392 21.032C3.83392 30.5303 11.5338 38.2301 21.0322 38.2301Z" stroke="#161616" stroke-width="0.878073"/>
<path d="M21.0334 26.5716C24.0928 26.5716 26.5729 24.0915 26.5729 21.0321C26.5729 17.9728 24.0928 15.4927 21.0334 15.4927C17.974 15.4927 15.4939 17.9728 15.4939 21.0321C15.4939 24.0915 17.974 26.5716 21.0334 26.5716Z" stroke="#161616" stroke-width="0.878073"/>
<path d="M21.0319 1V9.11594" stroke="#161616" stroke-width="0.878073" stroke-linecap="round" stroke-linejoin="round"/>
<path d="M21.0319 32.8838V40.9997" stroke="#161616" stroke-width="0.878073" stroke-linecap="round" stroke-linejoin="round"/>
<path d="M9.11602 21.0322H1" stroke="#161616" stroke-width="0.878073" stroke-linecap="round" stroke-linejoin="round"/>
<path d="M41 21.0322H32.884" stroke="#161616" stroke-width="0.878073" stroke-linecap="round" stroke-linejoin="round"/>
</svg>
