<svg width="32" height="32" viewBox="0 0 32 32" fill="none" xmlns="http://www.w3.org/2000/svg">
<path d="M26.0178 13.9592L15.2679 6.19537" stroke="#169BFC"/>
<path d="M8.57912 20.5288L12.4013 7.03162" stroke="#169BFC"/>
<path d="M25.8986 17.1842L10.3708 22.3203" stroke="#169BFC"/>
<path d="M10.632 5.55821C9.9334 4.25983 10.4196 2.64094 11.718 1.94231C13.0163 1.24368 14.6352 1.72987 15.3339 3.02825C16.0325 4.32663 15.5463 5.94552 14.2479 6.64415C12.9495 7.34278 11.3307 6.85659 10.632 5.55821Z" stroke="#169BFC"/>
<path d="M28.1946 12.9922C29.6632 12.8622 30.9592 13.9473 31.0893 15.416C31.2193 16.8846 30.1342 18.1807 28.6655 18.3107C27.1969 18.4408 25.9009 17.3556 25.7708 15.887C25.6407 14.4183 26.7259 13.1223 28.1946 12.9922Z" stroke="#169BFC"/>
<path d="M9.61598 25.1351C8.60015 26.2037 6.91036 26.2465 5.84174 25.2307C4.77312 24.2148 4.73032 22.525 5.74615 21.4564C6.76198 20.3878 8.45177 20.345 9.52039 21.3608C10.589 22.3767 10.6318 24.0664 9.61598 25.1351Z" stroke="#169BFC"/>
</svg>
