<svg width="40" height="40" viewBox="0 0 40 40" fill="none" xmlns="http://www.w3.org/2000/svg">
<path d="M23.9524 12.1494C26.1799 12.1494 28.0271 10.3565 28.0271 8.0747C28.0271 5.79287 26.2342 4 23.9524 4C21.6705 4 19.932 5.79287 19.932 8.0747V31.9253C19.932 34.1528 21.7249 36 24.0067 36C26.2885 36 28.0814 34.2071 28.0814 31.9253C28.0814 31.708 28.0814 31.4907 28.0271 31.3277" stroke="#161616" stroke-linecap="round" stroke-linejoin="round"/>
<path d="M28.0281 8.2377C28.3541 8.12904 28.7344 8.07471 29.1147 8.07471C31.3422 8.07471 33.1894 9.86758 33.1894 12.1494C33.1894 13.562 32.4831 14.8116 31.3422 15.5178" stroke="#161616" stroke-linecap="round" stroke-linejoin="round"/>
<path d="M27.4293 19.5923C27.4293 17.3648 29.2222 15.5176 31.504 15.5176C33.7859 15.5176 35.5244 17.3104 35.5244 19.5923C35.5244 21.8741 33.7315 23.667 31.4497 23.667C31.0151 23.667 30.5804 23.6127 30.1458 23.4497" stroke="#161616" stroke-linecap="round" stroke-linejoin="round"/>
<path d="M28.7889 23.1782C31.0164 23.1782 32.8636 24.9711 32.8636 27.2529C32.8636 29.5348 31.0708 31.3276 28.7889 31.3276C26.5071 31.3276 24.7142 29.5348 24.7142 27.2529" stroke="#161616" stroke-linecap="round" stroke-linejoin="round"/>
<path d="M15.8579 12.1494C13.6304 12.1494 11.7832 10.3565 11.7832 8.0747C11.7832 5.79287 13.5761 4 15.8579 4C18.1397 4 19.9326 5.79287 19.9326 8.0747V31.9253C19.9326 34.1528 18.1397 36 15.8579 36C13.5761 36 11.7832 34.2071 11.7832 31.9253C11.7832 31.708 11.7832 31.4907 11.8375 31.2733" stroke="#161616" stroke-linecap="round" stroke-linejoin="round"/>
<path d="M11.7828 8.2377C11.4024 8.12904 11.0765 8.07471 10.6962 8.07471C8.46866 8.07471 6.62146 9.86758 6.62146 12.1494C6.62146 13.562 7.32774 14.8116 8.46866 15.5178" stroke="#161616" stroke-linecap="round" stroke-linejoin="round"/>
<path d="M12.4353 19.5923C12.4353 17.3648 10.6424 15.5176 8.36059 15.5176C6.07876 15.5176 4.28589 17.3104 4.28589 19.5923C4.28589 21.8741 6.07876 23.667 8.36059 23.667C8.79523 23.667 9.22986 23.6127 9.6645 23.4497" stroke="#161616" stroke-linecap="round" stroke-linejoin="round"/>
<path d="M11.0238 23.1782C8.7963 23.1782 6.9491 24.9711 6.9491 27.2529C6.9491 29.5348 8.74197 31.3276 11.0238 31.3276C13.3056 31.3276 15.0985 29.5348 15.0985 27.2529" stroke="#161616" stroke-linecap="round" stroke-linejoin="round"/>
</svg>
