<svg width="32" height="32" viewBox="0 0 32 32" fill="none" xmlns="http://www.w3.org/2000/svg">
<path d="M29.9691 20.8767C30.2135 19.8168 30.3448 18.7366 30.3448 17.6552C30.3448 12.6372 27.7898 8.06787 23.5095 5.43283C23.2485 5.27283 22.9098 5.35394 22.7503 5.61325C22.5903 5.87311 22.6714 6.21242 22.9307 6.37242C26.8822 8.80552 29.2413 13.0229 29.2413 17.6552C29.2413 18.6075 29.131 19.5592 28.9252 20.4949C28.6709 20.4419 28.4077 20.4138 28.1379 20.4138C26.0082 20.4138 24.2758 22.1468 24.2758 24.2759C24.2758 26.405 26.0082 28.1379 28.1379 28.1379C30.2675 28.1379 32 26.405 32 24.2759C32 22.8088 31.1773 21.5305 29.9691 20.8767ZM28.1379 27.0345C26.6168 27.0345 25.3793 25.797 25.3793 24.2759C25.3793 22.7548 26.6168 21.5172 28.1379 21.5172C29.659 21.5172 30.8965 22.7548 30.8965 24.2759C30.8965 25.797 29.659 27.0345 28.1379 27.0345Z" fill="#FA842E"/>
<path d="M21.0599 29.8935C19.4516 30.5589 17.7495 30.8965 16 30.8965C12.4772 30.8965 9.08855 29.4759 6.61131 26.9837C7.29876 26.2858 7.72414 25.3302 7.72414 24.2759C7.72414 22.1468 5.99172 20.4138 3.86207 20.4138C1.73241 20.4138 0 22.1468 0 24.2759C0 26.405 1.73241 28.1379 3.86207 28.1379C4.53848 28.1379 5.17407 27.9619 5.72745 27.6552C8.41931 30.4199 12.1346 32 16 32C17.8952 32 19.7396 31.6342 21.4819 30.9125C21.7633 30.7961 21.8974 30.4734 21.781 30.1914C21.6646 29.9106 21.3412 29.7771 21.0599 29.8935ZM1.10345 24.2759C1.10345 22.7548 2.34097 21.5172 3.86207 21.5172C5.38317 21.5172 6.62069 22.7548 6.62069 24.2759C6.62069 25.797 5.38317 27.0345 3.86207 27.0345C2.34097 27.0345 1.10345 25.797 1.10345 24.2759Z" fill="#FA842E"/>
<path d="M2.20694 17.221C2.22018 17.2221 2.23342 17.2226 2.24611 17.2226C2.53356 17.2226 2.77522 17.0008 2.79618 16.7095C3.18901 11.1432 6.98156 6.49159 12.2969 4.95007C12.768 6.55117 14.2483 7.72414 16 7.72414C18.1297 7.72414 19.8621 5.99117 19.8621 3.86207C19.8621 1.73297 18.1297 0 16 0C13.8754 0 12.1463 1.72524 12.1385 3.84828C6.30073 5.47421 2.12473 10.549 1.69549 16.6323C1.67398 16.9357 1.90294 17.2 2.20694 17.221ZM16 1.10345C17.5211 1.10345 18.7587 2.34097 18.7587 3.86207C18.7587 5.38317 17.5211 6.62069 16 6.62069C14.4789 6.62069 13.2414 5.38317 13.2414 3.86207C13.2414 2.34097 14.4789 1.10345 16 1.10345Z" fill="#FA842E"/>
</svg>
