<svg width="32" height="34" viewBox="0 0 32 34" fill="none" xmlns="http://www.w3.org/2000/svg">
<path d="M29.8815 2.25111C27.0563 -0.672758 22.4569 -0.674008 19.6304 2.25111L14.0778 7.99511C13.8416 8.23944 13.8416 8.63437 14.0778 8.8787C14.314 9.12303 14.6958 9.12303 14.932 8.8787L20.4846 3.1347C21.6202 1.95991 23.1371 1.31315 24.7554 1.31315C26.3749 1.31315 27.8911 1.96053 29.0267 3.13533C30.1624 4.31012 30.7882 5.87922 30.7882 7.55393C30.7882 9.22864 30.1624 10.7971 29.0267 11.9719L21.7664 19.4844C19.4118 21.9202 15.5783 21.9202 13.2231 19.4844C12.9869 19.24 12.6051 19.24 12.3689 19.4844C12.1327 19.7287 12.1327 20.1236 12.3689 20.3679C13.7824 21.8296 15.6381 22.5607 17.4945 22.5607C19.3508 22.5607 21.2071 21.8296 22.62 20.3679L29.8815 12.8555C31.2455 11.4445 31.997 9.56171 31.997 7.55331C31.997 5.54491 31.2455 3.66211 29.8815 2.25111Z" fill="#FA842E"/>
<path d="M16.2108 25.1238L11.5124 29.9842C10.3767 31.159 8.85989 31.8064 7.24099 31.8064C5.62208 31.8064 4.10586 31.159 2.96961 29.9842C0.614943 27.5484 0.614943 23.5834 2.96961 21.147L9.80406 14.077C12.1593 11.6411 15.9921 11.6424 18.3468 14.077C18.583 14.3213 18.9648 14.3213 19.201 14.077C19.4372 13.8326 19.4372 13.4377 19.201 13.1934C16.3757 10.2695 11.7763 10.2683 8.9499 13.1934L2.11485 20.264C0.750859 21.675 0 23.5578 0 25.5662C0 27.5746 0.751463 29.4574 2.11545 30.8678C3.47944 32.2782 5.29951 33.0562 7.24038 33.0562C9.18247 33.0562 11.0025 32.2788 12.3659 30.8678L17.0644 26.0074C17.3006 25.7631 17.3006 25.3681 17.0644 25.1238C16.8282 24.8795 16.447 24.8801 16.2108 25.1238Z" fill="#FA842E"/>
<path d="M20.5197 27.5586C20.1857 27.5586 19.9156 27.8379 19.9156 28.1835V31.9328C19.9156 32.2784 20.1857 32.5577 20.5197 32.5577C20.8538 32.5577 21.1238 32.2784 21.1238 31.9328V28.1835C21.1238 27.8379 20.8538 27.5586 20.5197 27.5586Z" fill="#FA842E"/>
<path d="M23.2162 26.4919C22.98 26.2475 22.5983 26.2475 22.3621 26.4919C22.1259 26.7362 22.1259 27.1311 22.3621 27.3755L24.9251 30.0263C25.0429 30.1481 25.1976 30.2094 25.3522 30.2094C25.5069 30.2094 25.6615 30.1481 25.7793 30.0263C26.0155 29.7819 26.0155 29.387 25.7793 29.1427L23.2162 26.4919Z" fill="#FA842E"/>
<path d="M27.1644 23.8092H23.54C23.2059 23.8092 22.9359 24.0884 22.9359 24.4338C22.9359 24.7792 23.2059 25.0584 23.54 25.0584H27.1644C27.4985 25.0584 27.7685 24.7792 27.7685 24.4338C27.7685 24.0884 27.4985 23.8092 27.1644 23.8092Z" fill="#FA842E"/>
<path d="M9.64643 6.93718C9.98048 6.93718 10.2505 6.65785 10.2505 6.31229V2.56294C10.2505 2.21738 9.98048 1.93805 9.64643 1.93805C9.31238 1.93805 9.04236 2.21738 9.04236 2.56294V6.31229C9.04236 6.65785 9.31298 6.93718 9.64643 6.93718Z" fill="#FA842E"/>
<path d="M6.9492 8.00386C7.067 8.12571 7.22164 8.18695 7.37628 8.18695C7.53092 8.18695 7.68557 8.12571 7.80336 8.00386C8.03955 7.75953 8.03955 7.36459 7.80336 7.12026L5.24089 4.46947C5.0047 4.22514 4.62293 4.22514 4.38674 4.46947C4.15055 4.71381 4.15055 5.10874 4.38674 5.35307L6.9492 8.00386Z" fill="#FA842E"/>
<path d="M3.00165 10.6859H6.62607C6.96012 10.6859 7.23014 10.4067 7.23014 10.0613C7.23014 9.71592 6.96012 9.43674 6.62607 9.43674H3.00165C2.6676 9.43674 2.39758 9.71592 2.39758 10.0613C2.39758 10.4067 2.66821 10.6859 3.00165 10.6859Z" fill="#FA842E"/>
</svg>
