<svg width="60" height="60" viewBox="0 0 60 60" fill="none" xmlns="http://www.w3.org/2000/svg">
<path d="M15.8616 51.5206H10.1054C7.72619 51.5206 5.73071 49.5251 5.73071 47.1458V31.7193C5.73071 29.34 7.72619 27.3445 10.1054 27.3445H15.8616C18.2408 27.3445 20.2363 29.34 20.2363 31.7193V47.2226C20.1596 49.6018 18.2408 51.5206 15.8616 51.5206Z" stroke="#FA842E" stroke-width="1.1"/>
<path d="M19.392 49.1414C19.392 49.1414 21.4642 51.9812 26.3761 51.9812C31.2881 51.9812 44.3354 51.9812 44.3354 51.9812C44.3354 51.9812 49.4777 52.6719 48.7102 45.6877C48.7102 45.6877 53.0851 44.076 50.8591 39.0106C50.8591 39.0106 55.6943 37.7058 52.0104 32.5636C52.0104 32.5636 61.4505 21.8187 36.3535 24.0445C36.3535 24.0445 40.4212 8.54112 30.5206 8.00388C29.2926 7.92713 28.2949 9.00161 28.3716 10.2296C28.7554 14.4508 28.3716 24.4282 19.392 28.8029" stroke="#FA842E" stroke-width="1.1"/>
</svg>
