<svg width="40" height="40" viewBox="0 0 40 40" fill="none" xmlns="http://www.w3.org/2000/svg">
<path d="M10.5744 34.3473H6.7369C5.15075 34.3473 3.82043 33.017 3.82043 31.4308V21.1465C3.82043 19.5603 5.15075 18.23 6.7369 18.23H10.5744C12.1605 18.23 13.4908 19.5603 13.4908 21.1465V31.482C13.4397 33.0682 12.1605 34.3473 10.5744 34.3473Z" stroke="#161616" stroke-width="1.1"/>
<path d="M12.928 32.7611C12.928 32.7611 14.3095 34.6543 17.5841 34.6543C20.8587 34.6543 29.557 34.6543 29.557 34.6543C29.557 34.6543 32.9851 35.1148 32.4734 30.4587C32.4734 30.4587 35.3901 29.3842 33.9061 26.0072C33.9061 26.0072 37.1295 25.1374 34.6736 21.7092C34.6736 21.7092 40.967 14.546 24.2357 16.0298C24.2357 16.0298 26.9475 5.69424 20.3471 5.33608C19.5284 5.28491 18.8632 6.00124 18.9144 6.8199C19.1703 9.63403 18.9144 16.2856 12.928 19.2021" stroke="#161616" stroke-width="1.1"/>
</svg>
