<svg width="40" height="40" viewBox="0 0 40 40" fill="none" xmlns="http://www.w3.org/2000/svg">
<g clip-path="url(#clip0_48:493)">
<path d="M39.4163 19.7783C39.4163 21.4241 37.2453 22.7547 36.8251 24.2954C36.4049 25.8711 37.5955 28.1121 36.7901 29.4778C35.9848 30.8784 33.4286 30.9484 32.3081 32.104C31.1875 33.2245 31.0825 35.7807 29.6819 36.586C28.3162 37.3914 26.0752 36.2008 24.4995 36.621C22.9938 37.0412 21.6282 39.2122 19.9824 39.2122C18.3366 39.2122 17.006 37.0412 15.4653 36.621C13.8896 36.2008 11.6486 37.3914 10.283 36.586C8.88232 35.7807 8.81228 33.2245 7.65673 32.104C6.53624 30.9834 3.98006 30.8784 3.17468 29.4778C2.36932 28.1121 3.55986 25.8711 3.13967 24.2954C2.75449 22.7897 0.583496 21.4241 0.583496 19.7783C0.583496 18.1325 2.75449 16.8019 3.17468 15.2612C3.59488 13.6855 2.40433 11.4445 3.2097 10.0788C4.01507 8.67822 6.57126 8.60818 7.69175 7.45263C8.81228 6.33214 8.91734 3.77595 10.318 2.97058C11.6836 2.16522 13.9246 3.35576 15.5004 2.93557C17.006 2.55039 18.3366 0.379395 19.9824 0.379395C21.6282 0.379395 22.9588 2.55039 24.4995 2.97058C26.0752 3.39078 28.3162 2.20023 29.6819 3.0056C31.0825 3.81097 31.1525 6.36716 32.3081 7.48765C33.4286 8.60818 35.9848 8.71324 36.7901 10.1139C37.5955 11.4795 36.4049 13.7205 36.8251 15.2963C37.2453 16.8019 39.4163 18.1325 39.4163 19.7783Z" stroke="#161616" stroke-width="1.2973" stroke-miterlimit="10" stroke-linecap="round"/>
<path d="M12.9791 21.1788L17.3911 28.252L26.9855 11.7944" stroke="#161616" stroke-width="1.2973" stroke-linecap="round" stroke-linejoin="round"/>
</g>
<defs>
<clipPath id="clip0_48:493">
<rect width="40" height="40" fill="white"/>
</clipPath>
</defs>
</svg>
