<svg width="60" height="60" viewBox="0 0 60 60" fill="none" xmlns="http://www.w3.org/2000/svg">
<g clip-path="url(#clip0_48:791)">
<path d="M53.2997 29.7341C53.2997 31.709 50.6945 33.3057 50.1903 35.1545C49.686 37.0455 51.1147 39.7347 50.1483 41.3734C49.1818 43.0542 46.1144 43.1382 44.7698 44.5249C43.4252 45.8695 43.2992 48.9369 41.6184 49.9033C39.9796 50.8698 37.2904 49.4411 35.3995 49.9454C33.5927 50.4496 31.9539 53.0548 29.979 53.0548C28.0041 53.0548 26.4074 50.4496 24.5585 49.9454C22.6677 49.4411 19.9784 50.8698 18.3397 49.9033C16.6589 48.9369 16.5749 45.8695 15.1882 44.5249C13.8436 43.1802 10.7762 43.0542 9.80974 41.3734C8.8433 39.7347 10.272 37.0455 9.76772 35.1545C9.30551 33.3477 6.70032 31.709 6.70032 29.7341C6.70032 27.7592 9.30551 26.1624 9.80974 24.3136C10.314 22.4227 8.88532 19.7335 9.85176 18.0947C10.8182 16.414 13.8856 16.3299 15.2302 14.9433C16.5749 13.5987 16.7009 10.5313 18.3817 9.56481C20.0204 8.59837 22.7096 10.027 24.6006 9.52279C26.4074 9.06058 28.0041 6.45538 29.979 6.45538C31.9539 6.45538 33.5506 9.06058 35.3995 9.56481C37.2904 10.069 39.9796 8.64039 41.6184 9.60683C43.2992 10.5733 43.3832 13.6407 44.7698 14.9853C46.1144 16.3299 49.1818 16.456 50.1483 18.1367C51.1147 19.7755 49.686 22.4647 50.1903 24.3556C50.6945 26.1624 53.2997 27.7592 53.2997 29.7341Z" stroke="#FA842E" stroke-width="1.2973" stroke-miterlimit="10" stroke-linecap="round"/>
<path d="M21.5751 31.4149L26.8695 39.9027L38.3828 20.1537" stroke="#FA842E" stroke-width="1.2973" stroke-linecap="round" stroke-linejoin="round"/>
</g>
<defs>
<clipPath id="clip0_48:791">
<rect width="48" height="48" fill="white" transform="translate(6 6)"/>
</clipPath>
</defs>
</svg>
