<svg width="32" height="32" viewBox="0 0 32 32" fill="none" xmlns="http://www.w3.org/2000/svg">
<g clip-path="url(#clip0_48:228)">
<path d="M27.7 5.06871L28.8112 3.95759C29.0271 3.74166 29.0271 3.39264 28.8112 3.17671C28.5952 2.96078 28.2462 2.96078 28.0303 3.17671L26.9203 4.28673C21.4121 -0.851941 12.9374 -1.43898 6.78365 2.89782C5.7007 1.92973 4.03732 1.95514 2.99799 2.99502C1.95866 4.03435 1.93271 5.69827 2.9008 6.78068C-1.54204 13.084 -0.820247 21.8256 4.67131 27.3171C7.79316 30.439 11.8947 32.0002 15.9957 32.0002C20.0967 32.0002 24.1982 30.439 27.3201 27.3171C33.4324 21.2037 33.5566 11.3395 27.7 5.06871ZM3.77887 3.7759C4.09144 3.46277 4.50729 3.29102 4.95019 3.29102C5.39309 3.29102 5.80894 3.46333 6.12151 3.7759C6.16569 3.82008 6.19938 3.86978 6.23748 3.91782L6.26951 3.96035C6.45341 4.20555 6.55944 4.4894 6.59037 4.77823C6.59037 4.77823 6.59037 4.78044 6.59092 4.78154C6.60086 4.87432 6.60196 4.96765 6.59589 5.06098C6.59534 5.06981 6.59423 5.0781 6.59368 5.08693C6.58595 5.17253 6.57269 5.25758 6.55281 5.34097C6.54784 5.36085 6.54122 5.38018 6.53514 5.40006C6.51526 5.47296 6.49151 5.54475 6.46169 5.61488C6.44513 5.65244 6.42359 5.68833 6.40426 5.72423C6.3772 5.77559 6.35235 5.8275 6.31977 5.8761C6.26178 5.96169 6.19717 6.04343 6.12151 6.11909C6.04419 6.1964 5.9597 6.26377 5.87024 6.32176C5.86361 6.32618 5.85643 6.32894 5.85035 6.33281C5.49415 6.55647 5.05733 6.63268 4.6459 6.56033C4.63486 6.55812 4.62326 6.55591 4.61222 6.5537C4.53766 6.53879 4.46476 6.5156 4.39242 6.4913C4.34824 6.47529 4.30406 6.46037 4.26154 6.44049C4.23006 6.42669 4.20079 6.40957 4.17042 6.3941C4.09918 6.356 4.02904 6.31624 3.96277 6.26709L3.95394 6.26046C3.89374 6.21573 3.83244 6.17321 3.77887 6.11909C3.13274 5.47296 3.13274 4.42203 3.77887 3.7759ZM26.5387 26.5362C20.7252 32.3498 11.2657 32.3498 5.45163 26.5362C0.346652 21.4307 -0.334269 13.3066 3.78219 7.44061C3.89926 7.49529 4.0202 7.53836 4.14391 7.57592C4.16489 7.58199 4.18588 7.58917 4.20686 7.59469C4.32615 7.62838 4.44709 7.65433 4.57135 7.67145C4.59344 7.67422 4.61553 7.67532 4.63762 7.67808C4.74144 7.68968 4.84416 7.70846 4.95019 7.70846C5.21637 7.70846 5.47317 7.65875 5.72168 7.58586C5.77359 7.57095 5.82495 7.55714 5.87576 7.53947C5.96191 7.50854 6.04585 7.4743 6.12814 7.43509C6.20269 7.4003 6.27448 7.35999 6.34627 7.31857C6.40757 7.28267 6.46942 7.24898 6.52796 7.20812C6.6594 7.117 6.78641 7.01649 6.90239 6.89996C7.02222 6.78013 7.12494 6.64924 7.21827 6.51284C7.25362 6.46148 7.28289 6.40791 7.31436 6.3549C7.36407 6.27095 7.40935 6.18591 7.44966 6.09755C7.48225 6.02631 7.51262 5.95562 7.53858 5.88272C7.56287 5.8148 7.5811 5.74521 7.59988 5.67563C7.691 5.34152 7.71806 4.99692 7.68161 4.65397C7.67829 4.6236 7.67719 4.59378 7.67277 4.5634C7.65676 4.44853 7.63191 4.33698 7.60153 4.22487C7.5927 4.19174 7.58276 4.15861 7.57226 4.12492C7.53692 4.0106 7.4966 3.89905 7.4458 3.7897C7.44414 3.78639 7.44359 3.78308 7.44248 3.78032C13.1588 -0.230662 21.0096 0.3249 26.1311 5.07644L24.1767 7.0314C19.4152 2.68245 12.0101 2.79676 7.40493 7.40196C2.66775 12.1391 2.66775 19.8463 7.40493 24.5835C9.77352 26.9521 12.8849 28.1367 15.9963 28.1367C19.1076 28.1367 22.219 26.9521 24.5876 24.5835C26.4989 22.6727 27.7056 20.1605 28.0347 17.4755C28.4881 17.3546 28.9189 17.1287 29.2734 16.7736C30.3492 15.6973 30.3492 13.945 29.2734 12.8687C28.7775 12.3727 28.138 12.1165 27.4874 12.0773C26.9512 10.4979 26.0897 9.03716 24.9653 7.80455L26.9203 5.84959C32.3455 11.6896 32.2213 20.8536 26.5387 26.5362ZM27.3201 13.1652C27.7442 13.1652 28.1683 13.327 28.4914 13.6495C29.137 14.2957 29.137 15.3466 28.4914 15.9927C28.2512 16.2324 27.9552 16.3821 27.6448 16.4439L27.4841 16.4599C27.2378 16.4842 26.9948 16.4544 26.7706 16.3776C26.7651 16.376 26.7596 16.3749 26.754 16.3727C26.653 16.3373 26.5574 16.2893 26.4658 16.2346C26.4536 16.2269 26.4398 16.2225 26.4277 16.2147C26.3277 16.1518 26.2338 16.0778 26.1488 15.9927C25.5026 15.3466 25.5026 14.2957 26.1488 13.6495C26.4829 13.316 26.8766 13.2116 27.1489 13.1829L27.3102 13.1663C27.3124 13.1663 27.3162 13.1652 27.3201 13.1652ZM26.3597 12.2396C26.2068 12.2965 26.0593 12.3694 25.9163 12.4545C25.8865 12.4716 25.8544 12.4837 25.8252 12.502C25.6634 12.6063 25.5087 12.7267 25.3668 12.8687C24.2905 13.945 24.2905 15.6973 25.3668 16.7736C25.4872 16.894 25.6192 16.9978 25.7567 17.0917C25.8102 17.1287 25.8666 17.1585 25.9218 17.1911C26.0052 17.2397 26.0897 17.2861 26.1775 17.3253C26.2526 17.3595 26.3277 17.3888 26.405 17.4159C26.4724 17.4391 26.5403 17.4584 26.6094 17.4761C26.7049 17.5015 26.7999 17.5252 26.8971 17.5401C26.9054 17.5412 26.9131 17.5445 26.9208 17.5456C26.5873 19.9098 25.4933 22.1133 23.8045 23.8021C19.4975 28.109 12.4911 28.109 8.18415 23.8021C3.87773 19.4956 3.87773 12.4887 8.18415 8.18228C10.3374 6.02907 13.166 4.95274 15.9946 4.95274C18.6498 4.95274 21.2984 5.9142 23.3947 7.81173L21.0521 10.1544C19.6488 8.9361 17.8761 8.26512 15.9946 8.26512C13.927 8.26512 11.9853 9.06809 10.5279 10.526C9.07051 11.984 8.26699 13.9251 8.26699 15.9927C8.26699 18.0603 9.06996 20.002 10.5279 21.4594C11.9858 22.9168 13.927 23.7203 15.9946 23.7203C18.0622 23.7203 20.0039 22.9174 21.4613 21.4594C22.9187 20.0015 23.7222 18.0603 23.7222 15.9927C23.7222 14.1112 23.0512 12.3385 21.833 10.9352L24.1739 8.59426C25.1321 9.65458 25.8909 10.8883 26.3757 12.2314C26.3702 12.2336 26.3653 12.2374 26.3597 12.2396ZM15.6047 16.3832C15.7124 16.4909 15.8538 16.545 15.9951 16.545C16.1365 16.545 16.2779 16.4909 16.3856 16.3832L21.0526 11.7161C22.0638 12.909 22.6183 14.4061 22.6183 15.9927C22.6183 17.7654 21.9302 19.4299 20.681 20.6785C19.4318 21.9272 17.7679 22.6158 15.9951 22.6158C14.2224 22.6158 12.558 21.9277 11.3093 20.6785C10.0607 19.4294 9.37204 17.7654 9.37204 15.9927C9.37204 14.22 10.0601 12.5555 11.3093 11.3069C12.5585 10.0583 14.2224 9.36962 15.9951 9.36962C17.5818 9.36962 19.0789 9.92407 20.2718 10.9352L15.6047 15.6023C15.3888 15.8182 15.3888 16.1672 15.6047 16.3832Z" fill="#FA842E"/>
</g>
<defs>
<clipPath id="clip0_48:228">
<rect width="32" height="32" fill="white"/>
</clipPath>
</defs>
</svg>
