<svg width="40" height="40" viewBox="0 0 40 40" fill="none" xmlns="http://www.w3.org/2000/svg">
<path d="M19.2194 6.76313V20.1951L5.7874 20.1951C2.22144 16.4749 2.26923 10.5681 5.93079 6.90651C9.59234 3.24495 15.4992 3.19716 19.2194 6.76313Z" stroke="black"/>
<path d="M18.7806 33.2374V19.8054L32.2126 19.8054C35.7786 23.5256 35.7308 29.4324 32.0692 33.094C28.4077 36.7555 22.5008 36.8033 18.7806 33.2374Z" stroke="black"/>
<path d="M5.76294 19.7809H19.1949L19.1949 33.2129C15.4747 36.7789 9.56788 36.7311 5.90633 33.0695C2.24477 29.408 2.19698 23.5011 5.76294 19.7809Z" stroke="black"/>
<path d="M32.2371 20.2191H18.8052L18.8052 6.7871C22.5253 3.22113 28.4322 3.26893 32.0937 6.93048C35.7553 10.592 35.8031 16.4989 32.2371 20.2191Z" stroke="black"/>
</svg>
