<svg width="26" height="26" viewBox="0 0 26 26" fill="none" xmlns="http://www.w3.org/2000/svg">
<path d="M17.355 25.2857L17.355 25.2857L17.3577 25.2866C17.6044 25.3688 17.8165 25.4122 18.0118 25.4122C18.54 25.4122 19.0041 25.2214 19.4016 24.8867L19.4018 24.887L19.4079 24.8809L21.3958 22.8929L21.396 22.8931L21.4007 22.8877C21.675 22.5712 21.8267 22.2073 21.8267 21.8182C21.8267 21.4123 21.6771 21.0247 21.3958 20.7434L18.0426 17.3701L18.0426 17.37L18.0399 17.3675C17.7224 17.0711 17.3573 16.9189 16.9676 16.9189C16.5617 16.9189 16.1742 17.0685 15.8929 17.3498L14.2061 19.0366C14.0253 19.2174 13.7902 19.3085 13.5338 19.3085C13.3522 19.3085 13.1697 19.2537 13.0247 19.1631C10.4867 17.5643 8.40936 15.5067 6.89164 13.0904C6.65457 12.7071 6.71045 12.2164 7.01807 11.9088L8.72493 10.2019L8.72494 10.2019L8.7262 10.2006C9.30504 9.60034 9.30685 8.61427 8.72493 8.03234L5.35137 4.65878L5.35155 4.6586L5.34615 4.65393C5.02965 4.37963 4.66571 4.22788 4.27662 4.22788C3.87073 4.22788 3.48316 4.3775 3.20188 4.65878L1.21458 6.64608C0.663628 7.17639 0.494893 7.98105 0.748842 8.67941L0.7489 8.67956C3.57031 16.3981 9.63641 22.4642 17.355 25.2857ZM1.33834 8.45021L1.33843 8.45018L1.33674 8.44612C1.153 8.00514 1.28074 7.4451 1.63644 7.08941L3.62443 5.10142C3.7863 4.93955 4.00179 4.84958 4.23646 4.84958C4.48861 4.84958 4.6847 4.93763 4.86857 5.1215L4.86879 5.12171L8.24213 8.47497C8.24217 8.47502 8.24222 8.47506 8.24226 8.4751C8.40405 8.63696 8.49397 8.8524 8.49397 9.08701C8.49397 9.32168 8.404 9.53717 8.24213 9.69904L6.53527 11.4059C5.9998 11.9414 5.91503 12.755 6.29935 13.3956L6.29932 13.3956L6.30059 13.3976C7.93513 15.9806 10.0741 18.0792 12.6361 19.6932C12.8939 19.8648 13.1941 19.9503 13.4937 19.9503C13.922 19.9503 14.3288 19.7789 14.6285 19.4794C14.6285 19.4793 14.6286 19.4793 14.6287 19.4792L16.3351 17.7928L16.3355 17.7924C16.4974 17.6305 16.7129 17.5406 16.9475 17.5406C17.1822 17.5406 17.3977 17.6305 17.5596 17.7924L20.9128 21.1658L20.9131 21.166C21.0749 21.3278 21.1649 21.5433 21.1649 21.778C21.1649 22.0127 21.0749 22.2282 20.9131 22.39L18.9251 24.378C18.6842 24.6188 18.3489 24.7504 17.9917 24.7504C17.8382 24.7504 17.6926 24.731 17.5693 24.6781L17.5693 24.678L17.5643 24.6761C10.0215 21.9151 4.09936 15.993 1.33834 8.45021Z" fill="#4301FF" stroke="#4301FF" stroke-width="0.2"/>
<path d="M11.1435 3.94469C12.203 3.38949 13.3805 3.04983 14.561 3.0042L14.9028 1.71287C15.0552 1.08376 15.6593 0.633398 16.305 0.633398C16.4354 0.633398 16.544 0.655116 16.6432 0.674961L16.6459 0.675502L16.6511 0.676543L16.6511 0.67668L18.3771 1.11822C18.7475 1.20567 19.0505 1.44554 19.2436 1.78881C19.4351 2.12918 19.502 2.51786 19.3933 2.88882L19.0523 4.17737C20.052 4.80202 20.9125 5.64319 21.5952 6.66122L22.883 6.32035C23.0176 6.27606 23.1311 6.27607 23.2482 6.27607H23.2529C23.5121 6.27607 23.7493 6.34125 23.9835 6.46901L23.9864 6.47056L23.9864 6.47061C24.3493 6.68408 24.567 6.966 24.6745 7.35317C24.6746 7.35323 24.6746 7.35329 24.6746 7.35334L25.1561 9.05875C25.1562 9.05894 25.1562 9.05913 25.1563 9.05932C25.2653 9.43051 25.1984 9.8195 25.0068 10.1601L25.0058 10.1618C24.7923 10.5247 24.5103 10.7424 24.1231 10.85L24.1219 10.8503L22.8301 11.1923C22.8044 12.3338 22.5033 13.4926 21.9289 14.6297L22.8818 15.5826C23.1428 15.8436 23.2914 16.2095 23.3126 16.612L23.3129 16.6172H23.3127C23.3127 17.0039 23.1626 17.3708 22.9025 17.6312C22.9023 17.6314 22.9021 17.6315 22.9019 17.6317L22.2001 18.3536L22.1706 18.3839H22.1284C22.1063 18.3839 22.1 18.3842 22.0946 18.3851C22.0918 18.3856 22.0863 18.3867 22.0727 18.3935L21.928 18.4658V18.4035C21.8936 18.4017 21.858 18.3949 21.8252 18.3818C21.7916 18.3684 21.7527 18.3447 21.7269 18.3047C21.6816 18.2565 21.6268 18.1766 21.6268 18.0831C21.6268 18.0029 21.6538 17.9101 21.7414 17.8464L22.4373 17.1108L22.4392 17.1088L22.4392 17.1088C22.7413 16.8067 22.7415 16.3082 22.4398 16.0058L21.2959 14.902L21.2946 14.9008C21.2432 14.8493 21.2056 14.786 21.1939 14.716C21.1823 14.6462 21.1976 14.5757 21.2409 14.5148C21.8534 13.4261 22.189 12.1798 22.189 10.9344C22.189 10.7842 22.3032 10.6523 22.4326 10.6006L22.443 10.5964L22.4431 10.597L23.9693 10.1753L23.9696 10.1753C24.1681 10.1211 24.3464 9.99521 24.4523 9.81867C24.5597 9.63963 24.5929 9.40993 24.5244 9.22155L24.5219 9.21462L24.5222 9.21455L24.0402 7.50769L24.04 7.50683C23.9858 7.30828 23.8599 7.13001 23.6834 7.02408L23.6793 7.02163L23.6794 7.02154C23.5771 6.95335 23.4563 6.91785 23.3132 6.91785C23.246 6.91785 23.156 6.93515 23.0774 6.95477L21.5322 7.37618L21.5193 7.37971H21.5059H21.5058H21.5057H21.5055H21.5054H21.5053H21.5052H21.5051H21.505H21.5049H21.5047H21.5046H21.5045H21.5044H21.5043H21.5042H21.5041H21.504H21.5038H21.5037H21.5036H21.5035H21.5034H21.5033H21.5032H21.5031H21.503H21.5029H21.5028H21.5027H21.5026H21.5025H21.5024H21.5022H21.5021H21.502H21.5019H21.5018H21.5017H21.5016H21.5015H21.5014H21.5013H21.5012H21.5011H21.501H21.5009H21.5008H21.5007H21.5006H21.5005H21.5004H21.5004H21.5003H21.5002H21.5001H21.5H21.4999H21.4998H21.4997H21.4996H21.4995H21.4994H21.4993H21.4992H21.4991H21.499H21.4989H21.4989H21.4988H21.4987H21.4986H21.4985H21.4984H21.4983H21.4982H21.4981H21.4981H21.498H21.4979H21.4978H21.4977H21.4976H21.4975H21.4975H21.4974H21.4973H21.4972H21.4971H21.497H21.4969H21.4969H21.4968H21.4967H21.4966H21.4965H21.4964H21.4964H21.4963H21.4962H21.4961H21.496H21.496H21.4959H21.4958H21.4957H21.4956H21.4956H21.4955H21.4954H21.4953H21.4953H21.4952H21.4951H21.495H21.4949H21.4949H21.4948H21.4947H21.4946H21.4946H21.4945H21.4944H21.4943H21.4943H21.4942H21.4941H21.494H21.494H21.4939H21.4938H21.4937H21.4937H21.4936H21.4935H21.4935H21.4934H21.4933H21.4932H21.4932H21.4931H21.493H21.493H21.4929H21.4928H21.4927H21.4927H21.4926H21.4925H21.4925H21.4924H21.4923H21.4923H21.4922H21.4921H21.4921H21.492H21.4919H21.4919H21.4918H21.4917H21.4917H21.4916H21.4915H21.4915H21.4914H21.4913H21.4913H21.4912H21.4911H21.4911H21.491H21.4909H21.4909H21.4908H21.4907H21.4907H21.4906H21.4905H21.4905H21.4904H21.4903H21.4903H21.4902H21.4902H21.4901H21.49H21.49H21.4899H21.4898H21.4898H21.4897H21.4897H21.4896H21.4895H21.4895H21.4894H21.4893H21.4893H21.4892H21.4892H21.4891H21.489H21.489H21.4889H21.4889H21.4888H21.4887H21.4887H21.4886H21.4885H21.4885H21.4884H21.4884H21.4883H21.4882H21.4882H21.4881H21.4881H21.488H21.4879H21.4879H21.4878H21.4878H21.4877H21.4876H21.4876H21.4875H21.4875H21.4874H21.4873H21.4873H21.4872H21.4872H21.4871H21.487H21.487H21.4869H21.4869H21.4868H21.4868H21.4867H21.4866H21.4866H21.4865H21.4865H21.4864H21.4863H21.4863H21.4862H21.4862H21.4861H21.486H21.486H21.4859H21.4859H21.4858H21.4858H21.4857H21.4856H21.4856H21.4855H21.4855H21.4854H21.4853H21.4853H21.4852H21.4852H21.4851H21.485H21.485H21.4849H21.4849H21.4848H21.4847H21.4847H21.4846H21.4846H21.4845H21.4845H21.4844H21.4843H21.4843H21.4842H21.4842H21.4841H21.484H21.484H21.4839H21.4839H21.4838H21.4837H21.4837H21.4836H21.4836H21.4835H21.4834H21.4834H21.4833H21.4833H21.4832H21.4831H21.4831H21.483H21.483H21.4829H21.4828H21.4828H21.4827H21.4826H21.4826H21.4825H21.4825H21.4824H21.4823H21.4823H21.4822H21.4822H21.4821H21.482H21.482H21.4819H21.4818H21.4818H21.4817H21.4817H21.4816H21.4815H21.4815H21.4814H21.4813H21.4813H21.4812H21.4811H21.4811H21.481H21.481H21.4809H21.4808H21.4808H21.4807H21.4806H21.4806H21.4805H21.4804H21.4804H21.4803H21.4802H21.4802H21.4801H21.48H21.48H21.4799H21.4798H21.4798H21.4797H21.4796H21.4796H21.4795H21.4794H21.4794H21.4793H21.4792H21.4791H21.4791H21.479H21.4789H21.4789H21.4788H21.4787H21.4787H21.4786H21.4785H21.4784H21.4784H21.4783H21.4782H21.4782H21.4781H21.478H21.4779H21.4779H21.4778H21.4777H21.4777H21.4776H21.4775H21.4774H21.4774H21.4773H21.4772H21.4771H21.4771H21.477H21.4769H21.4768H21.4768H21.4767H21.4766H21.4765H21.4764H21.4764H21.4763H21.4762H21.4761H21.4761H21.476H21.4759H21.4758H21.4757H21.4757H21.4756H21.4755H21.4754H21.4753H21.4753H21.4752H21.4751H21.475H21.4749H21.4748H21.4748H21.4747H21.4746H21.4745H21.4744H21.4743H21.4743H21.4742H21.4741H21.474H21.4739H21.4738H21.4737H21.4737H21.4736H21.4735H21.4734H21.4733H21.4732H21.4731H21.473H21.4729H21.4729H21.4728H21.4727H21.4726H21.4725H21.4724H21.4723H21.4722H21.4721H21.472H21.4719H21.4718H21.4717H21.4717H21.4716H21.4715H21.4714H21.4713H21.4712H21.4711H21.471H21.4709H21.4708H21.4707H21.4706H21.4705H21.4704H21.4703H21.4702H21.4701H21.47H21.4699H21.4698H21.4697H21.4696H21.4695H21.4694H21.4693H21.4692H21.4691H21.469H21.4689H21.4687H21.4686H21.4685H21.4684H21.4683H21.4682H21.4681H21.468H21.4679H21.4678H21.4677H21.4676H21.4674H21.4673H21.4672H21.4671H21.467H21.4669H21.4668H21.4667H21.4665H21.4664H21.4663H21.4662H21.4661H21.466H21.4658H21.4657C21.4103 7.37971 21.3515 7.3662 21.3001 7.34371C21.25 7.32176 21.1961 7.2865 21.1616 7.23477L21.1587 7.23035L21.1588 7.23028C20.5252 6.16112 19.614 5.26948 18.5238 4.63517L18.5227 4.63449L18.5227 4.63448C18.461 4.5975 18.4101 4.54965 18.3792 4.48803C18.3478 4.42524 18.3418 4.35695 18.3556 4.28815L18.3567 4.28258L18.3568 4.28262L18.7582 2.7373C18.7583 2.73715 18.7583 2.73701 18.7583 2.73687C18.8655 2.30727 18.6152 1.88091 18.1884 1.77421L18.1876 1.774L16.4807 1.33223L16.4705 1.32958L16.4611 1.32486C16.4056 1.29714 16.3304 1.29525 16.2447 1.29525C15.9307 1.29525 15.6277 1.52371 15.5383 1.8631C15.5383 1.86316 15.5382 1.86323 15.5382 1.86329L15.1373 3.40673C15.1065 3.55282 14.9659 3.66433 14.8199 3.66478M11.1435 3.94469L15.0399 3.38405C15.0198 3.48445 14.9194 3.56478 14.819 3.56478C13.5339 3.58486 12.2888 3.92623 11.1844 4.56881C11.1442 4.58889 11.1041 4.60897 11.0639 4.60897C11.0037 4.60897 10.9434 4.58889 10.9033 4.52865M11.1435 3.94469L10.1908 2.99205C9.93157 2.73278 9.58502 2.58123 9.19642 2.58123V2.58109L9.19117 2.58136C8.78869 2.60255 8.42274 2.75122 8.16184 3.01213L8.16182 3.01212L8.16052 3.01348L7.64519 3.54862M14.8199 3.66478C14.8196 3.66478 14.8193 3.66478 14.819 3.66478V3.56479L14.8206 3.66476C14.8203 3.66477 14.8201 3.66477 14.8199 3.66478ZM14.8199 3.66478C13.5518 3.68471 12.3239 4.02155 11.2347 4.65525L11.2292 4.65843L11.2291 4.65825C11.2272 4.65923 11.2251 4.66026 11.223 4.66133C11.1877 4.67913 11.1284 4.70897 11.0639 4.70897C10.9834 4.70897 10.8903 4.68174 10.8266 4.59346M10.8266 4.59346L10.8332 4.59998L10.9033 4.52865M10.8266 4.59346C10.8244 4.59042 10.8222 4.58731 10.8201 4.58412L10.9033 4.52865M10.8266 4.59346L9.6886 3.47547L9.68797 3.47484C9.52596 3.31283 9.35057 3.24308 9.13618 3.24308C8.94749 3.24308 8.75087 3.32834 8.58291 3.45693M10.9033 4.52865L9.75868 3.40413C9.57795 3.22341 9.37715 3.14308 9.13618 3.14308C8.91529 3.14308 8.6944 3.24349 8.51368 3.38405M8.58291 3.45693L8.5896 3.44913L8.51368 3.38405M8.58291 3.45693C8.58029 3.45894 8.57768 3.46096 8.57507 3.46299L8.51368 3.38405M8.58291 3.45693L8.10767 4.01139L8.10266 4.01723L8.10245 4.01702C8.03929 4.08018 7.95118 4.10655 7.87109 4.10655C7.86883 4.10655 7.86645 4.10656 7.86395 4.10657C7.80986 4.1068 7.7037 4.10725 7.63322 4.01036M8.51368 3.38405L8.03174 3.94631C7.99158 3.98647 7.93134 4.00655 7.87109 4.00655C7.81085 4.00655 7.75061 4.00655 7.71045 3.94631M7.63322 4.01036C7.63542 4.01266 7.6376 4.01488 7.63974 4.01702L7.71045 3.94631M7.63322 4.01036C7.6312 4.00758 7.62921 4.00472 7.62724 4.00178L7.71045 3.94631M7.63322 4.01036C7.58744 3.96257 7.53013 3.88121 7.53013 3.78566C7.53013 3.70528 7.55727 3.61236 7.64519 3.54862M7.71045 3.94631C7.67029 3.90615 7.63013 3.84591 7.63013 3.78566C7.63013 3.72542 7.65021 3.66518 7.71045 3.62502M7.71045 3.62502L7.63842 3.55565L7.64519 3.54862M7.71045 3.62502L8.23255 3.08284M7.71045 3.62502L7.65498 3.54181C7.65164 3.54404 7.64838 3.54631 7.64519 3.54862" fill="#4301FF" stroke="#4301FF" stroke-width="0.2"/>
<path d="M11.8374 7.71171L11.8374 7.71172L11.8382 7.7109C12.6827 6.84684 13.8215 6.37552 15.0198 6.37552C16.1972 6.37552 17.297 6.84626 18.1428 7.67238C18.9876 8.49759 19.4781 9.61667 19.4781 10.8138C19.4781 11.9901 19.0284 13.1264 18.1883 13.9698C18.0998 14.0335 18.0725 14.1268 18.0725 14.2074C18.0725 14.3009 18.1273 14.3808 18.1726 14.4289C18.1984 14.469 18.2373 14.4926 18.2709 14.5061C18.31 14.5217 18.3531 14.5283 18.3934 14.5283C18.4755 14.5283 18.5528 14.5003 18.6514 14.4609L18.671 14.4531L18.6857 14.438C19.6277 13.4755 20.1601 12.1854 20.1601 10.8138L20.16 10.8123C20.1396 9.42049 19.5867 8.1503 18.624 7.20808C17.6617 6.26626 16.3715 5.73374 15.0198 5.73374C13.6515 5.73374 12.3432 6.26361 11.3806 7.24301C11.2923 7.30676 11.2651 7.39984 11.2651 7.48036C11.2651 7.57579 11.3223 7.65707 11.368 7.70488C11.4318 7.7939 11.5253 7.82133 11.6061 7.82133C11.7062 7.82133 11.7908 7.75837 11.8374 7.71171Z" fill="#4301FF" stroke="#4301FF" stroke-width="0.2"/>
</svg>
