<svg width="40" height="40" viewBox="0 0 40 40" fill="none" xmlns="http://www.w3.org/2000/svg">
<path d="M18.0147 35.346C18.0286 34.9781 17.7415 34.6686 17.3736 34.6547C17.3735 34.6547 17.3734 34.6547 17.3733 34.6547C8.67583 34.3318 1.69508 27.3636 1.35667 18.6667H4C4.36817 18.6667 4.66667 18.3682 4.66667 18C4.66667 17.6318 4.36817 17.3333 4 17.3333H1.35667C1.69025 8.65175 8.65167 1.69058 17.3333 1.35733V3.33333C17.3333 3.7015 17.6318 4 18 4C18.3682 4 18.6667 3.7015 18.6667 3.33333V1.35733C27.2295 1.6885 34.1405 8.469 34.6347 17.024L32.0347 14.424C31.7698 14.1682 31.3478 14.1755 31.092 14.4403C30.8425 14.6987 30.8425 15.1082 31.092 15.3667L34.8133 19.088C34.8834 19.1728 34.9738 19.2386 35.076 19.2793C35.1021 19.2872 35.1286 19.2937 35.1553 19.2987C35.2011 19.3152 35.2484 19.3266 35.2967 19.3327C35.3033 19.3327 35.3093 19.3327 35.316 19.3327C35.3227 19.3327 35.3287 19.3327 35.3347 19.3327C35.3854 19.3288 35.4356 19.319 35.484 19.3033C35.5114 19.3 35.5386 19.2949 35.5653 19.288C35.6556 19.2559 35.7378 19.2045 35.806 19.1373L39.578 15.3667C39.8338 15.1018 39.8265 14.6798 39.5617 14.424C39.3033 14.1745 38.8938 14.1745 38.6353 14.424L35.9707 17.0867C35.4944 7.53083 27.615 0.0234167 18.0473 0.00933333C18.0307 0.00866667 18.0167 0 18 0C17.9833 0 17.9693 0.00866667 17.9527 0.00933333C8.0485 0.0229167 0.0229167 8.0485 0.00933333 17.9527C0.00933333 17.9693 0 17.9833 0 18C0 18.0167 0.00866667 18.0307 0.00933333 18.0473C0.0259167 27.7071 7.67092 35.6282 17.324 35.9873H17.3487C17.7069 35.9872 18.0011 35.704 18.0147 35.346Z" fill="#161616"/>
<path d="M27.3291 9.19519C27.0688 8.93494 26.6468 8.93494 26.3865 9.19519L19.2225 16.3585C18.6812 16.1172 18.063 16.1172 17.5218 16.3585L14.1298 12.9665C13.865 12.7108 13.4429 12.7181 13.1871 12.9829C12.9376 13.2413 12.9376 13.6509 13.1871 13.9092L16.5725 17.2945C16.0971 18.2895 16.5185 19.4815 17.5135 19.9568C18.2773 20.3216 19.1881 20.1652 19.7865 19.5665C20.388 18.97 20.543 18.0567 20.1718 17.2952L27.3291 10.1379C27.5894 9.87752 27.5894 9.45552 27.3291 9.19519ZM18.844 18.623C18.8439 18.6231 18.8439 18.6231 18.8438 18.6232C18.5801 18.8753 18.1648 18.8753 17.9011 18.6232C17.6407 18.3629 17.6407 17.9408 17.901 17.6803C18.1613 17.4199 18.5834 17.4199 18.8438 17.6802C19.1042 17.9405 19.1042 18.3627 18.844 18.623Z" fill="#161616"/>
</svg>
