<svg width="40" height="40" viewBox="0 0 40 40" fill="none" xmlns="http://www.w3.org/2000/svg">
<path d="M8.97853 26.3536C8.97853 23.9634 10.9162 22.0258 13.3064 22.0258H20.1529V27.8614C20.1529 30.2517 18.2152 32.1893 15.825 32.1893H13.3064C10.9162 32.1893 8.97853 30.2517 8.97853 27.8614V26.3536Z" stroke="#161616" stroke-width="0.786886"/>
<path d="M5.82496 28.1314V6.49255L28.5223 6.51966C32.6474 6.52459 35.9888 9.87001 35.9888 13.9951V35.6069H13.3004C9.17182 35.6069 5.82496 32.26 5.82496 28.1314Z" stroke="#161616" stroke-width="0.786886"/>
<line x1="5.69202" y1="6.49208" x2="3.33346" y2="6.49208" stroke="#161616" stroke-width="0.786886"/>
<line x1="5.56298" y1="6.3584" x2="5.56298" y2="3.99985" stroke="#161616" stroke-width="0.786886"/>
<path d="M8.97853 13.9669C8.97853 11.6255 10.8766 9.72743 13.218 9.72743H28.6286C31.0188 9.72743 32.9564 11.6651 32.9564 14.0553V18.2063H13.2179C10.8766 18.2063 8.97853 16.3082 8.97853 13.9669Z" stroke="#161616" stroke-width="0.786886"/>
<line x1="22.5684" y1="21.4073" x2="29.644" y2="21.4073" stroke="#161616" stroke-width="0.786886"/>
<line x1="22.5684" y1="24.9454" x2="33.3503" y2="24.9454" stroke="#161616" stroke-width="0.786886"/>
<line x1="22.5684" y1="28.483" x2="33.3503" y2="28.483" stroke="#161616" stroke-width="0.786886"/>
<line x1="22.5684" y1="32.0206" x2="33.3503" y2="32.0206" stroke="#161616" stroke-width="0.786886"/>
</svg>
