<svg width="656" height="726" viewBox="0 0 656 726" fill="none" xmlns="http://www.w3.org/2000/svg">
<path d="M47.7788 171.53C90.7265 99.6782 158.915 46.4158 239.028 22.1446L269.69 12.8551C326.522 -4.36268 387.193 -4.26688 443.97 13.1304C569.588 51.6213 655.358 167.608 655.358 298.991L655.358 365.035C655.358 451.443 624.6 535.029 568.591 600.827L550.577 621.991C501.458 679.694 431.985 716.24 356.608 724.027C255.099 734.512 155.398 691.692 93.1093 610.858L80.2216 594.134C51.3992 556.73 30.8787 513.613 20.0273 467.656L9.12376 421.479C-10.9874 336.306 2.87827 246.649 47.7788 171.53Z" fill="#F8FBFF"/>
</svg>
