<svg width="63" height="55" viewBox="0 0 63 55" fill="none" xmlns="http://www.w3.org/2000/svg">
<circle cx="61.875" cy="23.6806" r="0.763889" transform="rotate(-90 61.875 23.6806)" fill="#FA842E"/>
<circle cx="61.875" cy="0.763943" r="0.763889" transform="rotate(-90 61.875 0.763943)" fill="#FA842E"/>
<circle cx="0.763889" cy="23.6806" r="0.763889" transform="rotate(-90 0.763889 23.6806)" fill="#FA842E"/>
<circle cx="8.40281" cy="54.2361" r="0.763889" transform="rotate(-90 8.40281 54.2361)" fill="#FA842E"/>
<circle cx="0.763889" cy="0.763943" r="0.763889" transform="rotate(-90 0.763889 0.763943)" fill="#FA842E"/>
<circle cx="8.40281" cy="31.3195" r="0.763889" transform="rotate(-90 8.40281 31.3195)" fill="#FA842E"/>
<circle cx="16.0417" cy="23.6806" r="0.763889" transform="rotate(-90 16.0417 23.6806)" fill="#FA842E"/>
<circle cx="23.6806" cy="54.2361" r="0.763889" transform="rotate(-90 23.6806 54.2361)" fill="#FA842E"/>
<circle cx="16.0417" cy="0.763943" r="0.763889" transform="rotate(-90 16.0417 0.763943)" fill="#FA842E"/>
<circle cx="23.6806" cy="31.3195" r="0.763889" transform="rotate(-90 23.6806 31.3195)" fill="#FA842E"/>
<circle cx="31.3196" cy="23.6806" r="0.763889" transform="rotate(-90 31.3196 23.6806)" fill="#FA842E"/>
<circle cx="38.9582" cy="54.2361" r="0.763889" transform="rotate(-90 38.9582 54.2361)" fill="#FA842E"/>
<circle cx="31.3196" cy="0.763943" r="0.763889" transform="rotate(-90 31.3196 0.763943)" fill="#FA842E"/>
<circle cx="38.9582" cy="31.3195" r="0.763889" transform="rotate(-90 38.9582 31.3195)" fill="#FA842E"/>
<circle cx="46.5971" cy="23.6806" r="0.763889" transform="rotate(-90 46.5971 23.6806)" fill="#FA842E"/>
<circle cx="54.2361" cy="54.2361" r="0.763889" transform="rotate(-90 54.2361 54.2361)" fill="#FA842E"/>
<circle cx="46.5971" cy="0.763943" r="0.763889" transform="rotate(-90 46.5971 0.763943)" fill="#FA842E"/>
<circle cx="54.2361" cy="31.3195" r="0.763889" transform="rotate(-90 54.2361 31.3195)" fill="#FA842E"/>
<circle cx="0.763889" cy="54.2361" r="0.763889" transform="rotate(-90 0.763889 54.2361)" fill="#FA842E"/>
<circle cx="0.763889" cy="31.3195" r="0.763889" transform="rotate(-90 0.763889 31.3195)" fill="#FA842E"/>
<circle cx="8.40281" cy="23.6806" r="0.763889" transform="rotate(-90 8.40281 23.6806)" fill="#FA842E"/>
<circle cx="16.0417" cy="54.2361" r="0.763889" transform="rotate(-90 16.0417 54.2361)" fill="#FA842E"/>
<circle cx="8.40281" cy="0.763943" r="0.763889" transform="rotate(-90 8.40281 0.763943)" fill="#FA842E"/>
<circle cx="16.0417" cy="31.3195" r="0.763889" transform="rotate(-90 16.0417 31.3195)" fill="#FA842E"/>
<circle cx="23.6806" cy="23.6806" r="0.763889" transform="rotate(-90 23.6806 23.6806)" fill="#FA842E"/>
<circle cx="31.3196" cy="54.2361" r="0.763889" transform="rotate(-90 31.3196 54.2361)" fill="#FA842E"/>
<circle cx="23.6806" cy="0.763943" r="0.763889" transform="rotate(-90 23.6806 0.763943)" fill="#FA842E"/>
<circle cx="31.3196" cy="31.3195" r="0.763889" transform="rotate(-90 31.3196 31.3195)" fill="#FA842E"/>
<circle cx="38.9582" cy="23.6806" r="0.763889" transform="rotate(-90 38.9582 23.6806)" fill="#FA842E"/>
<circle cx="46.5971" cy="54.2361" r="0.763889" transform="rotate(-90 46.5971 54.2361)" fill="#FA842E"/>
<circle cx="38.9582" cy="0.763943" r="0.763889" transform="rotate(-90 38.9582 0.763943)" fill="#FA842E"/>
<circle cx="46.5971" cy="31.3195" r="0.763889" transform="rotate(-90 46.5971 31.3195)" fill="#FA842E"/>
<circle cx="54.2361" cy="23.6806" r="0.763889" transform="rotate(-90 54.2361 23.6806)" fill="#FA842E"/>
<circle cx="61.875" cy="54.2361" r="0.763889" transform="rotate(-90 61.875 54.2361)" fill="#FA842E"/>
<circle cx="54.2361" cy="0.763943" r="0.763889" transform="rotate(-90 54.2361 0.763943)" fill="#FA842E"/>
<circle cx="61.875" cy="31.3195" r="0.763889" transform="rotate(-90 61.875 31.3195)" fill="#FA842E"/>
<circle cx="61.875" cy="16.0417" r="0.763889" transform="rotate(-90 61.875 16.0417)" fill="#FA842E"/>
<circle cx="0.763889" cy="16.0417" r="0.763889" transform="rotate(-90 0.763889 16.0417)" fill="#FA842E"/>
<circle cx="8.40281" cy="46.5972" r="0.763889" transform="rotate(-90 8.40281 46.5972)" fill="#FA842E"/>
<circle cx="16.0417" cy="16.0417" r="0.763889" transform="rotate(-90 16.0417 16.0417)" fill="#FA842E"/>
<circle cx="23.6806" cy="46.5972" r="0.763889" transform="rotate(-90 23.6806 46.5972)" fill="#FA842E"/>
<circle cx="31.3196" cy="16.0417" r="0.763889" transform="rotate(-90 31.3196 16.0417)" fill="#FA842E"/>
<circle cx="38.9582" cy="46.5972" r="0.763889" transform="rotate(-90 38.9582 46.5972)" fill="#FA842E"/>
<circle cx="46.5971" cy="16.0417" r="0.763889" transform="rotate(-90 46.5971 16.0417)" fill="#FA842E"/>
<circle cx="54.2361" cy="46.5972" r="0.763889" transform="rotate(-90 54.2361 46.5972)" fill="#FA842E"/>
<circle cx="0.763889" cy="46.5972" r="0.763889" transform="rotate(-90 0.763889 46.5972)" fill="#FA842E"/>
<circle cx="8.40281" cy="16.0417" r="0.763889" transform="rotate(-90 8.40281 16.0417)" fill="#FA842E"/>
<circle cx="16.0417" cy="46.5972" r="0.763889" transform="rotate(-90 16.0417 46.5972)" fill="#FA842E"/>
<circle cx="23.6806" cy="16.0417" r="0.763889" transform="rotate(-90 23.6806 16.0417)" fill="#FA842E"/>
<circle cx="31.3196" cy="46.5972" r="0.763889" transform="rotate(-90 31.3196 46.5972)" fill="#FA842E"/>
<circle cx="38.9582" cy="16.0417" r="0.763889" transform="rotate(-90 38.9582 16.0417)" fill="#FA842E"/>
<circle cx="46.5971" cy="46.5972" r="0.763889" transform="rotate(-90 46.5971 46.5972)" fill="#FA842E"/>
<circle cx="54.2361" cy="16.0417" r="0.763889" transform="rotate(-90 54.2361 16.0417)" fill="#FA842E"/>
<circle cx="61.875" cy="46.5972" r="0.763889" transform="rotate(-90 61.875 46.5972)" fill="#FA842E"/>
<circle cx="61.875" cy="8.40274" r="0.763889" transform="rotate(-90 61.875 8.40274)" fill="#FA842E"/>
<circle cx="0.763889" cy="8.40274" r="0.763889" transform="rotate(-90 0.763889 8.40274)" fill="#FA842E"/>
<circle cx="8.40281" cy="38.9583" r="0.763889" transform="rotate(-90 8.40281 38.9583)" fill="#FA842E"/>
<circle cx="16.0417" cy="8.40274" r="0.763889" transform="rotate(-90 16.0417 8.40274)" fill="#FA842E"/>
<circle cx="23.6806" cy="38.9583" r="0.763889" transform="rotate(-90 23.6806 38.9583)" fill="#FA842E"/>
<circle cx="31.3196" cy="8.40274" r="0.763889" transform="rotate(-90 31.3196 8.40274)" fill="#FA842E"/>
<circle cx="38.9582" cy="38.9583" r="0.763889" transform="rotate(-90 38.9582 38.9583)" fill="#FA842E"/>
<circle cx="46.5971" cy="8.40274" r="0.763889" transform="rotate(-90 46.5971 8.40274)" fill="#FA842E"/>
<circle cx="54.2361" cy="38.9583" r="0.763889" transform="rotate(-90 54.2361 38.9583)" fill="#FA842E"/>
<circle cx="0.763889" cy="38.9583" r="0.763889" transform="rotate(-90 0.763889 38.9583)" fill="#FA842E"/>
<circle cx="8.40281" cy="8.40274" r="0.763889" transform="rotate(-90 8.40281 8.40274)" fill="#FA842E"/>
<circle cx="16.0417" cy="38.9583" r="0.763889" transform="rotate(-90 16.0417 38.9583)" fill="#FA842E"/>
<circle cx="23.6806" cy="8.40274" r="0.763889" transform="rotate(-90 23.6806 8.40274)" fill="#FA842E"/>
<circle cx="31.3196" cy="38.9583" r="0.763889" transform="rotate(-90 31.3196 38.9583)" fill="#FA842E"/>
<circle cx="38.9582" cy="8.40274" r="0.763889" transform="rotate(-90 38.9582 8.40274)" fill="#FA842E"/>
<circle cx="46.5971" cy="38.9583" r="0.763889" transform="rotate(-90 46.5971 38.9583)" fill="#FA842E"/>
<circle cx="54.2361" cy="8.40274" r="0.763889" transform="rotate(-90 54.2361 8.40274)" fill="#FA842E"/>
<circle cx="61.875" cy="38.9583" r="0.763889" transform="rotate(-90 61.875 38.9583)" fill="#FA842E"/>
</svg>
