<svg width="164" height="144" viewBox="0 0 164 144" fill="none" xmlns="http://www.w3.org/2000/svg">
<circle cx="162" cy="62" r="2" transform="rotate(-90 162 62)" fill="#FA842E"/>
<circle cx="162" cy="2" r="2" transform="rotate(-90 162 2)" fill="#FA842E"/>
<circle cx="2" cy="62" r="2" transform="rotate(-90 2 62)" fill="#FA842E"/>
<circle cx="22" cy="142" r="2" transform="rotate(-90 22 142)" fill="#FA842E"/>
<circle cx="2" cy="2" r="2" transform="rotate(-90 2 2)" fill="#FA842E"/>
<circle cx="22" cy="82" r="2" transform="rotate(-90 22 82)" fill="#FA842E"/>
<circle cx="42" cy="62" r="2" transform="rotate(-90 42 62)" fill="#FA842E"/>
<circle cx="62" cy="142" r="2" transform="rotate(-90 62 142)" fill="#FA842E"/>
<circle cx="42" cy="2" r="2" transform="rotate(-90 42 2)" fill="#FA842E"/>
<circle cx="62" cy="82" r="2" transform="rotate(-90 62 82)" fill="#FA842E"/>
<circle cx="82" cy="62" r="2" transform="rotate(-90 82 62)" fill="#FA842E"/>
<circle cx="102" cy="142" r="2" transform="rotate(-90 102 142)" fill="#FA842E"/>
<circle cx="82" cy="2" r="2" transform="rotate(-90 82 2)" fill="#FA842E"/>
<circle cx="102" cy="82" r="2" transform="rotate(-90 102 82)" fill="#FA842E"/>
<circle cx="122" cy="62" r="2" transform="rotate(-90 122 62)" fill="#FA842E"/>
<circle cx="142" cy="142" r="2" transform="rotate(-90 142 142)" fill="#FA842E"/>
<circle cx="122" cy="2" r="2" transform="rotate(-90 122 2)" fill="#FA842E"/>
<circle cx="142" cy="82" r="2" transform="rotate(-90 142 82)" fill="#FA842E"/>
<circle cx="2" cy="142" r="2" transform="rotate(-90 2 142)" fill="#FA842E"/>
<circle cx="2" cy="82" r="2" transform="rotate(-90 2 82)" fill="#FA842E"/>
<circle cx="22" cy="62" r="2" transform="rotate(-90 22 62)" fill="#FA842E"/>
<circle cx="42" cy="142" r="2" transform="rotate(-90 42 142)" fill="#FA842E"/>
<circle cx="22" cy="2" r="2" transform="rotate(-90 22 2)" fill="#FA842E"/>
<circle cx="42" cy="82" r="2" transform="rotate(-90 42 82)" fill="#FA842E"/>
<circle cx="62" cy="62" r="2" transform="rotate(-90 62 62)" fill="#FA842E"/>
<circle cx="82" cy="142" r="2" transform="rotate(-90 82 142)" fill="#FA842E"/>
<circle cx="62" cy="2" r="2" transform="rotate(-90 62 2)" fill="#FA842E"/>
<circle cx="82" cy="82" r="2" transform="rotate(-90 82 82)" fill="#FA842E"/>
<circle cx="102" cy="62" r="2" transform="rotate(-90 102 62)" fill="#FA842E"/>
<circle cx="122" cy="142" r="2" transform="rotate(-90 122 142)" fill="#FA842E"/>
<circle cx="102" cy="2" r="2" transform="rotate(-90 102 2)" fill="#FA842E"/>
<circle cx="122" cy="82" r="2" transform="rotate(-90 122 82)" fill="#FA842E"/>
<circle cx="142" cy="62" r="2" transform="rotate(-90 142 62)" fill="#FA842E"/>
<circle cx="162" cy="142" r="2" transform="rotate(-90 162 142)" fill="#FA842E"/>
<circle cx="142" cy="2" r="2" transform="rotate(-90 142 2)" fill="#FA842E"/>
<circle cx="162" cy="82" r="2" transform="rotate(-90 162 82)" fill="#FA842E"/>
<circle cx="162" cy="42" r="2" transform="rotate(-90 162 42)" fill="#FA842E"/>
<circle cx="2" cy="42" r="2" transform="rotate(-90 2 42)" fill="#FA842E"/>
<circle cx="22" cy="122" r="2" transform="rotate(-90 22 122)" fill="#FA842E"/>
<circle cx="42" cy="42" r="2" transform="rotate(-90 42 42)" fill="#FA842E"/>
<circle cx="62" cy="122" r="2" transform="rotate(-90 62 122)" fill="#FA842E"/>
<circle cx="82" cy="42" r="2" transform="rotate(-90 82 42)" fill="#FA842E"/>
<circle cx="102" cy="122" r="2" transform="rotate(-90 102 122)" fill="#FA842E"/>
<circle cx="122" cy="42" r="2" transform="rotate(-90 122 42)" fill="#FA842E"/>
<circle cx="142" cy="122" r="2" transform="rotate(-90 142 122)" fill="#FA842E"/>
<circle cx="2" cy="122" r="2" transform="rotate(-90 2 122)" fill="#FA842E"/>
<circle cx="22" cy="42" r="2" transform="rotate(-90 22 42)" fill="#FA842E"/>
<circle cx="42" cy="122" r="2" transform="rotate(-90 42 122)" fill="#FA842E"/>
<circle cx="62" cy="42" r="2" transform="rotate(-90 62 42)" fill="#FA842E"/>
<circle cx="82" cy="122" r="2" transform="rotate(-90 82 122)" fill="#FA842E"/>
<circle cx="102" cy="42" r="2" transform="rotate(-90 102 42)" fill="#FA842E"/>
<circle cx="122" cy="122" r="2" transform="rotate(-90 122 122)" fill="#FA842E"/>
<circle cx="142" cy="42" r="2" transform="rotate(-90 142 42)" fill="#FA842E"/>
<circle cx="162" cy="122" r="2" transform="rotate(-90 162 122)" fill="#FA842E"/>
<circle cx="162" cy="22" r="2" transform="rotate(-90 162 22)" fill="#FA842E"/>
<circle cx="2" cy="22" r="2" transform="rotate(-90 2 22)" fill="#FA842E"/>
<circle cx="22" cy="102" r="2" transform="rotate(-90 22 102)" fill="#FA842E"/>
<circle cx="42" cy="22" r="2" transform="rotate(-90 42 22)" fill="#FA842E"/>
<circle cx="62" cy="102" r="2" transform="rotate(-90 62 102)" fill="#FA842E"/>
<circle cx="82" cy="22" r="2" transform="rotate(-90 82 22)" fill="#FA842E"/>
<circle cx="102" cy="102" r="2" transform="rotate(-90 102 102)" fill="#FA842E"/>
<circle cx="122" cy="22" r="2" transform="rotate(-90 122 22)" fill="#FA842E"/>
<circle cx="142" cy="102" r="2" transform="rotate(-90 142 102)" fill="#FA842E"/>
<circle cx="2" cy="102" r="2" transform="rotate(-90 2 102)" fill="#FA842E"/>
<circle cx="22" cy="22" r="2" transform="rotate(-90 22 22)" fill="#FA842E"/>
<circle cx="42" cy="102" r="2" transform="rotate(-90 42 102)" fill="#FA842E"/>
<circle cx="62" cy="22" r="2" transform="rotate(-90 62 22)" fill="#FA842E"/>
<circle cx="82" cy="102" r="2" transform="rotate(-90 82 102)" fill="#FA842E"/>
<circle cx="102" cy="22" r="2" transform="rotate(-90 102 22)" fill="#FA842E"/>
<circle cx="122" cy="102" r="2" transform="rotate(-90 122 102)" fill="#FA842E"/>
<circle cx="142" cy="22" r="2" transform="rotate(-90 142 22)" fill="#FA842E"/>
<circle cx="162" cy="102" r="2" transform="rotate(-90 162 102)" fill="#FA842E"/>
</svg>
