<?xml version="1.0" standalone="no"?>
<!DOCTYPE svg PUBLIC "-//W3C//DTD SVG 20010904//EN"
 "http://www.w3.org/TR/2001/REC-SVG-20010904/DTD/svg10.dtd">
<svg version="1.0" xmlns="http://www.w3.org/2000/svg"
 width="700.000000pt" height="700.000000pt" viewBox="0 0 700.000000 700.000000"
 preserveAspectRatio="xMidYMid meet">
<metadata>
Created by potrace 1.14, written by Peter Selinger 2001-2017
</metadata>
<g transform="translate(0.000000,700.000000) scale(0.100000,-0.100000)"
fill="#000000" stroke="none">
<path d="M3248 6995 c-2 -1 -39 -5 -83 -9 -71 -5 -294 -37 -351 -50 -12 -2
-37 -7 -55 -10 -96 -15 -363 -93 -525 -154 -120 -45 -315 -136 -449 -210 -609
-335 -1149 -908 -1440 -1527 -25 -55 -52 -111 -60 -125 -7 -14 -36 -87 -64
-163 -46 -124 -61 -170 -107 -332 -21 -73 -72 -331 -79 -398 -4 -32 -8 -68
-11 -80 -26 -130 -25 -704 1 -832 2 -11 7 -40 10 -65 6 -49 9 -68 30 -180 146
-779 588 -1515 1214 -2022 53 -43 101 -82 108 -88 35 -29 242 -166 328 -217
325 -193 790 -367 1115 -418 25 -4 54 -9 65 -11 41 -8 71 -13 130 -20 33 -3
69 -8 79 -10 123 -22 639 -22 756 1 9 2 41 6 71 10 80 10 280 45 314 55 17 5
43 11 58 14 43 7 201 54 307 91 283 99 544 228 785 388 89 60 291 210 310 231
6 6 44 40 85 76 99 86 189 178 325 331 101 113 240 306 343 476 230 380 403
868 458 1298 3 28 8 58 10 68 11 59 19 239 19 422 0 218 -8 336 -30 480 -3 17
-7 48 -11 70 -61 414 -243 899 -478 1275 -70 111 -218 319 -257 360 -8 9 -38
45 -68 80 -30 36 -113 124 -185 195 -422 420 -945 723 -1526 884 -89 24 -286
67 -350 76 -25 3 -56 8 -70 10 -14 2 -52 7 -85 11 -33 3 -73 8 -90 11 -33 5
-542 13 -547 8z m477 -1069 c53 -6 188 -28 252 -40 62 -13 230 -61 318 -92
114 -41 368 -164 466 -227 518 -333 885 -831 1043 -1418 14 -52 28 -107 31
-124 40 -215 48 -297 49 -490 0 -221 -19 -388 -70 -590 -24 -96 -74 -258 -93
-300 -5 -11 -24 -54 -43 -95 -27 -62 -74 -153 -142 -275 -25 -44 -102 -155
-162 -232 -285 -365 -699 -656 -1139 -801 -270 -89 -492 -125 -775 -124 -74 1
-153 3 -175 6 -22 3 -69 8 -105 11 -36 4 -108 15 -160 26 -494 101 -893 313
-1241 659 -241 240 -380 443 -524 765 -14 32 -59 146 -60 155 0 3 -8 28 -17
55 -24 70 -63 228 -77 305 -57 311 -46 690 28 990 7 25 14 54 16 65 23 102
129 375 182 468 18 32 33 61 33 63 0 2 26 46 57 97 167 271 375 497 635 689
339 251 792 423 1194 454 49 3 90 8 92 9 6 5 329 -3 387 -9z"/>
</g>
</svg>
