<svg width="522" height="751" viewBox="0 0 522 751" fill="none" xmlns="http://www.w3.org/2000/svg">
<path d="M15.7979 248.649C40.8201 168.767 94.7202 101.082 166.972 58.8103L220.795 27.3207C254.99 7.3144 294.369 -2.05581 333.911 0.404619C462.15 8.38415 549.504 133.752 512.575 256.818L476.899 375.709C472.793 389.395 469.676 403.357 467.573 417.49L433.75 644.782C427.273 688.309 398.174 725.124 357.32 741.478C315.745 758.121 268.423 751.011 233.575 722.884L143.856 650.47C108.409 621.859 79.4653 586.023 58.9544 545.349L36.4513 500.724C-2.95358 422.583 -10.362 332.163 15.7979 248.649Z" fill="#F8FBFF"/>
</svg>
