<svg width="165" height="216" viewBox="0 0 165 216" fill="none" xmlns="http://www.w3.org/2000/svg">
<path d="M101.909 214.918C81.0201 217.204 60.3968 208.742 47.1343 192.442L27.9775 168.898C17.7792 156.364 10.4294 141.762 6.43777 126.104L2.73273 111.57C-3.95027 85.3553 2.613 57.5288 20.3064 37.0631C29.4258 26.5149 41.0644 18.444 54.1401 13.601L78.989 4.39751C100.867 -3.70561 125.462 1.74579 141.867 18.3341C151.472 28.0457 157.437 40.7701 158.758 54.3648L164.539 113.86C165.761 126.437 164.456 139.131 160.702 151.197L154.302 171.759C146.98 195.288 126.405 212.237 101.909 214.918Z" fill="#F8FBFF"/>
</svg>
