<svg width="436" height="587" viewBox="0 0 436 587" fill="none" xmlns="http://www.w3.org/2000/svg">
<path d="M1.41416 255.106C6.90359 191.244 36.6987 131.926 84.651 89.3934L135.282 44.4842C159.064 23.3899 188.154 9.18841 219.413 3.41128C331.846 -17.3674 433.578 73.727 425.292 187.763L420.107 259.116C419.224 271.27 419.309 283.474 420.36 295.614L435.121 466.012C438.618 506.373 419.784 545.419 386.021 567.809C355.575 587.999 317.128 591.865 283.272 578.142L193.859 541.9C154.991 526.146 119.95 502.248 91.0931 471.815L69.122 448.643C19.9349 396.77 -4.70807 326.33 1.41416 255.106Z" fill="#F8FBFF"/>
</svg>
