<svg width="958" height="1115" viewBox="0 0 958 1115" fill="none" xmlns="http://www.w3.org/2000/svg">
<path d="M171.897 41.5405C269.966 -12.2109 388.603 -12.5638 486.991 40.6031L629.106 117.399C704.762 158.282 770.619 215.133 822.111 284.008L869.906 347.938C956.116 463.253 980.466 613.447 935.104 750.092C911.724 820.521 870.914 883.894 816.469 934.317L713.003 1030.14C621.907 1114.51 489.865 1137.75 375.436 1089.56C308.443 1061.35 253.217 1010.91 219.056 946.75L69.5586 665.947C37.9548 606.585 18.5383 541.504 12.4508 474.53L2.07631 360.392C-9.79491 229.788 56.8946 104.572 171.897 41.5405Z" fill="#F8FBFF"/>
</svg>
