<svg width="160" height="28" viewBox="0 0 160 28" fill="none" xmlns="http://www.w3.org/2000/svg">
<g clip-path="url(#clip0_491:1332)">
<path d="M160 0H0V27.782H160V0Z" fill="white"/>
<path d="M149.643 4.24902V8.76676C150.773 8.12137 151.58 7.96001 153.033 7.96001C157.23 7.96001 159.651 10.6333 159.651 14.2526C159.651 18.2863 157.499 20.3837 153.652 20.3837C151.899 20.3837 150.954 20.3837 149.643 20.3837H146.091V4.24902H149.643ZM149.643 14.2526C149.643 15.2818 149.643 17.5661 149.643 17.5661C149.643 17.5661 151.995 17.5661 153.007 17.5661C155.04 17.5661 156.423 16.3097 156.423 14.2526C156.423 12.1955 155.081 10.8643 153.033 10.8643C150.985 10.8643 149.643 12.2419 149.643 14.2526Z" fill="#222222"/>
<path d="M128.333 4.24902H124.781V20.3837H128.333V4.24902Z" fill="#222222"/>
<path d="M134.607 12.0998C134.607 10.7101 135.494 10.12 137.26 10.12C139.05 10.12 139.96 10.5548 139.96 11.4477C139.96 12.752 138.34 12.6666 135.34 12.9073C132.046 13.1715 130.593 14.165 130.593 16.4941C130.593 18.8233 131.684 20.3839 134.993 20.3839C136.998 20.3839 138.556 19.8869 139.875 18.6913V20.3839H143.508V19.7827C143.508 19.0276 143.508 18.8854 143.508 18.078V12.2318C143.508 8.51295 140.639 7.79869 137.484 7.79869C133.118 7.79869 130.851 9.32039 130.851 12.0998H134.607ZM139.96 14.297V14.7085C139.96 16.5795 138.317 17.9071 135.833 17.9071C134.622 17.9071 133.866 17.3016 133.866 16.4087C133.866 15.2752 134.946 15.1277 136.998 14.9103C138.217 14.7783 139.204 14.7085 139.96 14.297Z" fill="#222222"/>
<path d="M34.7275 14.1814C34.7275 18.0757 37.5733 20.526 42.2356 20.526C46.8981 20.526 49.7219 18.0757 49.7219 14.1814C49.7219 10.3091 46.9419 7.85881 42.2356 7.85881C37.5295 7.85881 34.7275 10.3091 34.7275 14.1814ZM38.7115 14.2033C38.7115 12.125 40.0905 10.681 42.2356 10.681C44.3371 10.681 45.7379 12.1031 45.7379 14.1814C45.7379 16.2598 44.3371 17.7038 42.2356 17.7038C40.0905 17.7038 38.7115 16.2817 38.7115 14.2033Z" fill="#222222"/>
<path d="M55.3988 10.0466V8.27449H51.7212V20.1103H55.3988V14.269C55.3988 12.1687 56.7339 10.681 58.8354 10.681C60.9148 10.681 61.4183 12.0156 61.4183 14.3784V20.1103H64.9645V14.269C64.9645 12.1687 66.2996 10.681 68.4011 10.681C70.5024 10.681 70.984 12.0156 70.984 14.3784V20.1103H74.6616V13.5908C74.6616 10.0903 73.5451 7.85881 69.5832 7.85881C67.6569 7.85881 65.9056 8.82143 64.68 10.4185C64.045 8.90895 62.3814 7.85881 60.0394 7.85881C58.2881 7.85881 56.712 8.6683 55.3988 10.0466Z" fill="#222222"/>
<path d="M90.4569 16.2598H86.4073C85.9694 17.3537 84.9188 17.9882 83.5179 17.9882C81.7667 17.9882 80.5189 16.8724 80.5189 15.1441H90.6538V14.6409C90.6538 10.2872 88.0928 7.85881 83.5179 7.85881C79.0743 7.85881 76.3818 10.3091 76.3818 14.1814C76.3818 18.0757 79.1181 20.526 83.5179 20.526C87.0203 20.526 89.4718 18.9508 90.4569 16.2598ZM80.6284 12.6938C80.7598 11.228 81.8981 10.3091 83.6053 10.3091C85.3128 10.3091 86.4511 11.228 86.5825 12.6938H80.6284Z" fill="#222222"/>
<path d="M102.619 8.00103V8.77769C101.591 7.7932 100.234 7.85882 98.4385 7.85882C94.4109 7.85882 92.2218 10.3748 92.2218 13.7658C92.2218 17.2443 94.4328 19.6071 98.5042 19.6071C100.255 19.6071 101.613 19.443 102.619 18.4367V18.9727C102.619 21.0073 101.678 21.6637 99.0515 21.6637C97.2783 21.6637 96.381 21.1823 96.381 20.1759H92.7253C92.7253 22.9763 94.8487 24.289 99.0296 24.289C103.517 24.289 106.297 22.6044 106.297 18.9289V8.00103H102.619ZM102.619 13.7658C102.619 15.691 101.284 16.938 99.1389 16.938C97.0157 16.938 95.6587 15.7129 95.6587 13.7658C95.6587 11.8405 97.0157 10.5279 99.1389 10.5279C101.284 10.5279 102.619 11.8624 102.619 13.7658Z" fill="#222222"/>
<path d="M112.568 12.1906C112.568 10.7904 113.465 10.1997 115.26 10.1997C117.077 10.1997 117.996 10.6373 117.996 11.5343C117.996 12.8469 116.355 12.7594 113.312 13.0001C109.547 13.3064 108.507 14.1596 108.507 16.6099C108.507 18.9508 109.612 20.526 112.962 20.526C114.997 20.526 116.573 20.0228 117.909 18.8195V20.3837H121.586V19.7001C121.586 19.1531 121.586 19.0164 121.586 18.2069V12.3219C121.586 8.58078 118.675 7.85881 115.479 7.85881C111.057 7.85881 108.759 9.39025 108.759 12.1906H112.568ZM117.996 14.4002V14.8159C117.996 16.6974 116.333 18.0319 113.815 18.0319C112.589 18.0319 111.823 17.4193 111.823 16.5224C111.823 15.3847 112.918 15.2316 114.997 15.0128C116.223 14.8815 117.23 14.8159 117.996 14.4002Z" fill="#222222"/>
<path fill-rule="evenodd" clip-rule="evenodd" d="M13.8986 27.782C21.5747 27.782 27.7972 21.5629 27.7972 13.891C27.7972 6.21921 21.5747 0 13.8986 0C6.22262 0 0 6.21921 0 13.891C0 21.5629 6.22262 27.782 13.8986 27.782ZM13.8986 23.533C19.2266 23.533 23.546 19.2161 23.546 13.891C23.546 8.56588 19.2266 4.24902 13.8986 4.24902C8.57057 4.24902 4.25134 8.56588 4.25134 13.891C4.25134 19.2161 8.57057 23.533 13.8986 23.533Z" fill="#FF6B00"/>
</g>
<defs>
<clipPath id="clip0_491:1332">
<rect width="160" height="27.782" fill="white"/>
</clipPath>
</defs>
</svg>
