<svg width="1435" height="121" viewBox="0 0 1435 121" fill="none" xmlns="http://www.w3.org/2000/svg">
<path d="M1434 69.5607C1377.6 83.1798 1344.9 87.9281 1286.94 90.9177C1196.94 95.5601 1147.28 68.6876 1057.16 69.5607C928.98 70.8026 861.101 120.197 732.914 120.411C603.349 120.627 533.8 84.4544 405.094 69.5607C278.5 54.9114 199.928 55.4804 76.2528 90.9177C42.7363 100.521 -8 120.411 -8 120.411" stroke="url(#paint0_linear_48:42)"/>
<path d="M1434 54.6784C1377.6 68.2975 1344.9 73.0458 1286.94 76.0354C1196.94 80.6778 1147.28 53.8053 1057.16 54.6784C928.98 55.9202 861.101 105.314 732.914 105.528C603.349 105.745 533.8 69.5721 405.094 54.6784C278.5 40.0291 199.928 40.598 76.2528 76.0354C42.7363 85.639 -8 105.528 -8 105.528" stroke="url(#paint1_linear_48:42)"/>
<path d="M1434 39.7961C1377.6 53.4152 1344.9 58.1635 1286.94 61.1531C1196.94 65.7954 1147.28 38.923 1057.16 39.7961C928.98 41.0379 861.101 90.4321 732.914 90.646C603.349 90.8623 533.8 54.6897 405.094 39.7961C278.5 25.1467 199.928 25.7157 76.2528 61.1531C42.7363 70.7567 -8 90.646 -8 90.646" stroke="url(#paint2_linear_48:42)"/>
<path d="M1434 24.9138C1377.6 38.5329 1344.9 43.2812 1286.94 46.2707C1196.94 50.9131 1147.28 24.0406 1057.16 24.9138C928.98 26.1556 861.101 75.5498 732.914 75.7637C603.349 75.9799 533.8 39.8074 405.094 24.9138C278.5 10.2644 199.928 10.8334 76.2528 46.2707C42.7363 55.8744 -8 75.7637 -8 75.7637" stroke="url(#paint3_linear_48:42)"/>
<path d="M1434 10.0314C1377.6 23.6505 1344.9 28.3989 1286.94 31.3884C1196.94 36.0308 1147.28 9.15833 1057.16 10.0314C928.98 11.2733 861.101 60.6674 732.914 60.8814C603.349 61.0976 533.8 24.9251 405.094 10.0314C278.5 -4.6179 199.928 -4.04895 76.2528 31.3884C42.7363 40.9921 -8 60.8814 -8 60.8814" stroke="url(#paint4_linear_48:42)"/>
<defs>
<linearGradient id="paint0_linear_48:42" x1="-8" y1="90.0006" x2="1434" y2="61.0005" gradientUnits="userSpaceOnUse">
<stop stop-color="white"/>
<stop offset="0.536458" stop-color="#D4E8FF"/>
<stop offset="1" stop-color="white"/>
</linearGradient>
<linearGradient id="paint1_linear_48:42" x1="0.999994" y1="126" x2="1455.5" y2="75.9996" gradientUnits="userSpaceOnUse">
<stop stop-color="white"/>
<stop offset="0.536458" stop-color="#D4E8FF"/>
<stop offset="1" stop-color="white"/>
</linearGradient>
<linearGradient id="paint2_linear_48:42" x1="6.00001" y1="91.0002" x2="1434" y2="61.0004" gradientUnits="userSpaceOnUse">
<stop stop-color="white"/>
<stop offset="0.536458" stop-color="#D4E8FF"/>
<stop offset="1" stop-color="white"/>
</linearGradient>
<linearGradient id="paint3_linear_48:42" x1="-8" y1="76.0005" x2="1434" y2="76.0005" gradientUnits="userSpaceOnUse">
<stop stop-color="white"/>
<stop offset="0.536458" stop-color="#D4E8FF"/>
<stop offset="1" stop-color="white"/>
</linearGradient>
<linearGradient id="paint4_linear_48:42" x1="-4.29654e-06" y1="60.9995" x2="1434" y2="45.4997" gradientUnits="userSpaceOnUse">
<stop stop-color="white"/>
<stop offset="0.536458" stop-color="#D5E8FF"/>
<stop offset="1" stop-color="white"/>
</linearGradient>
</defs>
</svg>
